<?xml version="1.0" standalone="no"?>
<!DOCTYPE svg PUBLIC "-//W3C//DTD SVG 1.1//EN" "http://www.w3.org/Graphics/SVG/1.1/DTD/svg11.dtd" >
<svg>
<metadata>
Created by FontForge 20090622 at Thu Nov 23 03:05:09 2017
 By deploy user
Copyright &#194;&#169; 2008 Linotype GmbH, www.linotype.com. All rights reserved. This font software may not be reproduced, modified, disclosed or transferred without the express written approval of Linotype GmbH. Eurostile is a trademark of Linotype GmbH and may be registered in certain jurisdictions. This typeface is original artwork of Linotype Design Studio. The design may be protected in certain jurisdictions.
</metadata>
<defs>
<font id="EurostileCandyLTPro-Bold" horiz-adv-x="500" >
  <font-face 
    font-family="Eurostile Candy LT Pro"
    font-weight="700"
    font-stretch="normal"
    units-per-em="1000"
    panose-1="2 15 8 4 2 2 2 6 2 4"
    ascent="700"
    descent="-300"
    x-height="480"
    cap-height="680"
    bbox="-120 -259 1533 895"
    underline-thickness="50"
    underline-position="-150"
    unicode-range="U+000D-U+FB04"
  />
<missing-glyph horiz-adv-x="485" 
d="M485 635v-590q0 -45 -52 -45h-381q-52 0 -52 45v590q0 45 52 45h381q52 0 52 -45zM183 265v40q0 38 43 56l49 20q26 11 33.5 21t7.5 34v13q0 26 -16.5 37.5t-58.5 11.5h-110q-32 0 -32 24v4q0 16 9 23.5t37 11.5t86 4h4q86 0 118.5 -22.5t32.5 -85.5v-17q0 -51 -14 -71
t-55 -37l-36 -14q-23 -9 -23 -32v-22q0 -27 -24 -27h-26q-25 0 -25 28zM262 165v-23q0 -27 -24 -27h-33q-25 0 -25 28v23q0 27 24 27h33q25 0 25 -28zM438 63v554q0 15 -15 15h-361q-15 0 -15 -15v-554q0 -15 15 -15h361q15 0 15 15z" />
    <glyph glyph-name="IJ" unicode="IJ" horiz-adv-x="1143" 
d="M273 618v-558q0 -60 -53 -60h-96q-54 0 -54 62v558q0 60 53 60h96q54 0 54 -62zM1076 618v-320q0 -64 -6 -107.5t-22.5 -79t-43 -56.5t-70.5 -35.5t-101 -19.5t-139 -5h-45q-114 0 -169.5 7.5t-76.5 24t-21 50.5v25q0 54 61 54h195q85 0 129 4.5t69.5 23t31 43.5t5.5 78
v315q0 60 53 60h96q54 0 54 -62z" />
    <glyph glyph-name="ij" unicode="ij" horiz-adv-x="639" 
d="M251 418v-358q0 -60 -53 -60h-79q-54 0 -54 62v358q0 60 53 60h79q54 0 54 -62zM251 618v-19q0 -60 -53 -60h-79q-54 0 -54 62v19q0 60 53 60h79q54 0 54 -62zM388 -14v441q0 53 53 53h80q53 0 53 -53v-435q0 -88 -39.5 -125t-123.5 -37q-91 0 -91 58v22q0 35 37 40
q18 2 24.5 10t6.5 26zM574 618v-19q0 -60 -53 -60h-79q-54 0 -54 62v19q0 60 53 60h79q54 0 54 -62z" />
    <glyph glyph-name="napostrophe" unicode="&#x22;n" horiz-adv-x="821" 
d="M294 299v-239q0 -60 -53 -60h-80q-53 0 -53 60v320q0 103 129 103h211q71 0 115.5 -2.5t82.5 -12t57.5 -24t33.5 -41.5t18 -61t4 -87v-195q0 -60 -53 -60h-80q-53 0 -53 60v154q0 91 -25 114.5t-117 23.5h-77q-60 0 -60 -53zM102 596l-42 -108q-16 -41 -60 -41h-8
q-41 0 -41 39v142q0 52 54 52h55q51 0 51 -46q0 -17 -9 -38z" />
    <glyph glyph-name="f_f" unicode="ff" horiz-adv-x="870" 
d="M745 685h13q63 0 87.5 -12t24.5 -41v-21q0 -48 -57 -48h-58q-46 0 -46 -42v-13q0 -28 36 -28h56q60 0 60 -53v-20q0 -54 -62 -54h-51q-35 0 -35 -30v-263q0 -60 -53 -60h-77q-54 0 -54 62v261q0 30 -29 30h-170q-35 0 -35 -30v-263q0 -60 -53 -60h-77q-54 0 -54 62v261
q0 30 -29 30h-10q-56 0 -56 53v20q0 54 57 54h9q29 0 29 33v10q0 87 52.5 124.5t163.5 37.5h13q54 0 77 -12t23 -41v-21q0 -48 -57 -48h-46q-46 0 -46 -42v-13q0 -28 36 -28h173q29 0 29 33v10q0 87 52.5 124.5t163.5 37.5z" />
    <glyph glyph-name="fi" unicode="fi" horiz-adv-x="768" 
d="M327 685h13q63 0 87.5 -12t24.5 -41v-21q0 -48 -57 -48h-58q-46 0 -46 -42v-13q0 -28 36 -28h56q60 0 60 -53v-20q0 -54 -62 -54h-51q-35 0 -35 -30v-263q0 -60 -53 -60h-77q-54 0 -54 62v261q0 30 -29 30h-10q-56 0 -56 53v20q0 54 57 54h9q29 0 29 33v10
q0 87 52.5 124.5t163.5 37.5zM703 418v-358q0 -60 -53 -60h-79q-54 0 -54 62v358q0 60 53 60h79q54 0 54 -62zM703 618v-19q0 -60 -53 -60h-79q-54 0 -54 62v19q0 60 53 60h79q54 0 54 -62z" />
    <glyph glyph-name="fl" unicode="fl" horiz-adv-x="768" 
d="M327 685h13q63 0 87.5 -12t24.5 -41v-21q0 -48 -57 -48h-58q-46 0 -46 -42v-13q0 -28 36 -28h56q60 0 60 -53v-20q0 -54 -62 -54h-51q-35 0 -35 -30v-263q0 -60 -53 -60h-77q-54 0 -54 62v261q0 30 -29 30h-10q-56 0 -56 53v20q0 54 57 54h9q29 0 29 33v10
q0 87 52.5 124.5t163.5 37.5zM703 618v-558q0 -60 -53 -60h-79q-54 0 -54 62v558q0 60 53 60h79q54 0 54 -62z" />
    <glyph glyph-name="f_f_i" unicode="ffi" horiz-adv-x="1186" 
d="M745 685h13q63 0 87.5 -12t24.5 -41v-21q0 -48 -57 -48h-58q-46 0 -46 -42v-13q0 -28 36 -28h56q60 0 60 -53v-20q0 -54 -62 -54h-51q-35 0 -35 -30v-263q0 -60 -53 -60h-77q-54 0 -54 62v261q0 30 -29 30h-170q-35 0 -35 -30v-263q0 -60 -53 -60h-77q-54 0 -54 62v261
q0 30 -29 30h-10q-56 0 -56 53v20q0 54 57 54h9q29 0 29 33v10q0 87 52.5 124.5t163.5 37.5h13q54 0 77 -12t23 -41v-21q0 -48 -57 -48h-46q-46 0 -46 -42v-13q0 -28 36 -28h173q29 0 29 33v10q0 87 52.5 124.5t163.5 37.5zM1121 418v-358q0 -60 -53 -60h-79q-54 0 -54 62
v358q0 60 53 60h79q54 0 54 -62zM1121 618v-19q0 -60 -53 -60h-79q-54 0 -54 62v19q0 60 53 60h79q54 0 54 -62z" />
    <glyph glyph-name="f_f_l" unicode="ffl" horiz-adv-x="1186" 
d="M745 685h13q63 0 87.5 -12t24.5 -41v-21q0 -48 -57 -48h-58q-46 0 -46 -42v-13q0 -28 36 -28h56q60 0 60 -53v-20q0 -54 -62 -54h-51q-35 0 -35 -30v-263q0 -60 -53 -60h-77q-54 0 -54 62v261q0 30 -29 30h-170q-35 0 -35 -30v-263q0 -60 -53 -60h-77q-54 0 -54 62v261
q0 30 -29 30h-10q-56 0 -56 53v20q0 54 57 54h9q29 0 29 33v10q0 87 52.5 124.5t163.5 37.5h13q54 0 77 -12t23 -41v-21q0 -48 -57 -48h-46q-46 0 -46 -42v-13q0 -28 36 -28h173q29 0 29 33v10q0 87 52.5 124.5t163.5 37.5zM1121 618v-558q0 -60 -53 -60h-79q-54 0 -54 62
v558q0 60 53 60h79q54 0 54 -62z" />
    <glyph glyph-name=".notdef" horiz-adv-x="485" 
d="M485 635v-590q0 -45 -52 -45h-381q-52 0 -52 45v590q0 45 52 45h381q52 0 52 -45zM183 265v40q0 38 43 56l49 20q26 11 33.5 21t7.5 34v13q0 26 -16.5 37.5t-58.5 11.5h-110q-32 0 -32 24v4q0 16 9 23.5t37 11.5t86 4h4q86 0 118.5 -22.5t32.5 -85.5v-17q0 -51 -14 -71
t-55 -37l-36 -14q-23 -9 -23 -32v-22q0 -27 -24 -27h-26q-25 0 -25 28zM262 165v-23q0 -27 -24 -27h-33q-25 0 -25 28v23q0 27 24 27h33q25 0 25 -28zM438 63v554q0 15 -15 15h-361q-15 0 -15 -15v-554q0 -15 15 -15h361q15 0 15 15z" />
    <glyph glyph-name=".null" 
 />
    <glyph glyph-name="nonmarkingreturn" horiz-adv-x="333" 
 />
    <glyph glyph-name="CR" unicode="&#xd;" horiz-adv-x="0" 
 />
    <glyph glyph-name="space" unicode=" " horiz-adv-x="330" 
 />
    <glyph glyph-name="exclam" unicode="!" horiz-adv-x="356" 
d="M85 329l-8 225q-2 62 -2 69q0 57 54 57h98q54 0 54 -57q0 -7 -2 -69l-8 -225q-1 -58 -56 -58h-74q-55 0 -56 58zM282 130v-70q0 -60 -53 -60h-101q-54 0 -54 62v70q0 60 53 60h101q54 0 54 -62z" />
    <glyph glyph-name="quotedbl" unicode="&#x22;" horiz-adv-x="477" 
d="M210 651v-159q0 -55 -49 -55h-39q-50 0 -50 57v159q0 55 49 55h39q50 0 50 -57zM405 651v-159q0 -55 -49 -55h-39q-50 0 -50 57v159q0 55 49 55h39q50 0 50 -57z" />
    <glyph glyph-name="numbersign" unicode="#" horiz-adv-x="728" 
d="M411 396h-78q-25 0 -30 -26l-6 -36q-2 -14 -2 -17q0 -21 24 -21h78q25 0 30 26l6 36q2 14 2 17q0 21 -24 21zM202 551l14 75q10 54 59 54h34q45 0 45 -43q0 -9 -2 -21l-10 -53q-2 -14 -2 -17q0 -21 24 -21h74q25 0 30 26l14 75q10 54 59 54h34q45 0 45 -43q0 -9 -2 -21
l-11 -58q-2 -14 -2 -17q0 -16 18 -16h5q57 0 57 -49v-31q0 -50 -57 -50h-27q-25 0 -30 -26l-7 -38q-2 -14 -2 -15q0 -19 20 -19h25q57 0 57 -49v-31q0 -50 -57 -50h-49q-25 0 -30 -26l-16 -87q-10 -54 -59 -54h-35q-45 0 -45 43q0 9 2 21l13 65q2 14 2 17q0 21 -24 21h-74
q-25 0 -30 -26l-16 -87q-10 -54 -59 -54h-35q-45 0 -45 43q0 9 2 21l13 68q2 14 2 17q0 7 -5 12.5t-13 5.5h-4q-52 0 -52 50v31q0 49 56 49h23q25 0 30 26l7 38q2 14 2 15q0 19 -20 19h-21q-56 0 -56 50v31q0 49 56 49h45q25 0 30 26z" />
    <glyph glyph-name="dollar" unicode="$" horiz-adv-x="924" 
d="M355 415h37q24 0 24 21v90q0 21 -24 21h-37q-54 0 -74 -14t-20 -40v-18q0 -32 18.5 -46t75.5 -14zM577 274h-37q-24 0 -24 -21v-95q0 -21 24 -21h36q58 0 82 13.5t24 46.5v18q0 59 -105 59zM540 416h60q148 0 211 -37.5t63 -142.5v-20q0 -131 -70.5 -176t-263.5 -45
q-24 0 -24 -21v-13q0 -42 -38 -42h-24q-38 0 -38 44v11q0 21 -24 21h-33q-209 0 -253 11.5t-44 64.5v14q0 52 71 52h259q24 0 24 21v94q0 21 -24 21h-81q-125 0 -183 42t-58 138v23q0 70 16 111t58 63t96.5 28.5t151.5 6.5q24 0 24 20v4q0 41 37 41h25q38 0 38 -41v-4
q0 -20 24 -20q109 0 168 -2.5t95.5 -11.5t47 -23t10.5 -40v-8q0 -34 -18 -43.5t-58 -9.5h-245q-24 0 -24 -21v-89q0 -21 24 -21z" />
    <glyph glyph-name="percent" unicode="%" horiz-adv-x="1035" 
d="M269 347h-27q-109 0 -141.5 29t-32.5 135v8q0 105 32.5 133.5t141.5 28.5h27q111 0 144 -28.5t33 -133.5v-8q0 -56 -6.5 -87t-28.5 -49t-53 -23t-89 -5zM249 433h16q37 0 47 13t10 65v8q0 51 -10 63.5t-47 12.5h-16q-38 0 -48 -12.5t-10 -63.5v-8q0 -52 10 -65t48 -13z
M790 -1h-27q-109 0 -141.5 29t-32.5 135v8q0 105 32.5 133.5t141.5 28.5h27q111 0 144 -28.5t33 -133.5v-8q0 -56 -6.5 -87t-28.5 -49t-53 -23t-89 -5zM770 85h16q37 0 47 13t10 65v8q0 51 -10 63.5t-47 12.5h-16q-38 0 -48 -12.5t-10 -63.5v-8q0 -52 10 -65t48 -13z
M711 622l-295 -588q-18 -34 -50 -34h-22q-35 0 -35 30q0 10 9 28l295 588q18 34 50 34h22q35 0 35 -30q0 -10 -9 -28z" />
    <glyph glyph-name="ampersand" unicode="&#x26;" horiz-adv-x="1046" 
d="M447 137h9q158 0 199 5q11 2 11 11q0 8 -10 13l-295 141q-24 11 -35 11q-26 0 -45.5 -19t-19.5 -56v-17q0 -61 31.5 -75t154.5 -14zM751 537h-335q-49 0 -65.5 -7.5t-16.5 -21.5v-6q0 -11 10 -20.5t38 -23.5l311 -154q9 -4 14 -4q9 0 9 10v20q0 58 50 58h61q50 0 50 -58
v-91q0 -22 3 -29t17 -14l96 -49q22 -10 22 -28q0 -12 -8 -26l-35 -65q-14 -25 -34 -25q-12 0 -27 9l-53 30q-20 12 -28 12t-25 -14q-32 -26 -98.5 -35.5t-217.5 -9.5h-28q-93 0 -152 2.5t-107 11.5t-72 21t-40.5 37t-21 54t-4.5 76v13q0 81 25.5 119t83.5 52q15 4 15 14
q0 7 -10 16q-44 38 -44 97v25q0 92 71.5 122t265.5 30h39q71 0 117 -1t84 -4.5t58.5 -9t34.5 -15t18.5 -21.5t4.5 -31v-8q0 -37 -18 -47.5t-58 -10.5z" />
    <glyph glyph-name="quotesingle" unicode="'" horiz-adv-x="282" 
d="M210 651v-159q0 -55 -49 -55h-39q-50 0 -50 57v159q0 55 49 55h39q50 0 50 -57z" />
    <glyph glyph-name="parenleft" unicode="(" horiz-adv-x="460" 
d="M239 346v-12q0 -69 3 -107t14.5 -57.5t23 -24.5t37.5 -8q55 -6 55 -54v-26q0 -62 -103 -62q-46 0 -76.5 6t-58.5 26t-44 56.5t-25 97.5t-9 149v20q0 88 9.5 149t25.5 97.5t44 56.5t58 26t76 6q103 0 103 -62v-25q0 -48 -55 -54q-26 -3 -37.5 -8t-22.5 -25t-14.5 -58
t-3.5 -107z" />
    <glyph glyph-name="parenright" unicode=")" horiz-adv-x="460" 
d="M221 335v12q0 69 -3 107t-14.5 57.5t-23 24.5t-37.5 8q-55 6 -55 54v25q0 62 103 62q46 0 76.5 -6t58.5 -26t44 -56.5t25 -97.5t9 -149v-20q0 -88 -9.5 -149t-25.5 -97.5t-44 -56.5t-58 -26t-76 -6q-103 0 -103 62v26q0 48 55 54q26 3 37.5 8t22.5 25t14.5 58t3.5 107z
" />
    <glyph glyph-name="asterisk" unicode="*" horiz-adv-x="547" 
d="M274 707q61 0 61 -45q0 -7 -2 -21l-2 -13q-4 -27 -15 -36.5t-42 -9.5t-42.5 9.5t-15.5 36.5l-2 13q-2 14 -2 21q0 45 62 45zM68 584q0 20 15.5 40t32.5 20q15 0 29 -11l36 -28q23 -18 23 -35q0 -13 -11.5 -29.5t-26.5 -16.5q-11 0 -28 7l-44 18q-26 10 -26 35zM479 584
q0 -25 -26 -35l-44 -18q-17 -7 -28 -7q-15 0 -26.5 16.5t-11.5 29.5q0 17 23 35l36 28q14 11 29 11q17 0 32.5 -20t15.5 -40zM274 313q-62 0 -62 45q0 7 2 21l2 13q4 27 15.5 36.5t42.5 9.5t42 -9.5t15 -36.5l2 -13q2 -14 2 -21q0 -45 -61 -45zM68 436q0 25 26 35l44 18
q17 7 28 7q15 0 26.5 -16.5t11.5 -29.5q0 -17 -23 -35l-36 -28q-14 -11 -29 -11q-17 0 -32.5 20t-15.5 40zM479 436q0 -20 -15.5 -40t-32.5 -20q-15 0 -29 11l-36 28q-23 18 -23 35q0 13 11.5 29.5t26.5 16.5q11 0 28 -7l44 -18q26 -10 26 -35z" />
    <glyph glyph-name="plus" unicode="+" horiz-adv-x="682" 
d="M120 363h128q15 0 21 5.5t6 18.5v125q0 60 53 60h26q53 0 53 -60v-125q0 -13 6 -18.5t21 -5.5h128q60 0 60 -53v-24q0 -53 -60 -53h-128q-15 0 -21 -5.5t-6 -18.5v-129q0 -60 -53 -60h-26q-53 0 -53 60v129q0 13 -6 18.5t-21 5.5h-128q-60 0 -60 53v24q0 53 60 53z" />
    <glyph glyph-name="comma" unicode="," horiz-adv-x="326" 
d="M258 104l-68 -224q-8 -25 -22.5 -34t-39.5 -9h-15q-20 0 -31 11t-11 27v257q0 60 57 60h85q23 0 37 -14t14 -39q0 -15 -6 -35z" />
    <glyph glyph-name="hyphen" unicode="-" 
d="M128 322h244q60 0 60 -53v-43q0 -53 -60 -53h-244q-60 0 -60 53v43q0 53 60 53z" />
    <glyph glyph-name="period" unicode="." horiz-adv-x="326" 
d="M267 130v-70q0 -60 -53 -60h-101q-54 0 -54 62v70q0 60 53 60h101q54 0 54 -62z" />
    <glyph glyph-name="slash" unicode="/" horiz-adv-x="545" 
d="M73 55l265 590q11 25 23.5 34t36.5 9h36q20 0 32 -10t12 -27q0 -11 -6 -26l-265 -590q-11 -25 -23.5 -34t-36.5 -9h-36q-20 0 -32 10t-12 27q0 11 6 26z" />
    <glyph glyph-name="zero" unicode="0" horiz-adv-x="956" 
d="M470 156h16q56 0 87.5 1.5t59.5 9t39.5 17.5t20.5 33t10.5 49t1.5 72v6q0 47 -1.5 72.5t-10.5 48.5t-20.5 32.5t-39.5 17t-59.5 9t-87.5 1.5h-16q-56 0 -87.5 -1.5t-59.5 -9t-39.5 -17t-20.5 -32.5t-10.5 -48.5t-1.5 -72.5v-6q0 -46 1.5 -72t10.5 -49t20.5 -33
t39.5 -17.5t59.5 -9t87.5 -1.5zM491 -5h-26q-95 0 -154 4t-108.5 18t-74 35t-42 62t-22 90.5t-4.5 128.5v14q0 79 4.5 128.5t22 90.5t42 62t74 35t108.5 18t154 4h26q95 0 154 -4t108.5 -18t74 -35t42 -62t22 -90.5t4.5 -128.5v-14q0 -79 -4.5 -128.5t-22 -90.5t-42 -62
t-74 -35t-108.5 -18t-154 -4z" />
    <glyph glyph-name="one" unicode="1" horiz-adv-x="679" 
d="M497 610v-550q0 -60 -53 -60h-85q-54 0 -54 62v430q0 19 -8.5 26.5t-30.5 7.5h-104q-60 0 -60 53v48q0 53 60 53h253q38 0 60 -19t22 -51z" />
    <glyph glyph-name="two" unicode="2" horiz-adv-x="920" 
d="M299 147h505q60 0 60 -53v-41q0 -53 -60 -53h-652q-40 0 -62 18.5t-22 52.5v68q0 57 4 94t17.5 69.5t35.5 50.5t61 31.5t91.5 18t129.5 4.5h119q59 0 89.5 8.5t37 20t6.5 32.5v6q0 22 -9 33.5t-51 19.5t-126 8h-324q-40 0 -58 10.5t-18 47.5v10q0 19 4 31t18.5 22
t35.5 15t61.5 8.5t90 4.5t127.5 1h44q168 0 251 -16t115.5 -53.5t32.5 -113.5v-28q0 -87 -25 -131t-91.5 -64t-197.5 -20h-125q-53 0 -85.5 -4.5t-46.5 -14.5t-17.5 -19.5t-3.5 -26.5v-14q0 -33 38 -33z" />
    <glyph glyph-name="three" unicode="3" horiz-adv-x="924" 
d="M445 -5h-77q-210 0 -253.5 12t-43.5 69v16q0 31 17.5 44t53.5 13h297q54 0 86.5 0.5t60.5 3t41.5 6t23 10.5t12 15t2.5 22v9q0 39 -22.5 48.5t-93.5 9.5h-284q-60 0 -60 53v34q0 53 60 53h285q58 0 78.5 11.5t20.5 45.5v10q0 24 -16 35t-59 15.5t-135 4.5h-285
q-40 0 -58 10.5t-18 47.5v10q0 19 4 31t18.5 22t35.5 15t61.5 8.5t90 4.5t127.5 1h30q89 0 147.5 -2.5t106.5 -9.5t74.5 -18.5t44 -31.5t23.5 -45t6 -63v-22q0 -54 -13 -82t-47 -49q-17 -10 -17 -20q0 -11 15 -18q44 -18 60.5 -48.5t16.5 -87.5v-14q0 -49 -11 -79t-35 -51
t-76 -31t-118 -14t-177 -4z" />
    <glyph glyph-name="four" unicode="4" horiz-adv-x="930" 
d="M584 312v189q0 15 -13 15q-8 0 -20 -8l-302 -193q-13 -9 -13 -19q0 -14 16 -14h297q20 0 27.5 7t7.5 23zM93 391l395 257q49 32 104 32h96q41 0 64.5 -20t23.5 -56v-289q0 -33 37 -33h16q60 0 60 -53v-40q0 -53 -60 -53h-15q-21 0 -29.5 -7.5t-8.5 -24.5v-44
q0 -60 -53 -60h-85q-54 0 -54 62v43q0 19 -7.5 25t-27.5 6h-420q-40 0 -62 18.5t-22 52.5v101q0 52 48 83z" />
    <glyph glyph-name="five" unicode="5" horiz-adv-x="913" 
d="M94 352v257q0 34 22 52.5t62 18.5h591q60 0 60 -53v-42q0 -53 -60 -53h-461q-33 0 -33 -28v-44q0 -28 33 -28h212q108 0 170 -7.5t102 -31t53 -61.5t13 -103v-15q0 -48 -5 -79t-21 -57.5t-41.5 -40.5t-71 -24.5t-105 -14t-148.5 -3.5h-95q-210 0 -253.5 12t-43.5 69v16
q0 31 17.5 44t53.5 13h335q86 0 126 6.5t50 18t10 37.5v12q0 26 -10.5 37.5t-53.5 18t-137 6.5h-291q-80 0 -80 67z" />
    <glyph glyph-name="six" unicode="6" horiz-adv-x="921" 
d="M455 142h15q96 0 136 6t51.5 20t11.5 50v8q0 22 -3.5 33t-12 20t-33.5 12t-57 4.5t-93 1.5h-63q-69 0 -100.5 -5.5t-40 -16.5t-8.5 -36v-21q0 -23 3 -34t12 -21t32 -13.5t56.5 -5.5t93.5 -2zM321 433h156q70 0 112.5 -1t87 -4.5t68.5 -9t48 -17t34.5 -26t19.5 -38.5
t11.5 -51t2.5 -67v-12q0 -50 -5 -81.5t-22 -57t-41 -38.5t-71 -21.5t-102 -11t-144 -2.5h-27q-69 0 -112 1.5t-87 7t-68 14t-48 26t-34.5 39.5t-19.5 57.5t-11.5 77t-2.5 101.5v26q0 60 3 103.5t12.5 80t22 60t37 42t51.5 28.5t72 16t92 8t117 2h34q78 0 127.5 -1t90 -4.5
t61.5 -8.5t35.5 -15t18.5 -22t4 -31v-10q0 -37 -18 -47.5t-58 -10.5h-359q-88 0 -117.5 -18.5t-29.5 -51.5q0 -19 13 -25.5t46 -6.5z" />
    <glyph glyph-name="seven" unicode="7" horiz-adv-x="860" 
d="M222 98l333 377q13 15 13 24q0 15 -18 15h-450q-62 0 -62 55v56q0 55 62 55h632q41 0 63 -19t22 -51v-47q0 -43 -30 -79l-388 -454q-26 -30 -67 -30h-83q-25 0 -39 12t-14 32q0 25 26 54z" />
    <glyph glyph-name="eight" unicode="8" horiz-adv-x="920" 
d="M452 416h14q96 0 134.5 5t49.5 16t11 40v5q0 29 -11 40t-49.5 16t-134.5 5h-14q-96 0 -134.5 -5t-49.5 -16t-11 -40v-5q0 -29 11 -40t49.5 -16t134.5 -5zM453 139h14q137 0 168 9t31 52v15q0 43 -31 52t-168 9h-14q-137 0 -168 -9t-31 -52v-15q0 -43 31 -52t168 -9z
M62 167v8q0 61 17 95.5t55 51.5q15 7 15 18q0 10 -17 20q-34 22 -50 51.5t-16 79.5v21q0 42 5 68.5t22.5 47t40 31t70.5 17t100.5 8t141.5 1.5h26q89 0 141.5 -1.5t100.5 -8t70.5 -17t40 -31t22.5 -47t5 -68.5v-21q0 -49 -16 -78.5t-50 -51.5q-17 -10 -17 -20q0 -11 15 -18
q74 -31 74 -147v-9q0 -41 -5 -68t-23.5 -47t-41.5 -30.5t-72 -17t-101 -8t-142 -1.5h-26q-90 0 -142 1.5t-101 8t-72 17t-41.5 30.5t-23.5 47t-5 68z" />
    <glyph glyph-name="nine" unicode="9" horiz-adv-x="923" 
d="M604 247h-156q-70 0 -112.5 1t-87 4.5t-68.5 9t-48 17t-34.5 26t-19.5 38.5t-11.5 51t-2.5 67v12q0 50 5 81.5t22 57t41 38.5t71 21.5t102 11t144 2.5h27q69 0 112 -1.5t87 -7t68 -14t48 -26t34.5 -39.5t19.5 -57.5t11.5 -77t2.5 -101.5v-26q0 -60 -3 -103.5t-12.5 -80
t-22 -60t-37 -42t-51.5 -28.5t-72 -16t-92 -8t-117 -2h-43q-78 0 -127.5 1t-90 4.5t-61.5 8.5t-35.5 15t-18.5 22t-4 31v11q0 37 18 47.5t58 10.5h368q88 0 117.5 18.5t29.5 50.5q0 19 -13 25.5t-46 6.5zM470 540h-15q-96 0 -136 -6t-51.5 -20t-11.5 -50v-8q0 -22 3.5 -33
t12 -20t33.5 -12t57 -4.5t93 -1.5h63q69 0 100.5 5.5t40 16.5t8.5 36v21q0 23 -3 34t-12 21t-32 13.5t-56.5 5.5t-93.5 2z" />
    <glyph glyph-name="colon" unicode=":" horiz-adv-x="342" 
d="M275 418v-70q0 -60 -53 -60h-101q-54 0 -54 62v70q0 60 53 60h101q54 0 54 -62zM275 130v-70q0 -60 -53 -60h-101q-54 0 -54 62v70q0 60 53 60h101q54 0 54 -62z" />
    <glyph glyph-name="semicolon" unicode=";" horiz-adv-x="342" 
d="M275 418v-70q0 -60 -53 -60h-101q-54 0 -54 62v70q0 60 53 60h101q54 0 54 -62zM265 104l-68 -224q-8 -25 -22.5 -34t-39.5 -9h-15q-20 0 -31 11t-11 27v257q0 60 57 60h85q23 0 37 -14t14 -39q0 -15 -6 -35z" />
    <glyph glyph-name="less" unicode="&#x3c;" horiz-adv-x="682" 
d="M559 61l-454 168q-25 9 -34 22t-9 38v19q0 25 9 38t34 22l454 168q15 6 26 6q17 0 27 -12t10 -32v-29q0 -25 -9.5 -38.5t-33.5 -21.5l-303 -98q-10 -3 -10 -12t10 -12l303 -98q24 -8 33.5 -21.5t9.5 -38.5v-30q0 -20 -10 -32t-27 -12q-11 0 -26 6z" />
    <glyph glyph-name="equal" unicode="=" horiz-adv-x="682" 
d="M562 327h-442q-60 0 -60 53v24q0 53 60 53h442q60 0 60 -53v-24q0 -53 -60 -53zM562 108h-442q-60 0 -60 53v24q0 53 60 53h442q60 0 60 -53v-24q0 -53 -60 -53z" />
    <glyph glyph-name="greater" unicode="&#x3e;" horiz-adv-x="682" 
d="M577 229l-454 -168q-15 -6 -26 -6q-17 0 -27 12t-10 32v29q0 25 9.5 38.5t33.5 21.5l303 98q10 3 10 12t-10 12l-303 98q-24 8 -33.5 21.5t-9.5 38.5v30q0 20 10 32t27 12q11 0 26 -6l454 -168q25 -9 34 -22t9 -38v-19q0 -25 -9 -38t-34 -22z" />
    <glyph glyph-name="question" unicode="?" horiz-adv-x="789" 
d="M465 118v-58q0 -60 -53 -60h-101q-54 0 -54 62v58q0 60 53 60h101q54 0 54 -62zM422 541h-286q-40 0 -58 10.5t-18 47.5v8q0 33 24 49t89 22.5t203 6.5h41q193 0 260 -36.5t67 -147.5v-18q0 -102 -49.5 -146t-190.5 -65l-150 -22q-28 -5 -51 -5q-20 0 -32.5 12t-12.5 34
v32q0 30 12 46t44 20l136 19q76 10 98.5 24t22.5 46v11q0 29 -30.5 40.5t-118.5 11.5z" />
    <glyph glyph-name="at" unicode="@" horiz-adv-x="1046" 
d="M508 177h31q59 0 74.5 12t15.5 54v44q0 46 -18.5 61t-71.5 15h-31q-49 0 -66.5 -15.5t-17.5 -70.5v-14q0 -55 17.5 -70.5t66.5 -15.5zM775 304v-75q0 -40 9.5 -53t37.5 -13q34 0 44 17t10 75v39q0 49 -1 79t-7.5 60.5t-14.5 46t-28 30.5t-41 21t-61 11t-80.5 6t-106.5 1
h-28q-81 0 -130 -2.5t-90.5 -13.5t-61.5 -27t-34.5 -48.5t-18 -71t-3.5 -102.5v-50q0 -62 3 -98.5t17 -68t33.5 -46t61.5 -25t91 -13t132 -2.5h398q16 0 26.5 -8t10.5 -23v-6q0 -20 -12 -30t-53.5 -16t-125.5 -6h-244q-101 0 -164.5 4t-119 17.5t-84 35t-49 61t-27 91
t-6.5 129.5v60q0 77 7 128t27.5 90.5t50 62t83.5 36.5t118.5 18.5t163.5 4.5h27q80 0 134.5 -2t104.5 -8.5t80.5 -16t56.5 -28.5t39.5 -41t23 -58.5t12 -76.5t2.5 -99v-54q0 -108 -44 -146.5t-146 -38.5h-321q-44 0 -72 2t-52.5 10t-37.5 21t-23 36.5t-13 55t-3 78.5v11
q0 67 7.5 105t32 61t60.5 29.5t101 6.5h127q105 0 138 -32.5t33 -140.5z" />
    <glyph glyph-name="A" unicode="A" horiz-adv-x="996" 
d="M747 52l-24 46q-7 15 -15 19.5t-27 4.5h-370q-19 0 -27 -4.5t-15 -19.5l-24 -46q-16 -32 -29 -42t-42 -10h-88q-26 0 -40.5 12t-14.5 32t11 39l307 555q13 23 27.5 32.5t39.5 9.5h160q25 0 39 -9t28 -33l311 -555q11 -21 11 -39q0 -21 -15.5 -32.5t-39.5 -11.5h-95
q-27 0 -39.5 10.5t-28.5 41.5zM622 301l-108 217q-8 16 -18 16t-18 -16l-109 -217q-6 -12 -6 -20q0 -17 24 -17h217q24 0 24 17q0 8 -6 20z" />
    <glyph glyph-name="B" unicode="B" horiz-adv-x="960" 
d="M639 282h-333q-21 0 -29.5 -7t-8.5 -25v-71q0 -19 9 -26.5t29 -7.5h333q45 0 62.5 16.5t17.5 52.5q0 37 -17.5 52.5t-62.5 15.5zM306 412h328q33 0 49.5 14t16.5 49q0 36 -16 50.5t-50 14.5h-328q-21 0 -29.5 -7t-8.5 -25v-62q0 -19 9 -26.5t29 -7.5zM70 112v456
q0 58 37 85t96 27h420q155 0 213.5 -37t58.5 -133q0 -51 -13.5 -80.5t-43.5 -49.5q-17 -10 -17 -20q0 -11 15 -18q43 -18 62 -52t19 -94q0 -112 -56.5 -154t-186.5 -42h-471q-59 0 -96 27.5t-37 84.5z" />
    <glyph glyph-name="C" unicode="C" horiz-adv-x="973" 
d="M258 341v-10q0 -44 1.5 -68.5t12 -46.5t23 -31t44 -16t66 -8t97.5 -1h359q60 0 60 -53v-30q0 -35 -24 -51.5t-93.5 -23.5t-219.5 -7h-73q-105 0 -172.5 4.5t-122.5 19t-83.5 35t-48 61t-25 89t-5.5 124.5v16q0 78 6 128t25.5 90.5t49 62.5t84 36.5t121.5 19t171 4.5h73
q78 0 127.5 -1t90 -4.5t61.5 -8.5t35.5 -15t18.5 -22t4 -31v-26q0 -53 -60 -53h-359q-46 0 -75.5 -0.5t-58 -4.5t-44 -8.5t-29.5 -15.5t-20 -22t-10.5 -32.5t-5.5 -43t-1 -56.5z" />
    <glyph glyph-name="D" unicode="D" horiz-adv-x="1028" 
d="M312 158h211q65 0 101 1t68 9t45 17t23 32t11.5 48t1.5 71v12q0 34 -1 55t-6 41.5t-11 32t-20.5 22t-30.5 14.5t-45 8t-59 4.5t-77 0.5h-211q-40 0 -40 -34v-297q0 -37 40 -37zM540 0h-337q-59 0 -96 27.5t-37 84.5v456q0 58 37 85t96 27h337q76 0 127.5 -2t99.5 -8.5
t77 -16t54.5 -28.5t38.5 -41.5t22 -58.5t12 -76.5t3 -98.5v-20q0 -76 -5 -123t-22.5 -87.5t-44.5 -61t-79 -35t-117 -19t-166 -4.5z" />
    <glyph glyph-name="E" unicode="E" horiz-adv-x="857" 
d="M300 154h472q60 0 60 -53v-48q0 -53 -60 -53h-569q-59 0 -96 27.5t-37 84.5v456q0 58 37 85t96 27h557q60 0 60 -53v-44q0 -53 -60 -53h-460q-39 0 -39 -33v-49q0 -35 39 -35h433q60 0 60 -53v-36q0 -53 -60 -53h-433q-39 0 -39 -33v-49q0 -35 39 -35z" />
    <glyph glyph-name="F" unicode="F" horiz-adv-x="806" 
d="M70 53v515q0 58 37 85t96 27h516q60 0 60 -53v-48q0 -53 -60 -53h-410q-39 0 -39 -33v-73q0 -35 39 -35h387q60 0 60 -53v-42q0 -53 -60 -53h-387q-39 0 -39 -33v-151q0 -53 -53 -53h-94q-53 0 -53 53z" />
    <glyph glyph-name="G" unicode="G" horiz-adv-x="975" 
d="M921 310v-72q0 -43 -2 -69.5t-9.5 -55.5t-22.5 -45.5t-40 -32.5t-63 -23.5t-90.5 -12t-123.5 -4.5h-57q-78 0 -134.5 2.5t-105.5 10t-81 17.5t-58 29.5t-40 42.5t-24 59t-13 76t-3 96v16q0 78 6 128t25.5 90.5t49 62.5t84 36.5t121.5 19t171 4.5h50q78 0 127.5 -1
t90 -4.5t61.5 -8.5t35.5 -15t18.5 -22t4 -31v-23q0 -53 -60 -53h-339q-62 0 -97 -1.5t-66 -9t-44 -17t-23 -33.5t-11.5 -50t-1.5 -73v-22q0 -46 1.5 -71t11.5 -47.5t22.5 -31.5t44 -16.5t66 -8.5t97.5 -1h57q80 0 116.5 5t45.5 14t9 30v40q0 27 -32 27h-174q-61 0 -61 53v29
q0 53 61 53h297q56 0 79.5 -20.5t23.5 -65.5z" />
    <glyph glyph-name="H" unicode="H" horiz-adv-x="994" 
d="M272 618v-157q0 -20 9.5 -27.5t28.5 -7.5h373q21 0 30 8t9 26v160q0 60 53 60h95q54 0 54 -62v-558q0 -60 -53 -60h-95q-54 0 -54 62v172q0 21 -9.5 28t-29.5 7h-372q-22 0 -30.5 -7.5t-8.5 -26.5v-175q0 -60 -53 -60h-95q-54 0 -54 62v558q0 60 53 60h95q54 0 54 -62z
" />
    <glyph glyph-name="I" unicode="I" horiz-adv-x="343" 
d="M273 618v-558q0 -60 -53 -60h-96q-54 0 -54 62v558q0 60 53 60h96q54 0 54 -62z" />
    <glyph glyph-name="J" unicode="J" horiz-adv-x="785" 
d="M718 618v-320q0 -64 -6 -107.5t-22.5 -79t-43 -56.5t-70.5 -35.5t-101 -19.5t-139 -5h-45q-114 0 -169.5 7.5t-76.5 24t-21 50.5v25q0 54 61 54h195q85 0 129 4.5t69.5 23t31 43.5t5.5 78v315q0 60 53 60h96q54 0 54 -62z" />
    <glyph glyph-name="K" unicode="K" horiz-adv-x="951" 
d="M272 229v-169q0 -60 -53 -60h-95q-54 0 -54 62v558q0 60 53 60h95q54 0 54 -62v-157q0 -20 9.5 -27.5t28.5 -7.5h45q23 0 53 24l245 197q24 19 39 26t37 7h90q24 0 39.5 -12t15.5 -32q0 -27 -24 -45l-273 -217q-15 -12 -15 -24q0 -13 15 -24l302 -235q24 -18 24 -46
q0 -21 -15.5 -33t-39.5 -12h-107q-22 0 -37 7t-39 26l-259 204q-34 27 -58 27h-38q-19 0 -28.5 -7.5t-9.5 -27.5z" />
    <glyph glyph-name="L" unicode="L" horiz-adv-x="748" 
d="M273 618v-421q0 -39 40 -39h361q60 0 60 -53v-52q0 -53 -60 -53h-471q-59 0 -96 27.5t-37 84.5v508q0 60 53 60h96q54 0 54 -62z" />
    <glyph glyph-name="M" unicode="M" horiz-adv-x="1242" 
d="M646 247l182 375q15 31 35.5 44.5t58.5 13.5h157q93 0 93 -85v-535q0 -60 -53 -60h-90q-55 0 -55 61v397q0 24 -18 24q-15 0 -28 -25l-205 -402q-15 -29 -29.5 -42t-38.5 -13h-77q-24 0 -36.5 12.5t-27.5 42.5l-200 402q-13 25 -28 25q-18 0 -18 -24v-397q0 -61 -53 -61
h-91q-54 0 -54 62v533q0 85 93 85h160q38 0 58.5 -13.5t35.5 -44.5l185 -374q11 -21 23 -21q11 0 21 20z" />
    <glyph glyph-name="N" unicode="N" horiz-adv-x="1042" 
d="M972 618v-533q0 -85 -93 -85h-158q-36 0 -54.5 10t-39.5 37l-311 412q-19 25 -30 25q-18 0 -18 -24v-400q0 -60 -53 -60h-91q-54 0 -54 62v533q0 85 93 85h162q36 0 54.5 -10t39.5 -37l307 -412q19 -25 30 -25q18 0 18 24v400q0 60 53 60h91q54 0 54 -62z" />
    <glyph glyph-name="O" unicode="O" horiz-adv-x="1029" 
d="M530 -5h-31q-105 0 -169 3.5t-118.5 17.5t-81.5 34.5t-46.5 61.5t-24.5 91t-5 130v14q0 80 5 130t24.5 91t46.5 61.5t81.5 34.5t118.5 17.5t169 3.5h31q105 0 169 -3.5t118.5 -17.5t81.5 -34.5t46.5 -61.5t24.5 -91t5 -130v-14q0 -80 -5 -130t-24.5 -91t-46.5 -61.5
t-81.5 -34.5t-118.5 -17.5t-169 -3.5zM506 152h17q65 0 101 1.5t67.5 9.5t44.5 17.5t22.5 34t11 49.5t1.5 74v5q0 49 -1.5 75t-11 50.5t-22.5 34t-44.5 17.5t-67.5 9.5t-101 1.5h-17q-65 0 -101 -1.5t-67.5 -9.5t-44.5 -17.5t-22.5 -34t-11 -50.5t-1.5 -75v-5q0 -49 1.5 -74
t11 -49.5t22.5 -34t44.5 -17.5t67.5 -9.5t101 -1.5z" />
    <glyph glyph-name="P" unicode="P" horiz-adv-x="902" 
d="M504 530h-195q-39 0 -39 -33v-134q0 -35 39 -35h195q78 0 110.5 7.5t43 25.5t10.5 63v9q0 34 -4 51t-22 28.5t-48.5 14.5t-89.5 3zM203 680h335q84 0 137 -6t93 -20.5t60 -43.5t29 -69.5t9 -103.5v-18q0 -63 -9 -103.5t-29 -69.5t-60 -43.5t-93 -20.5t-137 -6h-229
q-39 0 -39 -33v-83q0 -60 -53 -60h-93q-54 0 -54 62v506q0 58 37 85t96 27z" />
    <glyph glyph-name="Q" unicode="Q" horiz-adv-x="1050" 
d="M530 -5h-31q-105 0 -169 3.5t-118.5 17.5t-81.5 34.5t-46.5 61.5t-24.5 90.5t-5 129.5v16q0 80 5 130t24.5 90.5t46.5 61t81.5 34.5t118.5 17.5t169 3.5h31q105 0 169 -3.5t118.5 -17.5t81.5 -34.5t46.5 -61t24.5 -90.5t5 -130v-16q0 -52 -2.5 -88t-5 -50.5t-2.5 -15.5
q0 -6 8 -11l39 -22q33 -19 33 -41q0 -15 -12 -33l-28 -43q-18 -25 -38 -25q-17 0 -34 12l-32 22q-7 6 -12 6q-4 0 -13 -5q-47 -26 -126.5 -34.5t-219.5 -8.5zM775 299q1 4 1 38v7q0 47 -2 73.5t-12 51t-24 34.5t-45.5 18.5t-68.5 10t-101 1.5h-17q-63 0 -100 -1.5t-68 -10
t-45 -19t-23.5 -34.5t-11.5 -50.5t-2 -73.5v-7q0 -47 1.5 -73t11.5 -50t23.5 -34t44.5 -18.5t68 -10t101 -1.5h17q134 0 169 8q8 2 8 8t-9 11l-133 74q-33 19 -33 41q0 15 12 33l28 41q18 25 38 25q15 0 34 -13l117 -78q9 -6 14 -6t7 5z" />
    <glyph glyph-name="R" unicode="R" horiz-adv-x="944" 
d="M309 337h212q97 0 127 15t30 64v37q0 33 -11 48t-45 22t-106 7h-207q-39 0 -39 -33v-125q0 -35 39 -35zM270 156v-96q0 -60 -53 -60h-94q-53 0 -53 60v508q0 58 37 85t96 27h390q158 0 223 -40t65 -157v-36q0 -56 -24 -88t-69 -54q-17 -9 -17 -18q0 -12 15 -16
q51 -16 73.5 -56t22.5 -125v-30q0 -60 -53 -60h-94q-53 0 -53 60v11q0 32 -1 48t-10.5 31.5t-21.5 21.5t-43 11t-64.5 5.5t-96.5 0.5h-136q-39 0 -39 -33z" />
    <glyph glyph-name="S" unicode="S" horiz-adv-x="955" 
d="M532 -5h-182q-210 0 -253.5 12t-43.5 69v16q0 31 17.5 44t53.5 13h478q59 0 82.5 12t23.5 44v10q0 28 -24 39t-81 11h-311q-125 0 -178 41.5t-53 145.5v24q0 52 7.5 87.5t33 59t48.5 36t80.5 18.5t101 7t136.5 1h89q78 0 127.5 -1t90 -4.5t61.5 -8.5t35.5 -15t18.5 -22
t4 -31v-10q0 -37 -18 -47.5t-58 -10.5h-465q-56 0 -75 -12t-19 -36v-10q0 -30 18.5 -42t75.5 -12h290q70 0 114 -6.5t80.5 -25.5t53 -56.5t16.5 -97.5v-21q0 -136 -77 -178.5t-298 -42.5z" />
    <glyph glyph-name="T" unicode="T" horiz-adv-x="828" 
d="M313 62v430q0 19 -8.5 26.5t-30.5 7.5h-196q-60 0 -60 53v48q0 53 60 53h672q60 0 60 -53v-48q0 -53 -60 -53h-196q-22 0 -30.5 -7.5t-8.5 -26.5v-432q0 -60 -53 -60h-95q-54 0 -54 62z" />
    <glyph glyph-name="U" unicode="U" horiz-adv-x="979" 
d="M708 292v328q0 60 53 60h97q53 0 53 -60v-390q0 -53 -8.5 -90t-31 -63.5t-51.5 -42t-79.5 -24.5t-104.5 -12t-137 -3h-20q-84 0 -137 3t-104 11.5t-79.5 24t-51 41.5t-31 64t-8.5 91v390q0 60 53 60h97q53 0 53 -60v-328q0 -33 3 -55t13 -38t22.5 -24.5t39 -13.5t53.5 -6
t74 -1h31q47 0 73.5 1.5t52.5 6.5t37.5 13t22 24t13 38t2.5 55z" />
    <glyph glyph-name="V" unicode="V" horiz-adv-x="998" 
d="M251 628l226 -422q11 -21 23 -21q11 0 21 20l230 423q18 32 30.5 42t40.5 10h91q26 0 40.5 -12t14.5 -32t-11 -39l-313 -555q-14 -24 -28 -33t-41 -9h-155q-27 0 -41 9t-28 33l-310 555q-11 21 -11 39q0 21 15.5 32.5t39.5 11.5h98q27 0 39 -10t29 -42z" />
    <glyph glyph-name="W" unicode="W" horiz-adv-x="1270" 
d="M619 413l-131 -368q-9 -26 -24 -35.5t-44 -9.5h-135q-29 0 -44.5 10t-23.5 35l-178 552q-9 27 -9 39q0 21 15.5 32.5t39.5 11.5h82q29 0 43 -10.5t23 -41.5l115 -413q4 -18 15 -18q9 0 15 18l141 413q10 30 25.5 41t46.5 11h92q29 0 44 -11t25 -41l142 -413q6 -18 15 -18
q11 0 15 18l115 413q9 31 23.5 41.5t45.5 10.5h77q26 0 40.5 -12t14.5 -32q0 -14 -9 -39l-179 -552q-8 -25 -23.5 -35t-44.5 -10h-135q-29 0 -44 9.5t-24 35.5l-132 368q-6 18 -15 18t-15 -18z" />
    <glyph glyph-name="X" unicode="X" horiz-adv-x="990" 
d="M706 30l-190 190q-13 13 -23 13q-9 0 -22 -13l-188 -190q-30 -30 -67 -30h-102q-25 0 -39.5 12t-14.5 32q0 27 27 52l235 225q12 12 12 22q0 7 -12 21l-217 220q-27 27 -27 51q0 21 14.5 33t40.5 12h96q37 0 67 -30l178 -185q13 -13 23 -13t23 13l174 185q27 30 67 30h96
q25 0 39.5 -12t14.5 -33q0 -25 -26 -51l-217 -218q-12 -12 -12 -22q0 -9 12 -21l235 -227q27 -25 27 -52q0 -20 -15 -32t-40 -12h-102q-37 0 -67 30z" />
    <glyph glyph-name="Y" unicode="Y" horiz-adv-x="950" 
d="M577 213v-153q0 -60 -53 -60h-96q-54 0 -54 62v150q0 23 -14 40l-293 332q-27 29 -27 51q0 21 14.5 33t40.5 12h91q40 0 67 -30l203 -231q14 -15 23 -15t23 15l197 231q25 30 67 30h90q25 0 39.5 -12t14.5 -33q0 -23 -26 -51l-294 -332q-13 -14 -13 -39z" />
    <glyph glyph-name="Z" unicode="Z" horiz-adv-x="899" 
d="M91 191l437 308q14 10 14 22q0 15 -18 15h-408q-60 0 -60 53v38q0 53 60 53h641q40 0 62.5 -19t22.5 -52v-36q0 -48 -48 -82l-435 -307q-14 -10 -14 -22q0 -15 18 -15h432q60 0 60 -53v-41q0 -53 -60 -53h-668q-40 0 -62 18.5t-22 52.5v37q0 49 48 83z" />
    <glyph glyph-name="bracketleft" unicode="[" horiz-adv-x="467" 
d="M253 516v-352q0 -41 41 -41h30q55 0 55 -48v-21q0 -59 -102 -59h-81q-124 0 -124 101v488q0 47 31 74t93 27h81q102 0 102 -58v-22q0 -48 -55 -48h-30q-21 0 -31 -9.5t-10 -31.5z" />
    <glyph glyph-name="backslash" unicode="\" horiz-adv-x="545" 
d="M338 35l-265 590q-6 14 -6 26q0 17 12 27t32 10h36q25 0 37 -8.5t23 -34.5l265 -590q6 -14 6 -26q0 -17 -12 -27t-32 -10h-36q-25 0 -37 8.5t-23 34.5z" />
    <glyph glyph-name="bracketright" unicode="]" horiz-adv-x="467" 
d="M214 164v352q0 41 -41 41h-30q-55 0 -55 48v21q0 59 102 59h81q124 0 124 -101v-488q0 -47 -31 -74t-93 -27h-81q-102 0 -102 58v22q0 48 55 48h30q21 0 31 9.5t10 31.5z" />
    <glyph glyph-name="asciicircum" unicode="^" horiz-adv-x="793" 
d="M361 680h69q22 0 34 -6.5t27 -25.5l223 -274q13 -16 13 -33q0 -18 -12.5 -28.5t-31.5 -10.5h-59q-27 0 -41 7.5t-31 28.5l-142 179q-9 12 -14 12t-14 -12l-144 -179q-17 -21 -31 -28.5t-41 -7.5h-57q-19 0 -31.5 10.5t-12.5 28.5q0 17 13 33l222 274q15 18 27.5 25
t33.5 7z" />
    <glyph glyph-name="underscore" unicode="_" horiz-adv-x="550" 
d="M550 -75v-93h-550v93h550z" />
    <glyph glyph-name="grave" unicode="`" 
d="M270 538l-162 64q-28 10 -28 33q0 12 12 30l15 22q15 23 35 23q14 0 37 -16l137 -91q20 -14 20 -28q0 -11 -9 -24q-13 -20 -30 -20q-8 0 -27 7z" />
    <glyph glyph-name="a" unicode="a" horiz-adv-x="737" 
d="M550 -3h-261q-148 0 -194 29t-46 117v22q0 82 47.5 109t189.5 27h159q28 0 38.5 4t10.5 17q0 25 -21 31.5t-94 6.5h-243q-60 0 -60 50v9q0 22 10.5 34.5t46.5 19.5t85 8.5t146 1.5h29q96 0 149 -8t85.5 -35.5t42 -69t9.5 -117.5v-153q0 -103 -129 -103zM358 108h15
q82 0 103.5 9t21.5 38v6q0 28 -20.5 35.5t-104.5 7.5h-15q-86 0 -106.5 -7t-20.5 -36v-6q0 -30 21.5 -38.5t105.5 -8.5z" />
    <glyph glyph-name="b" unicode="b" horiz-adv-x="781" 
d="M382 125h33q87 0 110.5 19t23.5 88v19q0 69 -24 88t-110 19h-33q-87 0 -110.5 -19t-23.5 -88v-19q0 -69 24 -88t110 -19zM65 168v452q0 60 53 60h79q54 0 54 -62v-92q0 -28 15 -35.5t72 -7.5h119q71 0 114.5 -5t78.5 -18.5t52 -40.5t25 -66.5t8 -101.5v-19
q0 -78 -10.5 -122t-44.5 -70.5t-84 -34.5t-141 -8h-173q-217 0 -217 171z" />
    <glyph glyph-name="c" unicode="c" horiz-adv-x="729" 
d="M232 247v-11q0 -55 31.5 -75.5t115.5 -20.5h239q60 0 60 -50v-25q0 -23 -8 -35t-38 -20.5t-79 -10.5t-142 -2h-41q-65 0 -109 3t-83 12.5t-62 25.5t-40 42.5t-23.5 64t-6.5 89.5v10q0 77 16.5 124t58.5 72.5t98 34t151 8.5h41q64 0 102.5 -0.5t71.5 -3.5t48.5 -7
t27 -11.5t14.5 -17t3 -25.5v-24q0 -50 -60 -50h-239q-84 0 -115.5 -21t-31.5 -76z" />
    <glyph glyph-name="d" unicode="d" horiz-adv-x="781" 
d="M366 125h33q87 0 110.5 19t23.5 88v19q0 69 -23.5 88t-110.5 19h-33q-87 0 -110.5 -19t-23.5 -88v-19q0 -69 23.5 -88t110.5 -19zM716 618v-450q0 -171 -217 -171h-173q-91 0 -141 8t-84 34.5t-44.5 70.5t-10.5 122v19q0 77 11.5 121.5t46 70t83.5 33t137 7.5h119
q57 0 72 7.5t15 35.5v94q0 60 53 60h79q54 0 54 -62z" />
    <glyph glyph-name="e" unicode="e" horiz-adv-x="720" 
d="M266 298h198q24 0 31 7t7 22q0 24 -29.5 33.5t-114.5 9.5q-76 0 -103.5 -10.5t-27.5 -38.5q0 -13 7.5 -18t31.5 -5zM401 -3h-41q-65 0 -108.5 3t-81 12.5t-59.5 25t-37.5 42.5t-21.5 63.5t-6 89.5v9q0 76 15.5 123.5t53.5 73.5t88.5 35t133.5 9h34q55 0 87.5 -1t70 -5
t57.5 -12t40.5 -21.5t30 -34t15.5 -49t6 -67.5q0 -50 -23.5 -72.5t-71.5 -22.5h-308q-27 0 -38 -6t-11 -22q0 -18 8.5 -25.5t38 -11.5t96.5 -4h239q60 0 60 -50v-18q0 -23 -7.5 -34.5t-39 -19t-78 -9t-142.5 -1.5z" />
    <glyph glyph-name="f" unicode="f" horiz-adv-x="452" 
d="M327 685h13q63 0 87.5 -12t24.5 -41v-21q0 -48 -57 -48h-58q-46 0 -46 -42v-13q0 -28 36 -28h56q60 0 60 -53v-20q0 -54 -62 -54h-51q-35 0 -35 -30v-263q0 -60 -53 -60h-77q-54 0 -54 62v261q0 30 -29 30h-10q-56 0 -56 53v20q0 54 57 54h9q29 0 29 33v10
q0 87 52.5 124.5t163.5 37.5z" />
    <glyph glyph-name="g" unicode="g" horiz-adv-x="767" 
d="M522 250v19q0 56 -26 72.5t-111 16.5h-29q-77 0 -102 -18t-25 -71v-14q0 -56 22 -72.5t95 -16.5h49q81 0 104 15.5t23 68.5zM702 321v-278q0 -130 -68 -173.5t-256 -43.5h-42q-62 0 -102.5 1t-72.5 4t-49.5 7t-29 12.5t-15 18.5t-3.5 25v17q0 50 60 50h270
q78 0 103.5 11.5t25.5 38.5t-39 27h-178q-160 0 -210 40.5t-50 176.5v14q0 128 55 171t213 43h200q101 0 144.5 -39t43.5 -123z" />
    <glyph glyph-name="h" unicode="h" horiz-adv-x="778" 
d="M338 483h67q71 0 115.5 -2.5t82.5 -12t57.5 -24t33.5 -41.5t18 -61t4 -87v-195q0 -60 -53 -60h-80q-53 0 -53 60v154q0 91 -25 114.5t-117 23.5h-77q-60 0 -60 -53v-239q0 -60 -53 -60h-79q-54 0 -54 62v558q0 60 53 60h79q54 0 54 -62v-92q0 -28 15 -35.5t72 -7.5z" />
    <glyph glyph-name="i" unicode="i" horiz-adv-x="316" 
d="M251 418v-358q0 -60 -53 -60h-79q-54 0 -54 62v358q0 60 53 60h79q54 0 54 -62zM251 618v-19q0 -60 -53 -60h-79q-54 0 -54 62v19q0 60 53 60h79q54 0 54 -62z" />
    <glyph glyph-name="j" unicode="j" horiz-adv-x="323" 
d="M72 -14v441q0 53 53 53h80q53 0 53 -53v-435q0 -88 -39.5 -125t-123.5 -37q-91 0 -91 58v22q0 35 37 40q18 2 24.5 10t6.5 26zM258 618v-19q0 -60 -53 -60h-79q-54 0 -54 62v19q0 60 53 60h79q54 0 54 -62z" />
    <glyph glyph-name="k" unicode="k" horiz-adv-x="719" 
d="M251 163v-103q0 -60 -53 -60h-79q-54 0 -54 62v558q0 60 53 60h79q54 0 54 -62v-268q0 -30 30 -30h11q17 0 37 17l147 118q32 25 62 25h87q22 0 37 -11t15 -29q0 -24 -21 -40l-172 -123q-11 -8 -11 -17q0 -7 11 -17l194 -163q21 -19 21 -40q0 -18 -15 -29t-37 -11h-90
q-35 0 -62 25l-166 149q-21 19 -41 19h-7q-30 0 -30 -30z" />
    <glyph glyph-name="l" unicode="l" horiz-adv-x="316" 
d="M251 618v-558q0 -60 -53 -60h-79q-54 0 -54 62v558q0 60 53 60h79q54 0 54 -62z" />
    <glyph glyph-name="m" unicode="m" horiz-adv-x="1151" 
d="M194 483h584q71 0 115.5 -2.5t82.5 -12t57.5 -24t33.5 -41.5t18 -61t4 -87v-195q0 -60 -53 -60h-80q-53 0 -53 60v154q0 91 -24.5 114.5t-116.5 23.5h-32q-60 0 -60 -53v-239q0 -60 -53 -60h-80q-53 0 -53 60v239q0 53 -60 53h-113q-60 0 -60 -53v-239q0 -60 -53 -60h-80
q-53 0 -53 60v320q0 103 129 103z" />
    <glyph glyph-name="n" unicode="n" horiz-adv-x="778" 
d="M251 299v-239q0 -60 -53 -60h-80q-53 0 -53 60v320q0 103 129 103h211q71 0 115.5 -2.5t82.5 -12t57.5 -24t33.5 -41.5t18 -61t4 -87v-195q0 -60 -53 -60h-80q-53 0 -53 60v154q0 91 -25 114.5t-117 23.5h-77q-60 0 -60 -53z" />
    <glyph glyph-name="o" unicode="o" horiz-adv-x="751" 
d="M359 132h33q87 0 109 18.5t22 88.5v5q0 70 -22 88.5t-109 18.5h-33q-87 0 -109 -18.5t-22 -88.5v-5q0 -70 22 -88.5t109 -18.5zM398 -3h-45q-66 0 -109 3t-79.5 13t-57.5 26t-35.5 44t-20 65t-5.5 91v5q0 65 9.5 106t28 68.5t57 41t86 18.5t126.5 5h45q79 0 127 -5
t86.5 -18.5t57 -41t27.5 -68.5t9 -106v-5q0 -54 -5.5 -91t-20 -65t-35.5 -44t-57.5 -26t-79.5 -13t-109 -3z" />
    <glyph glyph-name="p" unicode="p" horiz-adv-x="781" 
d="M232 483h225q71 0 114.5 -5t78.5 -18.5t52 -40.5t25 -66.5t8 -101.5v-19q0 -78 -10.5 -122t-44.5 -70.5t-84 -34.5t-141 -8h-117q-57 0 -72 -7.5t-15 -35.5v-62q0 -62 -54 -62h-79q-53 0 -53 60v452q0 141 167 141zM248 288v-61q0 -66 21.5 -84t102.5 -18h43
q87 0 110.5 19t23.5 88v19q0 69 -24 88t-110 19h-86q-81 0 -81 -70z" />
    <glyph glyph-name="q" unicode="q" horiz-adv-x="781" 
d="M324 483h214q178 0 178 -152v-441q0 -60 -53 -60h-79q-54 0 -54 62v62q0 28 -15 35.5t-72 7.5h-117q-91 0 -141 8t-84 34.5t-44.5 70.5t-10.5 122v19q0 62 8 101.5t25 66.5t52 40.5t78.5 18.5t114.5 5zM533 227v57q0 74 -83 74h-84q-86 0 -110 -19t-24 -88v-19
q0 -69 23.5 -88t110.5 -19h43q81 0 102.5 18t21.5 84z" />
    <glyph glyph-name="r" unicode="r" horiz-adv-x="627" 
d="M351 355h-39q-61 0 -61 -53v-242q0 -60 -53 -60h-80q-53 0 -53 60v320q0 48 27 75.5t98 27.5h217q100 0 148.5 -30t48.5 -113v-14q0 -57 -53 -57h-61q-51 0 -55 43q-2 27 -18.5 35t-65.5 8z" />
    <glyph glyph-name="s" unicode="s" horiz-adv-x="726" 
d="M376 -3h-85q-115 0 -165.5 6t-64 18.5t-13.5 41.5v16q0 43 58 43h275q82 0 102 4.5t20 22.5v5q0 10 -9.5 15t-41 8t-95.5 3q-129 0 -191 11.5t-84.5 38t-22.5 80.5v15q0 43 9.5 70t28 45.5t58 27t87 12t127.5 3.5h24q90 0 140.5 -2.5t82 -9.5t41 -18t9.5 -31v-16
q0 -27 -15.5 -36.5t-46.5 -9.5h-285q-49 0 -64.5 -5t-15.5 -20v-7q0 -10 10 -15t41 -8t89 -3q185 0 244 -24.5t59 -112.5v-8q0 -95 -64 -127.5t-242 -32.5z" />
    <glyph glyph-name="t" unicode="t" horiz-adv-x="617" 
d="M131 169v149q0 21 -9.5 28t-29.5 7h-16q-60 0 -60 53v20q0 54 62 54h13q22 0 31 8t9 26v30q0 61 53 61h73q54 0 54 -63v-27q0 -20 9.5 -27.5t28.5 -7.5h180q60 0 60 -53v-20q0 -54 -62 -54h-177q-22 0 -30.5 -7.5t-8.5 -26.5v-93q0 -62 15 -77.5t70 -15.5h126
q31 0 45.5 -8.5t14.5 -34.5v-29q0 -43 -38.5 -53.5t-180.5 -10.5h-23q-89 0 -135 20t-60 54t-14 98z" />
    <glyph glyph-name="u" unicode="u" horiz-adv-x="773" 
d="M522 182v238q0 60 53 60h80q53 0 53 -60v-320q0 -103 -129 -103h-211q-71 0 -115.5 2.5t-82.5 12t-57.5 24t-33.5 41.5t-18 61t-4 87v195q0 60 53 60h80q53 0 53 -60v-153q0 -91 25 -114.5t117 -23.5h77q60 0 60 53z" />
    <glyph glyph-name="v" unicode="v" horiz-adv-x="709" 
d="M680 411l-187 -372q-12 -23 -24.5 -31t-37.5 -8h-153q-25 0 -37.5 8.5t-24.5 30.5l-189 372q-7 14 -7 29q0 19 15.5 29.5t38.5 10.5h85q23 0 35 -10t24 -37l116 -262q10 -21 22 -21t21 21l116 262q12 27 25 37t40 10h75q23 0 38.5 -10.5t15.5 -29.5q0 -15 -7 -29z" />
    <glyph glyph-name="w" unicode="w" horiz-adv-x="1049" 
d="M1027 440q0 -13 -6 -29l-145 -372q-9 -23 -22.5 -31t-39.5 -8h-153q-26 0 -40.5 9.5t-21.5 32.5l-59 190q-6 20 -18 20q-10 0 -17 -20l-58 -190q-7 -24 -21.5 -33t-40.5 -9h-153q-26 0 -39.5 8.5t-22.5 30.5l-144 373q-6 16 -6 28q0 19 15 29.5t38 10.5h85q25 0 38 -10.5
t21 -36.5l82 -272q6 -17 18 -17q11 0 17 17l86 272q8 25 22.5 36t42.5 11h84q46 0 60 -47l86 -272q6 -17 18 -17q11 0 17 17l84 272q8 26 22.5 36.5t42.5 10.5h75q23 0 38 -10.5t15 -29.5z" />
    <glyph glyph-name="x" unicode="x" horiz-adv-x="707" 
d="M482 25l-111 118q-11 12 -20 12t-20 -12l-112 -118q-25 -25 -60 -25h-87q-22 0 -37 11t-15 29q0 21 21 40l164 149q10 9 10 18t-10 18l-147 135q-21 19 -21 40q0 18 15 29t37 11h90q38 0 60 -25l95 -102q11 -12 20 -12t20 12l96 102q25 25 60 25h86q22 0 37 -11t15 -29
q0 -21 -21 -40l-147 -133q-10 -9 -10 -18t10 -18l164 -151q21 -19 21 -40q0 -18 -15 -29t-37 -11h-91q-35 0 -60 25z" />
    <glyph glyph-name="y" unicode="y" horiz-adv-x="681" 
d="M218 433l99 -255q9 -22 21 -22q14 0 23 21l105 256q11 27 24 37t41 10h74q23 0 38.5 -10.5t15.5 -29.5q0 -15 -7 -29l-213 -426q-49 -98 -90.5 -126.5t-138.5 -28.5h-27q-49 0 -69.5 13.5t-20.5 42.5v21q0 51 62 51h25q74 0 92 34q4 8 4 18t-13 10h-7q-25 0 -40 13.5
t-28 41.5l-161 336q-7 14 -7 29q0 19 15.5 29.5t38.5 10.5h85q24 0 36.5 -10.5t22.5 -36.5z" />
    <glyph glyph-name="z" unicode="z" horiz-adv-x="625" 
d="M72 153l240 177q12 9 12 19q0 12 -15 12h-200q-61 0 -61 54v11q0 54 61 54h389q80 0 80 -65v-26q0 -40 -36 -67l-230 -170q-12 -9 -12 -19q0 -12 15 -12h215q61 0 61 -54v-13q0 -54 -61 -54h-419q-76 0 -76 63v23q0 41 37 67z" />
    <glyph glyph-name="braceleft" unicode="{" horiz-adv-x="460" 
d="M271 252v-102q0 -30 11.5 -40.5t37.5 -10.5h8q44 0 44 -39v-10q0 -26 -26 -40.5t-72 -14.5h-21q-53 0 -85.5 9t-48 30t-20 44t-4.5 62v97q0 48 -36 59q-17 5 -24 13t-7 28v12q0 20 7 28t24 13q36 11 36 59v91q0 39 4.5 62t20 44t48 30t85.5 9h21q46 0 72 -14.5t26 -40.5
v-10q0 -39 -44 -39h-8q-26 0 -37.5 -10.5t-11.5 -40.5v-98q0 -55 -38 -73q-18 -9 -18 -16t17 -14q39 -16 39 -77z" />
    <glyph glyph-name="bar" unicode="|" horiz-adv-x="391" 
d="M261 696v-710q0 -56 -50 -56h-31q-50 0 -50 56v710q0 54 50 54h31q50 0 50 -54z" />
    <glyph glyph-name="braceright" unicode="}" horiz-adv-x="460" 
d="M189 150v100q0 61 39 77q17 7 17 14t-18 16q-38 18 -38 73v100q0 30 -11.5 40.5t-37.5 10.5h-8q-44 0 -44 39v10q0 26 26 40.5t72 14.5h21q53 0 85.5 -9t48 -30t20 -44t4.5 -62v-91q0 -48 36 -59q17 -5 24 -13t7 -28v-12q0 -20 -7 -28t-24 -13q-36 -11 -36 -59v-97
q0 -39 -4.5 -62t-20 -44t-48 -30t-85.5 -9h-21q-46 0 -72 14.5t-26 40.5v10q0 39 44 39h8q26 0 37.5 10.5t11.5 40.5z" />
    <glyph glyph-name="asciitilde" unicode="~" horiz-adv-x="682" 
d="M232 390q48 0 116 -37t98 -37q33 0 58 31q15 18 29 18q18 0 43.5 -18.5t25.5 -36.5q0 -14 -10 -31q-52 -90 -141 -90q-48 0 -115.5 37t-98.5 37q-33 0 -58 -31q-15 -18 -29 -18q-18 0 -43.5 18.5t-25.5 36.5q0 14 10 31q52 90 141 90z" />
    <glyph glyph-name="uni00A0" unicode="&#xa0;" horiz-adv-x="330" 
 />
    <glyph glyph-name="exclamdown" unicode="&#xa1;" horiz-adv-x="356" 
d="M271 151l8 -199q2 -62 2 -69q0 -57 -54 -57h-98q-54 0 -54 57q0 7 2 69l8 199q1 58 56 58h74q55 0 56 -58zM74 350v70q0 60 53 60h101q54 0 54 -62v-70q0 -60 -53 -60h-101q-54 0 -54 62z" />
    <glyph glyph-name="cent" unicode="&#xa2;" horiz-adv-x="774" 
d="M400 606v28q0 46 42 46h16q42 0 42 -46v-28q0 -20 9.5 -27.5t28.5 -7.5h14q88 0 117 -14.5t29 -49.5v-18q0 -50 -60 -50h-99q-22 0 -30.5 -7.5t-8.5 -26.5v-150q0 -19 8.5 -26.5t30.5 -7.5h99q60 0 60 -50v-19q0 -35 -29.5 -51t-116.5 -16h-14q-19 0 -28.5 -7.5
t-9.5 -27.5v-36q0 -46 -42 -46h-16q-42 0 -42 46v36q0 20 -9.5 27.5t-28.5 7.5q-89 1 -141 9.5t-89.5 34.5t-51.5 71.5t-14 120.5v12q0 74 15.5 120t53.5 72t89.5 35.5t137.5 10.5q19 0 28.5 7.5t9.5 27.5zM361 439q-71 0 -95.5 -21.5t-24.5 -75.5v-25q0 -54 24.5 -75
t95.5 -21q22 0 30.5 7.5t8.5 26.5v150q0 19 -8.5 26.5t-30.5 7.5z" />
    <glyph glyph-name="sterling" unicode="&#xa3;" horiz-adv-x="928" 
d="M167 242v9q0 29 -33 29h-13q-60 0 -60 53v23q0 54 62 54h7q22 0 31 8t9 26q0 88 25 137.5t96 76.5t201 27h20q78 0 127.5 -1t90 -4.5t61.5 -8.5t35.5 -15t18.5 -22t4 -31v-8q0 -37 -18 -47.5t-58 -10.5h-300q-40 0 -65.5 -7.5t-37 -22.5t-15 -29.5t-3.5 -36.5
q0 -31 36 -31h265q60 0 60 -53v-23q0 -54 -62 -54h-274q-34 0 -34 -25v-6q0 -36 -9 -58q-7 -16 -7 -27q0 -14 14 -14h471q60 0 60 -53v-44q0 -53 -60 -53h-688q-67 0 -67 60v22q0 28 9 43t33 25q68 28 68 92z" />
    <glyph glyph-name="currency" unicode="&#xa4;" horiz-adv-x="785" 
d="M394 175q56 0 91.5 38.5t35.5 95.5q0 54 -36 93t-91 39t-90.5 -38.5t-35.5 -93.5q0 -57 35.5 -95.5t90.5 -38.5zM118 307q0 63 29 128q5 10 5 16t-3 11.5t-17.5 21t-43.5 42.5q-10 10 -10 22q0 19 26.5 45.5t45.5 26.5q13 0 29 -16q41 -42 51.5 -51.5t17.5 -9.5q6 0 22 8
q60 29 124 29q70 0 126 -27q16 -8 22 -8q14 0 71 59q16 16 29 16q19 0 45 -26t26 -45q0 -12 -10 -22q-45 -42 -55.5 -53.5t-10.5 -19.5q0 -6 5 -16q31 -62 31 -131q0 -63 -29 -128q-5 -10 -5 -16t3 -11.5t17.5 -21t43.5 -42.5q10 -10 10 -22q0 -19 -26.5 -45.5t-45.5 -26.5
q-13 0 -29 16q-41 42 -51.5 51.5t-17.5 9.5q-6 0 -22 -8q-60 -29 -124 -29q-71 0 -126 27q-16 8 -22 8q-14 0 -71 -59q-16 -16 -29 -16q-19 0 -45 26t-26 45q0 12 10 22q45 42 55.5 53.5t10.5 19.5q0 6 -5 16q-31 62 -31 131z" />
    <glyph glyph-name="yen" unicode="&#xa5;" horiz-adv-x="901" 
d="M814 584l-118 -125q-10 -11 -10 -20q0 -11 15 -11h89q36 0 36 -32v-15q0 -33 -39 -33h-161q-21 0 -33 -15l-31 -36q-10 -11 -10 -20q0 -12 15 -12h223q36 0 36 -32v-15q0 -33 -39 -33h-216q-13 0 -17.5 -4.5t-4.5 -15.5v-105q0 -60 -53 -60h-90q-54 0 -54 62v103
q0 11 -4.5 15.5t-17.5 4.5h-218q-37 0 -37 33v14q0 33 39 33h220q15 0 15 12q0 9 -10 20l-31 36q-12 15 -33 15h-163q-37 0 -37 33v14q0 33 39 33h87q15 0 15 11q0 9 -10 20l-119 125q-27 27 -27 51q0 21 14.5 33t40.5 12h80q45 0 67 -30l169 -226q13 -17 22 -17q10 0 22 17
l167 226q21 30 67 30h77q25 0 39.5 -12t14.5 -33q0 -25 -26 -51z" />
    <glyph glyph-name="brokenbar" unicode="&#xa6;" horiz-adv-x="391" 
d="M261 696v-213q0 -56 -50 -56h-31q-50 0 -50 56v213q0 54 50 54h31q50 0 50 -54zM261 205v-219q0 -56 -50 -56h-31q-50 0 -50 56v219q0 54 50 54h31q50 0 50 -54z" />
    <glyph glyph-name="section" unicode="&#xa7;" horiz-adv-x="949" 
d="M469 169h9q85 0 125 5.5t52.5 17t12.5 35.5v14q0 24 -12.5 35.5t-52.5 17.5t-125 6h-9q-85 0 -125 -6t-52.5 -17.5t-12.5 -35.5v-14q0 -24 12.5 -35.5t52.5 -17t125 -5.5zM81 490v11q0 75 29.5 112.5t108 54.5t233.5 17h72q78 0 127.5 -1t90 -4.5t61.5 -8.5t35.5 -15
t18.5 -22t4 -31v-8q0 -36 -18 -46t-58 -10h-311q-86 0 -129 -6t-54.5 -16t-11.5 -30v-8q0 -24 12.5 -35.5t53 -17t125.5 -5.5h12q159 0 240 -13.5t114 -45.5t33 -95v-16q0 -43 -16 -68t-54 -46q-16 -8 -16 -20q0 -11 15 -18q41 -18 56 -48.5t15 -80.5v-14
q0 -67 -32.5 -103.5t-112.5 -53t-228 -16.5h-80q-78 0 -127.5 1t-90 4.5t-61.5 8.5t-35.5 15t-18.5 22t-4 31v9q0 36 18 46t58 10h319q89 0 130.5 5.5t52.5 16t11 34.5v8q0 22 -14 32.5t-53 15.5t-119 5h-33q-216 0 -292 30.5t-76 121.5v18q0 36 16 60t54 44q16 8 16 20
q0 11 -15 18q-41 18 -56 48.5t-15 82.5z" />
    <glyph glyph-name="dieresis" unicode="&#xa8;" 
d="M203 618v-19q0 -60 -53 -60h-62q-54 0 -54 62v19q0 60 53 60h62q54 0 54 -62zM466 618v-19q0 -60 -53 -60h-62q-54 0 -54 62v19q0 60 53 60h62q54 0 54 -62z" />
    <glyph glyph-name="copyright" unicode="&#xa9;" horiz-adv-x="960" 
d="M466 52h28q82 0 131.5 3t90 15.5t60 29t32.5 52.5t16 76t3 109v6q0 69 -3 109t-16 76t-32.5 52.5t-60 29t-90 15.5t-131.5 3h-28q-82 0 -131.5 -3t-90 -15.5t-60 -29t-32.5 -52.5t-16 -76t-3 -109v-6q0 -69 3 -109t16 -76t32.5 -52.5t60 -29t90 -15.5t131.5 -3zM494 -5
h-28q-91 0 -150 4.5t-106.5 19t-72.5 36t-42 62t-22 90t-5 126.5v14q0 77 5 126.5t22 90t42 62t72.5 36t106.5 19t150 4.5h28q91 0 150 -4.5t106.5 -19t72.5 -36t42 -62t22 -90t5 -126.5v-14q0 -77 -5 -126.5t-22 -90t-42 -62t-72.5 -36t-106.5 -19t-150 -4.5zM487 258h185
q47 0 47 -38v-24q0 -18 -6 -27t-29.5 -15.5t-61.5 -8t-110 -1.5h-29q-63 0 -101 4t-68.5 15t-44.5 34t-21 56.5t-7 86.5v6q0 67 9 103.5t39 58t72 27t122 5.5h29q73 0 110 -1.5t61 -7.5t30 -15t6 -27v-22q0 -38 -47 -38h-185q-69 0 -86 -14t-17 -69v-6q0 -54 17 -68t86 -14z
" />
    <glyph glyph-name="ordfeminine" unicode="&#xaa;" 
d="M249 680h18q112 0 144 -25t32 -120v-80q0 -80 -90 -80h-153q-84 0 -114.5 19t-30.5 74v15q0 49 32.5 66t113.5 17h101q26 0 26 13q0 12 -11 17.5t-47 5.5h-166q-38 0 -38 34q0 28 34.5 36t148.5 8zM286 499h-73q-45 0 -45 -22v-4q0 -23 47 -23h73q42 0 42 22v4
q0 23 -44 23z" />
    <glyph glyph-name="guillemotleft" unicode="&#xab;" horiz-adv-x="606" 
d="M214 271q0 -7 6 -18l51 -86q14 -24 14 -39q0 -23 -28.5 -40.5t-51.5 -17.5q-18 0 -29 8t-24 31l-55 95q-25 43 -25 67t25 67l55 95q13 23 24 31t29 8q23 0 51.5 -17.5t28.5 -40.5q0 -15 -14 -39l-51 -86q-6 -11 -6 -18zM453 271q0 -7 6 -18l51 -86q14 -24 14 -39
q0 -23 -28.5 -40.5t-51.5 -17.5q-18 0 -29 8t-24 31l-55 95q-25 43 -25 67t25 67l55 95q13 23 24 31t29 8q23 0 51.5 -17.5t28.5 -40.5q0 -15 -14 -39l-51 -86q-6 -11 -6 -18z" />
    <glyph glyph-name="logicalnot" unicode="&#xac;" horiz-adv-x="682" 
d="M448 309h-328q-60 0 -60 53v23q0 54 62 54h433q65 0 65 -57v-200q0 -51 -46 -51h-43q-45 0 -45 52v93q0 18 -9 25.5t-29 7.5z" />
    <glyph glyph-name="uni00AD" unicode="&#xad;" 
d="M128 322h244q60 0 60 -53v-43q0 -53 -60 -53h-244q-60 0 -60 53v43q0 53 60 53z" />
    <glyph glyph-name="registered" unicode="&#xae;" horiz-adv-x="672" 
d="M328 312h16q75 0 113 4.5t62 23t29.5 46t5.5 82.5v11q0 55 -5.5 82.5t-29.5 46t-62 23t-113 4.5h-16q-75 0 -113 -4.5t-62 -23t-29.5 -46t-5.5 -82.5v-11q0 -55 5.5 -82.5t29.5 -46t62 -23t113 -4.5zM344 266h-16q-70 0 -112.5 4.5t-74.5 16t-47 35.5t-22 57.5t-7 88.5
v11q0 55 7 88.5t22 57.5t47 35.5t74.5 16t112.5 4.5h16q70 0 112.5 -4.5t74.5 -16t47 -35.5t22 -57.5t7 -88.5v-11q0 -55 -7 -88.5t-22 -57.5t-47 -35.5t-74.5 -16t-112.5 -4.5zM294 476h59q34 0 43.5 5t9.5 24v4q0 19 -9.5 24.5t-43.5 5.5h-59q-15 0 -15 -12v-38
q0 -13 15 -13zM250 596h130q61 0 81.5 -15.5t20.5 -60.5v-4q0 -40 -31 -56q-7 -4 -7 -8q0 -5 6 -7q18 -6 25 -18.5t7 -41.5v-11q0 -22 -20 -22h-36q-19 0 -19 22v4q0 25 -11.5 32.5t-55.5 7.5h-46q-15 0 -15 -12v-32q0 -22 -20 -22h-38q-20 0 -20 22v180q0 42 49 42z" />
    <glyph glyph-name="macron" unicode="&#xaf;" 
d="M120 662h260q42 0 42 -44v-6q0 -44 -42 -44h-260q-42 0 -42 43v6q0 21 11 33t31 12z" />
    <glyph glyph-name="degree" unicode="&#xb0;" horiz-adv-x="416" 
d="M208 393q-71 0 -119.5 47.5t-48.5 117.5t48.5 117t119.5 47t119.5 -47t48.5 -117t-48.5 -117.5t-119.5 -47.5zM208 470q37 0 61.5 25.5t24.5 62.5q0 36 -25 62t-61 26t-61 -26t-25 -62q0 -37 24.5 -62.5t61.5 -25.5z" />
    <glyph glyph-name="plusminus" unicode="&#xb1;" horiz-adv-x="682" 
d="M120 479h128q15 0 21 5.5t6 18.5v75q0 60 53 60h26q53 0 53 -60v-75q0 -13 6 -18.5t21 -5.5h128q60 0 60 -53v-24q0 -53 -60 -53h-128q-15 0 -21 -5.5t-6 -18.5v-75q0 -60 -53 -60h-26q-53 0 -53 60v75q0 13 -6 18.5t-21 5.5h-128q-60 0 -60 53v24q0 53 60 53zM120 130
h442q60 0 60 -53v-24q0 -53 -60 -53h-442q-60 0 -60 53v24q0 53 60 53z" />
    <glyph glyph-name="twosuperior" unicode="&#xb2;" horiz-adv-x="569" 
d="M500 453h-396q-26 0 -41 14t-15 39v31q0 75 46.5 107.5t150.5 32.5h79q47 0 62 6t15 21v4q0 15 -18.5 20.5t-75.5 5.5h-203q-50 0 -50 34v9q0 20 16.5 29.5t62.5 14t140 4.5h9q110 0 160 -9.5t67.5 -32t17.5 -71.5v-6q0 -62 -38.5 -88t-140.5 -26h-89q-54 0 -72.5 -9.5
t-18.5 -28.5q0 -14 17 -14h315q35 0 35 -35v-16q0 -36 -35 -36z" />
    <glyph glyph-name="threesuperior" unicode="&#xb3;" horiz-adv-x="583" 
d="M541 555q0 -65 -47 -83.5t-207 -18.5h-14q-95 0 -141 4.5t-62 14t-16 29.5v7q0 34 50 34h179q62 0 90 3t35 8t7 18v4q0 14 -13.5 19.5t-52.5 5.5h-163q-36 0 -36 35v10q0 36 36 36h164q34 0 44.5 5t10.5 17v7q0 11 -7 16t-33 8t-82 3h-176q-50 0 -50 34v6q0 20 16.5 29.5
t62.5 14t140 4.5h11q110 0 160 -8t67.5 -27t17.5 -60q0 -55 -34 -75q-11 -6 -11 -13q0 -6 9 -10q25 -11 35 -27.5t10 -49.5z" />
    <glyph glyph-name="acute" unicode="&#xb4;" 
d="M380 602l-162 -64q-19 -7 -27 -7q-17 0 -30 20q-9 13 -9 24q0 14 20 28l137 91q23 16 37 16q20 0 35 -23l15 -22q12 -18 12 -30q0 -22 -28 -33z" />
    <glyph glyph-name="mu" unicode="&#xb5;" horiz-adv-x="785" 
d="M65 -110v530q0 60 53 60h80q53 0 53 -60v-183q0 -70 19.5 -89t92.5 -19h111q60 0 60 53v238q0 60 53 60h80q53 0 53 -60v-320q0 -103 -129 -103h-253q-57 0 -72 -7.5t-15 -35.5v-62q0 -62 -54 -62h-79q-53 0 -53 60z" />
    <glyph glyph-name="paragraph" unicode="&#xb6;" horiz-adv-x="840" 
d="M768 607v-715q0 -56 -50 -56h-30q-50 0 -50 56v668q0 29 -28 29h-15q-28 0 -28 -28v-669q0 -56 -50 -56h-30q-50 0 -50 56v250q0 21 -9.5 28t-29.5 7h-24q-95 0 -152.5 11.5t-90.5 42.5t-44 75t-11 118v18q0 63 8 101.5t28 68.5t61 44.5t99 21.5t150 7h254q92 0 92 -78z
" />
    <glyph glyph-name="periodcentered" unicode="&#xb7;" horiz-adv-x="326" 
d="M267 300v-70q0 -60 -53 -60h-101q-54 0 -54 62v70q0 60 53 60h101q54 0 54 -62z" />
    <glyph glyph-name="cedilla" unicode="&#xb8;" 
d="M310 -128l-162 -64q-19 -7 -27 -7q-17 0 -30 20q-9 13 -9 24q0 14 20 28l137 91q23 16 37 16q20 0 35 -23l15 -22q12 -18 12 -30q0 -22 -28 -33z" />
    <glyph glyph-name="onesuperior" unicode="&#xb9;" horiz-adv-x="401" 
d="M47 765v24q0 36 35 36h166q42 0 42 -42v-291q0 -39 -35 -39h-63q-35 0 -35 38v215q0 23 -26 23h-49q-35 0 -35 36z" />
    <glyph glyph-name="ordmasculine" unicode="&#xba;" 
d="M239 465h20q51 0 62.5 8t11.5 48v15q0 40 -11.5 48t-62.5 8h-20q-51 0 -62.5 -8t-11.5 -48v-15q0 -40 11.5 -48t62.5 -8zM263 375h-27q-61 0 -93 4t-55 19.5t-30 43.5t-7 79v15q0 51 7 78.5t30.5 43t54.5 19t93 3.5h27q62 0 93.5 -3.5t55 -19t30.5 -43t7 -78.5v-15
q0 -96 -34.5 -121t-151.5 -25z" />
    <glyph glyph-name="guillemotright" unicode="&#xbb;" horiz-adv-x="606" 
d="M392 271q0 7 -6 18l-51 86q-14 24 -14 39q0 23 28.5 40.5t51.5 17.5q18 0 29 -8t24 -31l55 -95q25 -43 25 -67t-25 -67l-55 -95q-13 -23 -24 -31t-29 -8q-23 0 -51.5 17.5t-28.5 40.5q0 15 14 39l51 86q6 11 6 18zM153 271q0 7 -6 18l-51 86q-14 24 -14 39
q0 23 28.5 40.5t51.5 17.5q18 0 29 -8t24 -31l55 -95q25 -43 25 -67t-25 -67l-55 -95q-13 -23 -24 -31t-29 -8q-23 0 -51.5 17.5t-28.5 40.5q0 15 14 39l51 86q6 11 6 18z" />
    <glyph glyph-name="onequarter" unicode="&#xbc;" horiz-adv-x="1189" 
d="M720 627l-297 -591q-10 -21 -20 -28.5t-30 -7.5h-21q-17 0 -27 8.5t-10 22.5q0 8 6 22l297 591q10 21 20 28.5t30 7.5h21q17 0 27 -8.5t10 -22.5q0 -8 -6 -22zM928 180v84q0 10 -9 10q-6 0 -14 -4l-164 -87q-9 -5 -9 -12q0 -10 12 -10h161q14 0 18.5 4t4.5 15zM930 372
h89q42 0 42 -42v-147q0 -22 21 -22h12q35 0 35 -36v-13q0 -36 -35 -36h-11q-13 0 -17.5 -4.5t-4.5 -15.5v-17q0 -39 -35 -39h-63q-35 0 -35 38v19q0 12 -5.5 15.5t-19.5 3.5h-256q-49 0 -49 44v54q0 36 29 52l243 130q29 16 60 16zM99 620v24q0 36 35 36h166q42 0 42 -42
v-291q0 -39 -35 -39h-63q-35 0 -35 38v215q0 23 -26 23h-49q-35 0 -35 36z" />
    <glyph glyph-name="onehalf" unicode="&#xbd;" horiz-adv-x="1175" 
d="M99 620v24q0 36 35 36h166q42 0 42 -42v-291q0 -39 -35 -39h-63q-35 0 -35 38v215q0 23 -26 23h-49q-35 0 -35 36zM700 627l-297 -591q-10 -21 -20 -28.5t-30 -7.5h-21q-17 0 -27 8.5t-10 22.5q0 8 6 22l297 591q10 21 20 28.5t30 7.5h21q17 0 27 -8.5t10 -22.5
q0 -8 -6 -22zM1082 0h-396q-26 0 -41 14t-15 39v31q0 75 46.5 107.5t150.5 32.5h79q47 0 62 6t15 21v4q0 15 -18.5 20.5t-75.5 5.5h-203q-50 0 -50 34v9q0 20 16.5 29.5t62.5 14t140 4.5h9q110 0 160 -9.5t67.5 -32t17.5 -71.5v-6q0 -62 -38.5 -88t-140.5 -26h-89
q-54 0 -72.5 -9.5t-18.5 -28.5q0 -14 17 -14h315q35 0 35 -35v-16q0 -36 -35 -36z" />
    <glyph glyph-name="threequarters" unicode="&#xbe;" horiz-adv-x="1333" 
d="M560 410q0 -65 -47 -83.5t-207 -18.5h-14q-95 0 -141 4.5t-62 14t-16 29.5v7q0 34 50 34h179q62 0 90 3t35 8t7 18v4q0 14 -13.5 19.5t-52.5 5.5h-163q-36 0 -36 35v10q0 36 36 36h164q34 0 44.5 5t10.5 17v7q0 11 -7 16t-33 8t-82 3h-176q-50 0 -50 34v6q0 20 16.5 29.5
t62.5 14t140 4.5h11q110 0 160 -8t67.5 -27t17.5 -60q0 -55 -34 -75q-11 -6 -11 -13q0 -6 9 -10q25 -11 35 -27.5t10 -49.5zM875 627l-297 -591q-10 -21 -20 -28.5t-30 -7.5h-21q-17 0 -27 8.5t-10 22.5q0 8 6 22l297 591q10 21 20 28.5t30 7.5h21q17 0 27 -8.5t10 -22.5
q0 -8 -6 -22zM1072 180v84q0 10 -9 10q-6 0 -14 -4l-164 -87q-9 -5 -9 -12q0 -10 12 -10h161q14 0 18.5 4t4.5 15zM1074 372h89q42 0 42 -42v-147q0 -22 21 -22h12q35 0 35 -36v-13q0 -36 -35 -36h-11q-13 0 -17.5 -4.5t-4.5 -15.5v-17q0 -39 -35 -39h-63q-35 0 -35 38v19
q0 12 -5.5 15.5t-19.5 3.5h-256q-49 0 -49 44v54q0 36 29 52l243 130q29 16 60 16z" />
    <glyph glyph-name="questiondown" unicode="&#xbf;" horiz-adv-x="789" 
d="M324 362v58q0 60 53 60h101q54 0 54 -62v-58q0 -60 -53 -60h-101q-54 0 -54 62zM367 -31h286q40 0 58 -10.5t18 -47.5v-7q0 -33 -24 -49t-89 -22.5t-203 -6.5h-41q-192 0 -259.5 35t-67.5 140v13q0 94 50.5 139t189.5 64l148 20q43 5 53 5q21 0 33 -12t12 -34v-32
q0 -30 -12 -46t-44 -20l-136 -17q-73 -9 -97 -22.5t-24 -37.5v-4q0 -26 31 -37t118 -11z" />
    <glyph glyph-name="Agrave" unicode="&#xc0;" horiz-adv-x="996" 
d="M747 52l-24 46q-7 15 -15 19.5t-27 4.5h-370q-19 0 -27 -4.5t-15 -19.5l-24 -46q-16 -32 -29 -42t-42 -10h-88q-26 0 -40.5 12t-14.5 32t11 39l307 555q13 23 27.5 32.5t39.5 9.5h160q25 0 39 -9t28 -33l311 -555q11 -21 11 -39q0 -21 -15.5 -32.5t-39.5 -11.5h-95
q-27 0 -39.5 10.5t-28.5 41.5zM622 301l-108 217q-8 16 -18 16t-18 -16l-109 -217q-6 -12 -6 -20q0 -17 24 -17h217q24 0 24 17q0 8 -6 20zM521 728l-169 47q-30 8 -30 33q0 12 9 28l13 24q14 26 35 26q12 0 36 -12l145 -77q24 -13 24 -29q0 -7 -8 -23q-12 -22 -29 -22
q-9 0 -26 5z" />
    <glyph glyph-name="Aacute" unicode="&#xc1;" horiz-adv-x="996" 
d="M747 52l-24 46q-7 15 -15 19.5t-27 4.5h-370q-19 0 -27 -4.5t-15 -19.5l-24 -46q-16 -32 -29 -42t-42 -10h-88q-26 0 -40.5 12t-14.5 32t11 39l307 555q13 23 27.5 32.5t39.5 9.5h160q25 0 39 -9t28 -33l311 -555q11 -21 11 -39q0 -21 -15.5 -32.5t-39.5 -11.5h-95
q-27 0 -39.5 10.5t-28.5 41.5zM622 301l-108 217q-8 16 -18 16t-18 -16l-109 -217q-6 -12 -6 -20q0 -17 24 -17h217q24 0 24 17q0 8 -6 20zM640 775l-169 -47q-17 -5 -26 -5q-17 0 -29 22q-8 16 -8 23q0 16 24 29l145 77q24 12 36 12q21 0 35 -26l13 -24q9 -16 9 -28
q0 -25 -30 -33z" />
    <glyph glyph-name="Acircumflex" unicode="&#xc2;" horiz-adv-x="996" 
d="M747 52l-24 46q-7 15 -15 19.5t-27 4.5h-370q-19 0 -27 -4.5t-15 -19.5l-24 -46q-16 -32 -29 -42t-42 -10h-88q-26 0 -40.5 12t-14.5 32t11 39l307 555q13 23 27.5 32.5t39.5 9.5h160q25 0 39 -9t28 -33l311 -555q11 -21 11 -39q0 -21 -15.5 -32.5t-39.5 -11.5h-95
q-27 0 -39.5 10.5t-28.5 41.5zM622 301l-108 217q-8 16 -18 16t-18 -16l-109 -217q-6 -12 -6 -20q0 -17 24 -17h217q24 0 24 17q0 8 -6 20zM495 784q-12 0 -27 -6l-81 -34q-16 -6 -25 -6q-19 0 -31 21q-7 13 -7 24q0 15 21 28l119 74q15 9 31 9t31 -9l119 -74q21 -13 21 -28
q0 -11 -7 -24q-12 -21 -31 -21q-8 0 -25 6l-81 34q-15 6 -27 6z" />
    <glyph glyph-name="Atilde" unicode="&#xc3;" horiz-adv-x="996" 
d="M747 52l-24 46q-7 15 -15 19.5t-27 4.5h-370q-19 0 -27 -4.5t-15 -19.5l-24 -46q-16 -32 -29 -42t-42 -10h-88q-26 0 -40.5 12t-14.5 32t11 39l307 555q13 23 27.5 32.5t39.5 9.5h160q25 0 39 -9t28 -33l311 -555q11 -21 11 -39q0 -21 -15.5 -32.5t-39.5 -11.5h-95
q-27 0 -39.5 10.5t-28.5 41.5zM622 301l-108 217q-8 16 -18 16t-18 -16l-109 -217q-6 -12 -6 -20q0 -17 24 -17h217q24 0 24 17q0 8 -6 20zM429 882q30 0 74.5 -23.5t61.5 -23.5q22 0 33 23q9 21 23 21q17 0 33 -8t16 -22q0 -4 -2 -14q-23 -101 -108 -101q-30 0 -74 23.5
t-61 23.5q-24 0 -35 -23q-9 -21 -23 -21q-15 0 -31 8t-16 22q0 4 2 14q23 101 107 101z" />
    <glyph glyph-name="Adieresis" unicode="&#xc4;" horiz-adv-x="996" 
d="M747 52l-24 46q-7 15 -15 19.5t-27 4.5h-370q-19 0 -27 -4.5t-15 -19.5l-24 -46q-16 -32 -29 -42t-42 -10h-88q-26 0 -40.5 12t-14.5 32t11 39l307 555q13 23 27.5 32.5t39.5 9.5h160q25 0 39 -9t28 -33l311 -555q11 -21 11 -39q0 -21 -15.5 -32.5t-39.5 -11.5h-95
q-27 0 -39.5 10.5t-28.5 41.5zM622 301l-108 217q-8 16 -18 16t-18 -16l-109 -217q-6 -12 -6 -20q0 -17 24 -17h217q24 0 24 17q0 8 -6 20zM448 814v-19q0 -60 -53 -60h-62q-54 0 -54 62v19q0 60 53 60h62q54 0 54 -62zM711 814v-19q0 -60 -53 -60h-62q-54 0 -54 62v19
q0 60 53 60h62q54 0 54 -62z" />
    <glyph glyph-name="Aring" unicode="&#xc5;" horiz-adv-x="996" 
d="M747 52l-24 46q-7 15 -15 19.5t-27 4.5h-370q-19 0 -27 -4.5t-15 -19.5l-24 -46q-16 -32 -29 -42t-42 -10h-88q-26 0 -40.5 12t-14.5 32t11 39l307 555q13 23 27.5 32.5t39.5 9.5h160q25 0 39 -9t28 -33l311 -555q11 -21 11 -39q0 -21 -15.5 -32.5t-39.5 -11.5h-95
q-27 0 -39.5 10.5t-28.5 41.5zM622 301l-108 217q-8 16 -18 16t-18 -16l-109 -217q-6 -12 -6 -20q0 -17 24 -17h217q24 0 24 17q0 8 -6 20zM498 716h-6q-77 0 -105.5 19t-28.5 68v6q0 49 28 67.5t106 18.5h6q78 0 106 -18.5t28 -67.5v-6q0 -49 -28.5 -68t-105.5 -19z
M492 768h6q43 0 57.5 7.5t14.5 27.5v6q0 19 -14.5 26t-57.5 7h-6q-43 0 -57.5 -7t-14.5 -26v-6q0 -20 14.5 -27.5t57.5 -7.5z" />
    <glyph glyph-name="AE" unicode="&#xc6;" horiz-adv-x="1489" 
d="M702 87v9q0 26 -34 26h-331q-18 0 -26.5 -4.5t-17.5 -19.5l-36 -54q-18 -27 -30 -35.5t-40 -8.5h-88q-26 0 -40.5 12t-14.5 32q0 23 14 43l401 554q17 24 30.5 31.5t40.5 7.5h862q60 0 60 -53v-44q0 -53 -60 -53h-460q-39 0 -39 -33v-49q0 -35 39 -35h433q60 0 60 -53
v-36q0 -53 -60 -53h-433q-39 0 -39 -33v-49q0 -35 39 -35h472q60 0 60 -53v-48q0 -53 -60 -53h-595q-50 0 -78.5 22.5t-28.5 64.5zM668 530h-45q-16 0 -25.5 -6.5t-22.5 -24.5l-140 -197q-8 -11 -8 -21q0 -17 24 -17h212q39 0 39 33v202q0 31 -34 31z" />
    <glyph glyph-name="Ccedilla" unicode="&#xc7;" horiz-adv-x="973" 
d="M258 341v-10q0 -44 1.5 -68.5t12 -46.5t23 -31t44 -16t66 -8t97.5 -1h359q60 0 60 -53v-30q0 -35 -24 -51.5t-93.5 -23.5t-219.5 -7h-73q-105 0 -172.5 4.5t-122.5 19t-83.5 35t-48 61t-25 89t-5.5 124.5v16q0 78 6 128t25.5 90.5t49 62.5t84 36.5t121.5 19t171 4.5h73
q78 0 127.5 -1t90 -4.5t61.5 -8.5t35.5 -15t18.5 -22t4 -31v-26q0 -53 -60 -53h-359q-46 0 -75.5 -0.5t-58 -4.5t-44 -8.5t-29.5 -15.5t-20 -22t-10.5 -32.5t-5.5 -43t-1 -56.5zM561 -128l-162 -64q-19 -7 -27 -7q-17 0 -30 20q-9 13 -9 24q0 14 20 28l137 91q23 16 37 16
q20 0 35 -23l15 -22q12 -18 12 -30q0 -22 -28 -33z" />
    <glyph glyph-name="Egrave" unicode="&#xc8;" horiz-adv-x="857" 
d="M300 154h472q60 0 60 -53v-48q0 -53 -60 -53h-569q-59 0 -96 27.5t-37 84.5v456q0 58 37 85t96 27h557q60 0 60 -53v-44q0 -53 -60 -53h-460q-39 0 -39 -33v-49q0 -35 39 -35h433q60 0 60 -53v-36q0 -53 -60 -53h-433q-39 0 -39 -33v-49q0 -35 39 -35zM487 728l-169 47
q-30 8 -30 33q0 12 9 28l13 24q14 26 35 26q12 0 36 -12l145 -77q24 -13 24 -29q0 -7 -8 -23q-12 -22 -29 -22q-9 0 -26 5z" />
    <glyph glyph-name="Eacute" unicode="&#xc9;" horiz-adv-x="857" 
d="M300 154h472q60 0 60 -53v-48q0 -53 -60 -53h-569q-59 0 -96 27.5t-37 84.5v456q0 58 37 85t96 27h557q60 0 60 -53v-44q0 -53 -60 -53h-460q-39 0 -39 -33v-49q0 -35 39 -35h433q60 0 60 -53v-36q0 -53 -60 -53h-433q-39 0 -39 -33v-49q0 -35 39 -35zM566 775l-169 -47
q-17 -5 -26 -5q-17 0 -29 22q-8 16 -8 23q0 16 24 29l145 77q24 12 36 12q21 0 35 -26l13 -24q9 -16 9 -28q0 -25 -30 -33z" />
    <glyph glyph-name="Ecircumflex" unicode="&#xca;" horiz-adv-x="857" 
d="M300 154h472q60 0 60 -53v-48q0 -53 -60 -53h-569q-59 0 -96 27.5t-37 84.5v456q0 58 37 85t96 27h557q60 0 60 -53v-44q0 -53 -60 -53h-460q-39 0 -39 -33v-49q0 -35 39 -35h433q60 0 60 -53v-36q0 -53 -60 -53h-433q-39 0 -39 -33v-49q0 -35 39 -35zM441 784
q-12 0 -27 -6l-81 -34q-16 -6 -25 -6q-19 0 -31 21q-7 13 -7 24q0 15 21 28l119 74q15 9 31 9t31 -9l119 -74q21 -13 21 -28q0 -11 -7 -24q-12 -21 -31 -21q-8 0 -25 6l-81 34q-15 6 -27 6z" />
    <glyph glyph-name="Edieresis" unicode="&#xcb;" horiz-adv-x="857" 
d="M300 154h472q60 0 60 -53v-48q0 -53 -60 -53h-569q-59 0 -96 27.5t-37 84.5v456q0 58 37 85t96 27h557q60 0 60 -53v-44q0 -53 -60 -53h-460q-39 0 -39 -33v-49q0 -35 39 -35h433q60 0 60 -53v-36q0 -53 -60 -53h-433q-39 0 -39 -33v-49q0 -35 39 -35zM394 814v-19
q0 -60 -53 -60h-62q-54 0 -54 62v19q0 60 53 60h62q54 0 54 -62zM657 814v-19q0 -60 -53 -60h-62q-54 0 -54 62v19q0 60 53 60h62q54 0 54 -62z" />
    <glyph glyph-name="Igrave" unicode="&#xcc;" horiz-adv-x="343" 
d="M273 618v-558q0 -60 -53 -60h-96q-54 0 -54 62v558q0 60 53 60h96q54 0 54 -62zM207 728l-169 47q-30 8 -30 33q0 12 9 28l13 24q14 26 35 26q12 0 36 -12l145 -77q24 -13 24 -29q0 -7 -8 -23q-12 -22 -29 -22q-9 0 -26 5z" />
    <glyph glyph-name="Iacute" unicode="&#xcd;" horiz-adv-x="343" 
d="M273 618v-558q0 -60 -53 -60h-96q-54 0 -54 62v558q0 60 53 60h96q54 0 54 -62zM306 775l-169 -47q-17 -5 -26 -5q-17 0 -29 22q-8 16 -8 23q0 16 24 29l145 77q24 12 36 12q21 0 35 -26l13 -24q9 -16 9 -28q0 -25 -30 -33z" />
    <glyph glyph-name="Icircumflex" unicode="&#xce;" horiz-adv-x="343" 
d="M273 618v-558q0 -60 -53 -60h-96q-54 0 -54 62v558q0 60 53 60h96q54 0 54 -62zM171 784q-12 0 -27 -6l-81 -34q-17 -6 -25 -6q-19 0 -31 21q-7 13 -7 24q0 15 21 28l119 74q15 9 31 9t31 -9l119 -74q21 -13 21 -28q0 -11 -7 -24q-12 -21 -31 -21q-8 0 -25 6l-81 34
q-15 6 -27 6z" />
    <glyph glyph-name="Idieresis" unicode="&#xcf;" horiz-adv-x="343" 
d="M273 618v-558q0 -60 -53 -60h-96q-54 0 -54 62v558q0 60 53 60h96q54 0 54 -62zM124 814v-19q0 -60 -53 -60h-62q-54 0 -54 62v19q0 60 53 60h62q54 0 54 -62zM387 814v-19q0 -60 -53 -60h-62q-54 0 -54 62v19q0 60 53 60h62q54 0 54 -62z" />
    <glyph glyph-name="Eth" unicode="&#xd0;" horiz-adv-x="1028" 
d="M272 265v-70q0 -37 40 -37h211q65 0 101 1t68 9t45 17t23 32t11.5 48t1.5 71v12q0 34 -1 55t-6 41.5t-11 32t-20.5 22t-30.5 14.5t-45 8t-59 4.5t-77 0.5h-211q-40 0 -40 -34v-69q0 -27 28 -27h125q19 0 30.5 -11t11.5 -30v-21q0 -42 -42 -42h-125q-28 0 -28 -27zM70 112
v155q0 25 -25 25h-5q-42 0 -42 40v22q0 19 11.5 30.5t30.5 11.5h5q25 0 25 25v147q0 58 37 85t96 27h337q76 0 127.5 -2t99.5 -8.5t77 -16t54.5 -28.5t38.5 -41.5t22 -58.5t12 -76.5t3 -98.5v-20q0 -76 -5 -123t-22.5 -87.5t-44.5 -61t-79 -35t-117 -19t-166 -4.5h-337
q-59 0 -96 27.5t-37 84.5z" />
    <glyph glyph-name="Ntilde" unicode="&#xd1;" horiz-adv-x="1042" 
d="M972 618v-533q0 -85 -93 -85h-158q-36 0 -54.5 10t-39.5 37l-311 412q-19 25 -30 25q-18 0 -18 -24v-400q0 -60 -53 -60h-91q-54 0 -54 62v533q0 85 93 85h162q36 0 54.5 -10t39.5 -37l307 -412q19 -25 30 -25q18 0 18 24v400q0 60 53 60h91q54 0 54 -62zM460 882
q30 0 74.5 -23.5t61.5 -23.5q22 0 33 23q9 21 23 21q17 0 33 -8t16 -22q0 -4 -2 -14q-23 -101 -108 -101q-30 0 -74 23.5t-61 23.5q-24 0 -35 -23q-9 -21 -23 -21q-15 0 -31 8t-16 22q0 4 2 14q23 101 107 101z" />
    <glyph glyph-name="Ograve" unicode="&#xd2;" horiz-adv-x="1029" 
d="M530 -5h-31q-105 0 -169 3.5t-118.5 17.5t-81.5 34.5t-46.5 61.5t-24.5 91t-5 130v14q0 80 5 130t24.5 91t46.5 61.5t81.5 34.5t118.5 17.5t169 3.5h31q105 0 169 -3.5t118.5 -17.5t81.5 -34.5t46.5 -61.5t24.5 -91t5 -130v-14q0 -80 -5 -130t-24.5 -91t-46.5 -61.5
t-81.5 -34.5t-118.5 -17.5t-169 -3.5zM506 152h17q65 0 101 1.5t67.5 9.5t44.5 17.5t22.5 34t11 49.5t1.5 74v5q0 49 -1.5 75t-11 50.5t-22.5 34t-44.5 17.5t-67.5 9.5t-101 1.5h-17q-65 0 -101 -1.5t-67.5 -9.5t-44.5 -17.5t-22.5 -34t-11 -50.5t-1.5 -75v-5q0 -49 1.5 -74
t11 -49.5t22.5 -34t44.5 -17.5t67.5 -9.5t101 -1.5zM561 728l-169 47q-30 8 -30 33q0 12 9 28l13 24q14 26 35 26q12 0 36 -12l145 -77q24 -13 24 -29q0 -7 -8 -23q-12 -22 -29 -22q-9 0 -26 5z" />
    <glyph glyph-name="Oacute" unicode="&#xd3;" horiz-adv-x="1029" 
d="M530 -5h-31q-105 0 -169 3.5t-118.5 17.5t-81.5 34.5t-46.5 61.5t-24.5 91t-5 130v14q0 80 5 130t24.5 91t46.5 61.5t81.5 34.5t118.5 17.5t169 3.5h31q105 0 169 -3.5t118.5 -17.5t81.5 -34.5t46.5 -61.5t24.5 -91t5 -130v-14q0 -80 -5 -130t-24.5 -91t-46.5 -61.5
t-81.5 -34.5t-118.5 -17.5t-169 -3.5zM506 152h17q65 0 101 1.5t67.5 9.5t44.5 17.5t22.5 34t11 49.5t1.5 74v5q0 49 -1.5 75t-11 50.5t-22.5 34t-44.5 17.5t-67.5 9.5t-101 1.5h-17q-65 0 -101 -1.5t-67.5 -9.5t-44.5 -17.5t-22.5 -34t-11 -50.5t-1.5 -75v-5q0 -49 1.5 -74
t11 -49.5t22.5 -34t44.5 -17.5t67.5 -9.5t101 -1.5zM640 775l-169 -47q-17 -5 -26 -5q-17 0 -29 22q-8 16 -8 23q0 16 24 29l145 77q24 12 36 12q21 0 35 -26l13 -24q9 -16 9 -28q0 -25 -30 -33z" />
    <glyph glyph-name="Ocircumflex" unicode="&#xd4;" horiz-adv-x="1029" 
d="M530 -5h-31q-105 0 -169 3.5t-118.5 17.5t-81.5 34.5t-46.5 61.5t-24.5 91t-5 130v14q0 80 5 130t24.5 91t46.5 61.5t81.5 34.5t118.5 17.5t169 3.5h31q105 0 169 -3.5t118.5 -17.5t81.5 -34.5t46.5 -61.5t24.5 -91t5 -130v-14q0 -80 -5 -130t-24.5 -91t-46.5 -61.5
t-81.5 -34.5t-118.5 -17.5t-169 -3.5zM506 152h17q65 0 101 1.5t67.5 9.5t44.5 17.5t22.5 34t11 49.5t1.5 74v5q0 49 -1.5 75t-11 50.5t-22.5 34t-44.5 17.5t-67.5 9.5t-101 1.5h-17q-65 0 -101 -1.5t-67.5 -9.5t-44.5 -17.5t-22.5 -34t-11 -50.5t-1.5 -75v-5q0 -49 1.5 -74
t11 -49.5t22.5 -34t44.5 -17.5t67.5 -9.5t101 -1.5zM515 784q-12 0 -27 -6l-81 -34q-17 -6 -25 -6q-19 0 -31 21q-7 13 -7 24q0 15 21 28l119 74q15 9 31 9t31 -9l119 -74q21 -13 21 -28q0 -11 -7 -24q-12 -21 -31 -21q-8 0 -25 6l-81 34q-15 6 -27 6z" />
    <glyph glyph-name="Otilde" unicode="&#xd5;" horiz-adv-x="1029" 
d="M530 -5h-31q-105 0 -169 3.5t-118.5 17.5t-81.5 34.5t-46.5 61.5t-24.5 91t-5 130v14q0 80 5 130t24.5 91t46.5 61.5t81.5 34.5t118.5 17.5t169 3.5h31q105 0 169 -3.5t118.5 -17.5t81.5 -34.5t46.5 -61.5t24.5 -91t5 -130v-14q0 -80 -5 -130t-24.5 -91t-46.5 -61.5
t-81.5 -34.5t-118.5 -17.5t-169 -3.5zM506 152h17q65 0 101 1.5t67.5 9.5t44.5 17.5t22.5 34t11 49.5t1.5 74v5q0 49 -1.5 75t-11 50.5t-22.5 34t-44.5 17.5t-67.5 9.5t-101 1.5h-17q-65 0 -101 -1.5t-67.5 -9.5t-44.5 -17.5t-22.5 -34t-11 -50.5t-1.5 -75v-5q0 -49 1.5 -74
t11 -49.5t22.5 -34t44.5 -17.5t67.5 -9.5t101 -1.5zM449 882q30 0 74.5 -23.5t61.5 -23.5q22 0 33 23q9 21 23 21q17 0 33 -8t16 -22q0 -4 -2 -14q-23 -101 -108 -101q-30 0 -74 23.5t-61 23.5q-24 0 -35 -23q-9 -21 -23 -21q-15 0 -31 8t-16 22q0 4 2 14q23 101 107 101z
" />
    <glyph glyph-name="Odieresis" unicode="&#xd6;" horiz-adv-x="1029" 
d="M530 -5h-31q-105 0 -169 3.5t-118.5 17.5t-81.5 34.5t-46.5 61.5t-24.5 91t-5 130v14q0 80 5 130t24.5 91t46.5 61.5t81.5 34.5t118.5 17.5t169 3.5h31q105 0 169 -3.5t118.5 -17.5t81.5 -34.5t46.5 -61.5t24.5 -91t5 -130v-14q0 -80 -5 -130t-24.5 -91t-46.5 -61.5
t-81.5 -34.5t-118.5 -17.5t-169 -3.5zM506 152h17q65 0 101 1.5t67.5 9.5t44.5 17.5t22.5 34t11 49.5t1.5 74v5q0 49 -1.5 75t-11 50.5t-22.5 34t-44.5 17.5t-67.5 9.5t-101 1.5h-17q-65 0 -101 -1.5t-67.5 -9.5t-44.5 -17.5t-22.5 -34t-11 -50.5t-1.5 -75v-5q0 -49 1.5 -74
t11 -49.5t22.5 -34t44.5 -17.5t67.5 -9.5t101 -1.5zM468 814v-19q0 -60 -53 -60h-62q-54 0 -54 62v19q0 60 53 60h62q54 0 54 -62zM731 814v-19q0 -60 -53 -60h-62q-54 0 -54 62v19q0 60 53 60h62q54 0 54 -62z" />
    <glyph glyph-name="multiply" unicode="&#xd7;" horiz-adv-x="682" 
d="M439 299q0 -8 9 -17l127 -127q23 -23 23 -44q0 -23 -25.5 -47t-47.5 -24q-21 0 -43 22l-126 127q-9 9 -17 9t-17 -9l-127 -127q-22 -22 -43 -22t-46.5 24t-25.5 46q0 21 23 44l127 126q9 9 9 17t-9 17l-127 127q-23 23 -23 44q0 23 25.5 47t47.5 24q21 0 43 -22l126 -127
q9 -9 17 -9t17 9l127 127q22 22 43 22t46.5 -24t25.5 -46q0 -21 -23 -44l-127 -126q-9 -9 -9 -17z" />
    <glyph glyph-name="Oslash" unicode="&#xd8;" horiz-adv-x="1029" 
d="M285 250l393 252q9 6 9 14q0 10 -19 13q-21 4 -70 4h-92q-66 0 -102.5 -1.5t-68.5 -9.5t-45 -17.5t-23 -34.5t-11.5 -51t-1.5 -76v-25q0 -44 4 -61q3 -13 11 -13q7 0 16 6zM743 431l-392 -252q-9 -6 -9 -12q0 -9 19 -12q21 -4 62 -4h100q65 0 102 1.5t69 9.5t45 17.5
t23 34t11.5 50t1.5 74.5v24q0 45 -4 62q-3 13 -12 13q-7 0 -16 -6zM499 685h58q126 0 197 -8.5t115 -29.5q17 -10 24 -10q10 0 25 10l24 17q23 16 39 16t31 -20.5t15 -37.5q0 -20 -20 -32l-39 -24q-12 -7 -12 -19q0 -3 5 -21.5t9.5 -64t4.5 -114.5v-14q0 -80 -5 -130
t-24.5 -91t-46.5 -61.5t-81.5 -34.5t-118.5 -17.5t-169 -3.5h-58q-126 0 -197 8.5t-115 29.5q-17 10 -24 10q-10 0 -25 -10l-28 -19q-23 -16 -39 -16t-31 20.5t-15 37.5q0 20 20 32l44 27q12 7 12 18q0 3 -5 21.5t-10 64t-5 114.5v14q0 80 5 130t24.5 91t46.5 61.5
t81.5 34.5t118.5 17.5t169 3.5z" />
    <glyph glyph-name="Ugrave" unicode="&#xd9;" horiz-adv-x="979" 
d="M708 292v328q0 60 53 60h97q53 0 53 -60v-390q0 -53 -8.5 -90t-31 -63.5t-51.5 -42t-79.5 -24.5t-104.5 -12t-137 -3h-20q-84 0 -137 3t-104 11.5t-79.5 24t-51 41.5t-31 64t-8.5 91v390q0 60 53 60h97q53 0 53 -60v-328q0 -33 3 -55t13 -38t22.5 -24.5t39 -13.5t53.5 -6
t74 -1h31q47 0 73.5 1.5t52.5 6.5t37.5 13t22 24t13 38t2.5 55zM535 728l-169 47q-30 8 -30 33q0 12 9 28l13 24q14 26 35 26q12 0 36 -12l145 -77q24 -13 24 -29q0 -7 -8 -23q-12 -22 -29 -22q-9 0 -26 5z" />
    <glyph glyph-name="Uacute" unicode="&#xda;" horiz-adv-x="979" 
d="M708 292v328q0 60 53 60h97q53 0 53 -60v-390q0 -53 -8.5 -90t-31 -63.5t-51.5 -42t-79.5 -24.5t-104.5 -12t-137 -3h-20q-84 0 -137 3t-104 11.5t-79.5 24t-51 41.5t-31 64t-8.5 91v390q0 60 53 60h97q53 0 53 -60v-328q0 -33 3 -55t13 -38t22.5 -24.5t39 -13.5t53.5 -6
t74 -1h31q47 0 73.5 1.5t52.5 6.5t37.5 13t22 24t13 38t2.5 55zM614 775l-169 -47q-17 -5 -26 -5q-17 0 -29 22q-8 16 -8 23q0 16 24 29l145 77q24 12 36 12q21 0 35 -26l13 -24q9 -16 9 -28q0 -25 -30 -33z" />
    <glyph glyph-name="Ucircumflex" unicode="&#xdb;" horiz-adv-x="979" 
d="M708 292v328q0 60 53 60h97q53 0 53 -60v-390q0 -53 -8.5 -90t-31 -63.5t-51.5 -42t-79.5 -24.5t-104.5 -12t-137 -3h-20q-84 0 -137 3t-104 11.5t-79.5 24t-51 41.5t-31 64t-8.5 91v390q0 60 53 60h97q53 0 53 -60v-328q0 -33 3 -55t13 -38t22.5 -24.5t39 -13.5t53.5 -6
t74 -1h31q47 0 73.5 1.5t52.5 6.5t37.5 13t22 24t13 38t2.5 55zM489 784q-12 0 -27 -6l-81 -34q-17 -6 -25 -6q-19 0 -31 21q-7 13 -7 24q0 15 21 28l119 74q15 9 31 9t31 -9l119 -74q21 -13 21 -28q0 -11 -7 -24q-12 -21 -31 -21q-8 0 -25 6l-81 34q-15 6 -27 6z" />
    <glyph glyph-name="Udieresis" unicode="&#xdc;" horiz-adv-x="979" 
d="M708 292v328q0 60 53 60h97q53 0 53 -60v-390q0 -53 -8.5 -90t-31 -63.5t-51.5 -42t-79.5 -24.5t-104.5 -12t-137 -3h-20q-84 0 -137 3t-104 11.5t-79.5 24t-51 41.5t-31 64t-8.5 91v390q0 60 53 60h97q53 0 53 -60v-328q0 -33 3 -55t13 -38t22.5 -24.5t39 -13.5t53.5 -6
t74 -1h31q47 0 73.5 1.5t52.5 6.5t37.5 13t22 24t13 38t2.5 55zM442 814v-19q0 -60 -53 -60h-62q-54 0 -54 62v19q0 60 53 60h62q54 0 54 -62zM705 814v-19q0 -60 -53 -60h-62q-54 0 -54 62v19q0 60 53 60h62q54 0 54 -62z" />
    <glyph glyph-name="Yacute" unicode="&#xdd;" horiz-adv-x="950" 
d="M577 213v-153q0 -60 -53 -60h-96q-54 0 -54 62v150q0 23 -14 40l-293 332q-27 29 -27 51q0 21 14.5 33t40.5 12h91q40 0 67 -30l203 -231q14 -15 23 -15t23 15l197 231q25 30 67 30h90q25 0 39.5 -12t14.5 -33q0 -23 -26 -51l-294 -332q-13 -14 -13 -39zM613 775
l-169 -47q-17 -5 -26 -5q-17 0 -29 22q-8 16 -8 23q0 16 24 29l145 77q24 12 36 12q21 0 35 -26l13 -24q9 -16 9 -28q0 -25 -30 -33z" />
    <glyph glyph-name="Thorn" unicode="&#xde;" horiz-adv-x="903" 
d="M504 448h-195q-39 0 -39 -33v-134q0 -35 39 -35h195q78 0 110.5 7.5t43 25.5t10.5 63v9q0 34 -4 51t-22 28.5t-48.5 14.5t-89.5 3zM305 598h233q84 0 137 -6t93 -20.5t60 -43.5t29 -69.5t9 -103.5v-18q0 -63 -9 -103.5t-29 -69.5t-60 -43.5t-93 -20.5t-137 -6h-229
q-36 0 -39 -28v-6q0 -60 -53 -60h-93q-54 0 -54 62v558q0 60 53 60h93q54 0 54 -52v-4q0 -26 35 -26z" />
    <glyph glyph-name="germandbls" unicode="&#xdf;" horiz-adv-x="769" 
d="M443 341h-4q-53 0 -53 48v10q0 48 52 48h4q45 0 45 53v9q0 32 -20 44t-85 12h-34q-61 0 -79 -15.5t-18 -67.5v-422q0 -60 -53 -60h-79q-54 0 -54 62v416q0 116 55 161.5t209 45.5h72q150 0 204.5 -33.5t54.5 -111.5v-13q0 -69 -49 -97q-17 -10 -17 -18q0 -11 16 -14
q63 -13 88 -54t25 -125v-11q0 -122 -49 -166.5t-176 -44.5h-33q-103 0 -136 12t-33 52v25q0 26 14.5 34.5t45.5 8.5h106q46 0 63 17.5t17 63.5v36q0 55 -19.5 75t-79.5 20z" />
    <glyph glyph-name="agrave" unicode="&#xe0;" horiz-adv-x="737" 
d="M550 -3h-261q-148 0 -194 29t-46 117v22q0 82 47.5 109t189.5 27h159q28 0 38.5 4t10.5 17q0 25 -21 31.5t-94 6.5h-243q-60 0 -60 50v9q0 22 10.5 34.5t46.5 19.5t85 8.5t146 1.5h29q96 0 149 -8t85.5 -35.5t42 -69t9.5 -117.5v-153q0 -103 -129 -103zM358 108h15
q82 0 103.5 9t21.5 38v6q0 28 -20.5 35.5t-104.5 7.5h-15q-86 0 -106.5 -7t-20.5 -36v-6q0 -30 21.5 -38.5t105.5 -8.5zM406 538l-162 64q-28 10 -28 33q0 12 12 30l15 22q15 23 35 23q14 0 37 -16l137 -91q20 -14 20 -28q0 -11 -9 -24q-13 -20 -30 -20q-8 0 -27 7z" />
    <glyph glyph-name="aacute" unicode="&#xe1;" horiz-adv-x="737" 
d="M550 -3h-261q-148 0 -194 29t-46 117v22q0 82 47.5 109t189.5 27h159q28 0 38.5 4t10.5 17q0 25 -21 31.5t-94 6.5h-243q-60 0 -60 50v9q0 22 10.5 34.5t46.5 19.5t85 8.5t146 1.5h29q96 0 149 -8t85.5 -35.5t42 -69t9.5 -117.5v-153q0 -103 -129 -103zM358 108h15
q82 0 103.5 9t21.5 38v6q0 28 -20.5 35.5t-104.5 7.5h-15q-86 0 -106.5 -7t-20.5 -36v-6q0 -30 21.5 -38.5t105.5 -8.5zM496 602l-162 -64q-19 -7 -27 -7q-17 0 -30 20q-9 13 -9 24q0 14 20 28l137 91q23 16 37 16q20 0 35 -23l15 -22q12 -18 12 -30q0 -22 -28 -33z" />
    <glyph glyph-name="acircumflex" unicode="&#xe2;" horiz-adv-x="737" 
d="M550 -3h-261q-148 0 -194 29t-46 117v22q0 82 47.5 109t189.5 27h159q28 0 38.5 4t10.5 17q0 25 -21 31.5t-94 6.5h-243q-60 0 -60 50v9q0 22 10.5 34.5t46.5 19.5t85 8.5t146 1.5h29q96 0 149 -8t85.5 -35.5t42 -69t9.5 -117.5v-153q0 -103 -129 -103zM358 108h15
q82 0 103.5 9t21.5 38v6q0 28 -20.5 35.5t-104.5 7.5h-15q-86 0 -106.5 -7t-20.5 -36v-6q0 -30 21.5 -38.5t105.5 -8.5zM369 595q-11 0 -27 -8l-76 -37q-15 -7 -27 -7q-17 0 -30 20q-9 13 -9 24q0 14 20 28l118 82q15 10 31 10t31 -10l118 -82q20 -14 20 -28q0 -11 -9 -24
q-13 -20 -30 -20q-12 0 -27 7l-76 37q-16 8 -27 8z" />
    <glyph glyph-name="atilde" unicode="&#xe3;" horiz-adv-x="737" 
d="M550 -3h-261q-148 0 -194 29t-46 117v22q0 82 47.5 109t189.5 27h159q28 0 38.5 4t10.5 17q0 25 -21 31.5t-94 6.5h-243q-60 0 -60 50v9q0 22 10.5 34.5t46.5 19.5t85 8.5t146 1.5h29q96 0 149 -8t85.5 -35.5t42 -69t9.5 -117.5v-153q0 -103 -129 -103zM358 108h15
q82 0 103.5 9t21.5 38v6q0 28 -20.5 35.5t-104.5 7.5h-15q-86 0 -106.5 -7t-20.5 -36v-6q0 -30 21.5 -38.5t105.5 -8.5zM303 695q30 0 74.5 -23.5t61.5 -23.5q22 0 33 23q9 21 23 21q17 0 33 -8t16 -22q0 -4 -2 -14q-23 -101 -108 -101q-30 0 -74 23.5t-61 23.5
q-24 0 -35 -23q-9 -21 -23 -21q-15 0 -31 8t-16 22q0 4 2 14q23 101 107 101z" />
    <glyph glyph-name="adieresis" unicode="&#xe4;" horiz-adv-x="737" 
d="M550 -3h-261q-148 0 -194 29t-46 117v22q0 82 47.5 109t189.5 27h159q28 0 38.5 4t10.5 17q0 25 -21 31.5t-94 6.5h-243q-60 0 -60 50v9q0 22 10.5 34.5t46.5 19.5t85 8.5t146 1.5h29q96 0 149 -8t85.5 -35.5t42 -69t9.5 -117.5v-153q0 -103 -129 -103zM358 108h15
q82 0 103.5 9t21.5 38v6q0 28 -20.5 35.5t-104.5 7.5h-15q-86 0 -106.5 -7t-20.5 -36v-6q0 -30 21.5 -38.5t105.5 -8.5zM322 618v-19q0 -60 -53 -60h-62q-54 0 -54 62v19q0 60 53 60h62q54 0 54 -62zM585 618v-19q0 -60 -53 -60h-62q-54 0 -54 62v19q0 60 53 60h62
q54 0 54 -62z" />
    <glyph glyph-name="aring" unicode="&#xe5;" horiz-adv-x="737" 
d="M550 -3h-261q-148 0 -194 29t-46 117v22q0 82 47.5 109t189.5 27h159q28 0 38.5 4t10.5 17q0 25 -21 31.5t-94 6.5h-243q-60 0 -60 50v9q0 22 10.5 34.5t46.5 19.5t85 8.5t146 1.5h29q96 0 149 -8t85.5 -35.5t42 -69t9.5 -117.5v-153q0 -103 -129 -103zM358 108h15
q82 0 103.5 9t21.5 38v6q0 28 -20.5 35.5t-104.5 7.5h-15q-86 0 -106.5 -7t-20.5 -36v-6q0 -30 21.5 -38.5t105.5 -8.5zM373 535h-6q-77 0 -105.5 19t-28.5 68v6q0 49 28 67.5t106 18.5h6q78 0 106 -18.5t28 -67.5v-6q0 -49 -28.5 -68t-105.5 -19zM367 587h6q43 0 57.5 7.5
t14.5 27.5v6q0 19 -14.5 26t-57.5 7h-6q-43 0 -57.5 -7t-14.5 -26v-6q0 -20 14.5 -27.5t57.5 -7.5z" />
    <glyph glyph-name="ae" unicode="&#xe6;" horiz-adv-x="1161" 
d="M710 300h195q24 0 31 7t7 22q0 24 -19.5 33.5t-71.5 9.5h-142q-42 0 -42 -27v-18q0 -27 42 -27zM364 483h448q49 0 77.5 -0.5t63.5 -3t54 -8t41 -14.5t33 -22.5t21 -33.5t13.5 -46.5t3.5 -60.5q0 -49 -23.5 -71t-71.5 -22h-315q-25 0 -33.5 -6t-8.5 -20v-25
q0 -14 9 -20.5t34 -6.5h339q60 0 60 -50v-14q0 -43 -43.5 -52.5t-223.5 -9.5h-553q-101 0 -151.5 13t-69.5 42.5t-19 89.5v24q0 81 47.5 108t189.5 27h163q26 0 35.5 5.5t9.5 19.5v8q0 18 -11 23t-44 5h-303q-60 0 -60 50v7q0 22 10.5 34.5t46.5 19.5t85 8.5t146 1.5z
M358 109h15q85 0 105 6.5t20 33.5v13q0 27 -20 33.5t-105 6.5h-15q-88 0 -107.5 -6t-19.5 -34v-7q0 -20 8 -29t34 -13t85 -4z" />
    <glyph glyph-name="ccedilla" unicode="&#xe7;" horiz-adv-x="729" 
d="M232 247v-11q0 -55 31.5 -75.5t115.5 -20.5h239q60 0 60 -50v-25q0 -23 -8 -35t-38 -20.5t-79 -10.5t-142 -2h-41q-65 0 -109 3t-83 12.5t-62 25.5t-40 42.5t-23.5 64t-6.5 89.5v10q0 77 16.5 124t58.5 72.5t98 34t151 8.5h41q64 0 102.5 -0.5t71.5 -3.5t48.5 -7
t27 -11.5t14.5 -17t3 -25.5v-24q0 -50 -60 -50h-239q-84 0 -115.5 -21t-31.5 -76zM431 -128l-162 -64q-19 -7 -27 -7q-17 0 -30 20q-9 13 -9 24q0 14 20 28l137 91q23 16 37 16q20 0 35 -23l15 -22q12 -18 12 -30q0 -22 -28 -33z" />
    <glyph glyph-name="egrave" unicode="&#xe8;" horiz-adv-x="720" 
d="M402 538l-162 64q-28 10 -28 33q0 12 12 30l15 22q15 23 35 23q14 0 37 -16l137 -91q20 -14 20 -28q0 -11 -9 -24q-13 -20 -30 -20q-8 0 -27 7zM266 298h198q24 0 31 7t7 22q0 24 -29.5 33.5t-114.5 9.5q-76 0 -103.5 -10.5t-27.5 -38.5q0 -13 7.5 -18t31.5 -5zM401 -3
h-41q-65 0 -108.5 3t-81 12.5t-59.5 25t-37.5 42.5t-21.5 63.5t-6 89.5v9q0 76 15.5 123.5t53.5 73.5t88.5 35t133.5 9h34q55 0 87.5 -1t70 -5t57.5 -12t40.5 -21.5t30 -34t15.5 -49t6 -67.5q0 -50 -23.5 -72.5t-71.5 -22.5h-308q-27 0 -38 -6t-11 -22q0 -18 8.5 -25.5
t38 -11.5t96.5 -4h239q60 0 60 -50v-18q0 -23 -7.5 -34.5t-39 -19t-78 -9t-142.5 -1.5z" />
    <glyph glyph-name="eacute" unicode="&#xe9;" horiz-adv-x="720" 
d="M492 602l-162 -64q-19 -7 -27 -7q-17 0 -30 20q-9 13 -9 24q0 14 20 28l137 91q23 16 37 16q20 0 35 -23l15 -22q12 -18 12 -30q0 -22 -28 -33zM266 298h198q24 0 31 7t7 22q0 24 -29.5 33.5t-114.5 9.5q-76 0 -103.5 -10.5t-27.5 -38.5q0 -13 7.5 -18t31.5 -5zM401 -3
h-41q-65 0 -108.5 3t-81 12.5t-59.5 25t-37.5 42.5t-21.5 63.5t-6 89.5v9q0 76 15.5 123.5t53.5 73.5t88.5 35t133.5 9h34q55 0 87.5 -1t70 -5t57.5 -12t40.5 -21.5t30 -34t15.5 -49t6 -67.5q0 -50 -23.5 -72.5t-71.5 -22.5h-308q-27 0 -38 -6t-11 -22q0 -18 8.5 -25.5
t38 -11.5t96.5 -4h239q60 0 60 -50v-18q0 -23 -7.5 -34.5t-39 -19t-78 -9t-142.5 -1.5z" />
    <glyph glyph-name="ecircumflex" unicode="&#xea;" horiz-adv-x="720" 
d="M365 595q-11 0 -27 -8l-76 -37q-15 -7 -27 -7q-17 0 -30 20q-9 13 -9 24q0 14 20 28l118 82q15 10 31 10t31 -10l118 -82q20 -14 20 -28q0 -11 -9 -24q-13 -20 -30 -20q-12 0 -27 7l-76 37q-16 8 -27 8zM266 298h198q24 0 31 7t7 22q0 24 -29.5 33.5t-114.5 9.5
q-76 0 -103.5 -10.5t-27.5 -38.5q0 -13 7.5 -18t31.5 -5zM401 -3h-41q-65 0 -108.5 3t-81 12.5t-59.5 25t-37.5 42.5t-21.5 63.5t-6 89.5v9q0 76 15.5 123.5t53.5 73.5t88.5 35t133.5 9h34q55 0 87.5 -1t70 -5t57.5 -12t40.5 -21.5t30 -34t15.5 -49t6 -67.5
q0 -50 -23.5 -72.5t-71.5 -22.5h-308q-27 0 -38 -6t-11 -22q0 -18 8.5 -25.5t38 -11.5t96.5 -4h239q60 0 60 -50v-18q0 -23 -7.5 -34.5t-39 -19t-78 -9t-142.5 -1.5z" />
    <glyph glyph-name="edieresis" unicode="&#xeb;" horiz-adv-x="720" 
d="M318 618v-19q0 -60 -53 -60h-62q-54 0 -54 62v19q0 60 53 60h62q54 0 54 -62zM581 618v-19q0 -60 -53 -60h-62q-54 0 -54 62v19q0 60 53 60h62q54 0 54 -62zM266 298h198q24 0 31 7t7 22q0 24 -29.5 33.5t-114.5 9.5q-76 0 -103.5 -10.5t-27.5 -38.5q0 -13 7.5 -18
t31.5 -5zM401 -3h-41q-65 0 -108.5 3t-81 12.5t-59.5 25t-37.5 42.5t-21.5 63.5t-6 89.5v9q0 76 15.5 123.5t53.5 73.5t88.5 35t133.5 9h34q55 0 87.5 -1t70 -5t57.5 -12t40.5 -21.5t30 -34t15.5 -49t6 -67.5q0 -50 -23.5 -72.5t-71.5 -22.5h-308q-27 0 -38 -6t-11 -22
q0 -18 8.5 -25.5t38 -11.5t96.5 -4h239q60 0 60 -50v-18q0 -23 -7.5 -34.5t-39 -19t-78 -9t-142.5 -1.5z" />
    <glyph glyph-name="igrave" unicode="&#xec;" horiz-adv-x="316" 
d="M251 418v-358q0 -60 -53 -60h-79q-54 0 -54 62v358q0 60 53 60h79q54 0 54 -62zM178 538l-162 64q-28 10 -28 33q0 12 12 30l15 22q15 23 35 23q14 0 37 -16l137 -91q20 -14 20 -28q0 -11 -9 -24q-13 -20 -30 -20q-8 0 -27 7z" />
    <glyph glyph-name="iacute" unicode="&#xed;" horiz-adv-x="316" 
d="M251 418v-358q0 -60 -53 -60h-79q-54 0 -54 62v358q0 60 53 60h79q54 0 54 -62zM302 602l-162 -64q-19 -7 -27 -7q-17 0 -30 20q-9 13 -9 24q0 14 20 28l137 91q23 16 37 16q20 0 35 -23l15 -22q12 -18 12 -30q0 -22 -28 -33z" />
    <glyph glyph-name="icircumflex" unicode="&#xee;" horiz-adv-x="316" 
d="M251 418v-358q0 -60 -53 -60h-79q-54 0 -54 62v358q0 60 53 60h79q54 0 54 -62zM158 595q-11 0 -27 -8l-76 -37q-15 -7 -27 -7q-17 0 -30 20q-9 13 -9 24q0 14 20 28l118 82q15 10 31 10t31 -10l118 -82q20 -14 20 -28q0 -11 -9 -24q-13 -20 -30 -20q-12 0 -27 7l-76 37
q-16 8 -27 8z" />
    <glyph glyph-name="idieresis" unicode="&#xef;" horiz-adv-x="316" 
d="M117 618v-19q0 -60 -53 -60h-62q-54 0 -54 62v19q0 60 53 60h62q54 0 54 -62zM368 618v-19q0 -60 -53 -60h-62q-54 0 -54 62v19q0 60 53 60h62q54 0 54 -62zM251 418v-358q0 -60 -53 -60h-79q-54 0 -54 62v358q0 60 53 60h79q54 0 54 -62z" />
    <glyph glyph-name="eth" unicode="&#xf0;" horiz-adv-x="742" 
d="M273 681q13 0 19.5 5.5t18.5 31.5q11 24 30 24q20 0 39 -8.5t19 -22.5q0 -8 -6.5 -21t-6.5 -19q0 -9 9 -10q90 -16 150 -51t92.5 -90.5t45.5 -120t13 -152.5v-18q0 -93 -25 -141t-89 -69.5t-189 -21.5h-45q-101 0 -157 8t-90.5 35.5t-44.5 68.5t-10 117v8
q0 128 45.5 170.5t165.5 42.5h183q27 0 37 5.5t10 18.5q0 15 -20.5 31t-51.5 26q-43 15 -73 15q-12 0 -17.5 -6t-18.5 -35q-11 -24 -30 -24q-20 0 -39 8.5t-19 22.5q0 8 6.5 22t6.5 20q0 9 -9 10q-18 3 -58 3q-34 0 -34 30q0 4 2 14l11 43q6 21 14 29t27 8q15 0 51 -3.5
t38 -3.5zM357 125h27q85 0 107.5 17t22.5 73v15q0 58 -22.5 74.5t-107.5 16.5h-27q-86 0 -108 -16t-22 -74v-16q0 -58 22 -74t108 -16z" />
    <glyph glyph-name="ntilde" unicode="&#xf1;" horiz-adv-x="778" 
d="M251 299v-239q0 -60 -53 -60h-80q-53 0 -53 60v320q0 103 129 103h211q71 0 115.5 -2.5t82.5 -12t57.5 -24t33.5 -41.5t18 -61t4 -87v-195q0 -60 -53 -60h-80q-53 0 -53 60v154q0 91 -25 114.5t-117 23.5h-77q-60 0 -60 -53zM328 695q30 0 74.5 -23.5t61.5 -23.5
q22 0 33 23q9 21 23 21q17 0 33 -8t16 -22q0 -4 -2 -14q-23 -101 -108 -101q-30 0 -74 23.5t-61 23.5q-24 0 -35 -23q-9 -21 -23 -21q-15 0 -31 8t-16 22q0 4 2 14q23 101 107 101z" />
    <glyph glyph-name="ograve" unicode="&#xf2;" horiz-adv-x="751" 
d="M359 132h33q87 0 109 18.5t22 88.5v5q0 70 -22 88.5t-109 18.5h-33q-87 0 -109 -18.5t-22 -88.5v-5q0 -70 22 -88.5t109 -18.5zM398 -3h-45q-66 0 -109 3t-79.5 13t-57.5 26t-35.5 44t-20 65t-5.5 91v5q0 65 9.5 106t28 68.5t57 41t86 18.5t126.5 5h45q79 0 127 -5
t86.5 -18.5t57 -41t27.5 -68.5t9 -106v-5q0 -54 -5.5 -91t-20 -65t-35.5 -44t-57.5 -26t-79.5 -13t-109 -3zM413 538l-162 64q-28 10 -28 33q0 12 12 30l15 22q15 23 35 23q14 0 37 -16l137 -91q20 -14 20 -28q0 -11 -9 -24q-13 -20 -30 -20q-8 0 -27 7z" />
    <glyph glyph-name="oacute" unicode="&#xf3;" horiz-adv-x="751" 
d="M359 132h33q87 0 109 18.5t22 88.5v5q0 70 -22 88.5t-109 18.5h-33q-87 0 -109 -18.5t-22 -88.5v-5q0 -70 22 -88.5t109 -18.5zM398 -3h-45q-66 0 -109 3t-79.5 13t-57.5 26t-35.5 44t-20 65t-5.5 91v5q0 65 9.5 106t28 68.5t57 41t86 18.5t126.5 5h45q79 0 127 -5
t86.5 -18.5t57 -41t27.5 -68.5t9 -106v-5q0 -54 -5.5 -91t-20 -65t-35.5 -44t-57.5 -26t-79.5 -13t-109 -3zM503 602l-162 -64q-19 -7 -27 -7q-17 0 -30 20q-9 13 -9 24q0 14 20 28l137 91q23 16 37 16q20 0 35 -23l15 -22q12 -18 12 -30q0 -22 -28 -33z" />
    <glyph glyph-name="ocircumflex" unicode="&#xf4;" horiz-adv-x="751" 
d="M376 595q-11 0 -27 -8l-76 -37q-15 -7 -27 -7q-17 0 -30 20q-9 13 -9 24q0 14 20 28l118 82q15 10 31 10t31 -10l118 -82q20 -14 20 -28q0 -11 -9 -24q-13 -20 -30 -20q-12 0 -27 7l-76 37q-16 8 -27 8zM359 132h33q87 0 109 18.5t22 88.5v5q0 70 -22 88.5t-109 18.5h-33
q-87 0 -109 -18.5t-22 -88.5v-5q0 -70 22 -88.5t109 -18.5zM398 -3h-45q-66 0 -109 3t-79.5 13t-57.5 26t-35.5 44t-20 65t-5.5 91v5q0 65 9.5 106t28 68.5t57 41t86 18.5t126.5 5h45q79 0 127 -5t86.5 -18.5t57 -41t27.5 -68.5t9 -106v-5q0 -54 -5.5 -91t-20 -65t-35.5 -44
t-57.5 -26t-79.5 -13t-109 -3z" />
    <glyph glyph-name="otilde" unicode="&#xf5;" horiz-adv-x="751" 
d="M359 132h33q87 0 109 18.5t22 88.5v5q0 70 -22 88.5t-109 18.5h-33q-87 0 -109 -18.5t-22 -88.5v-5q0 -70 22 -88.5t109 -18.5zM398 -3h-45q-66 0 -109 3t-79.5 13t-57.5 26t-35.5 44t-20 65t-5.5 91v5q0 65 9.5 106t28 68.5t57 41t86 18.5t126.5 5h45q79 0 127 -5
t86.5 -18.5t57 -41t27.5 -68.5t9 -106v-5q0 -54 -5.5 -91t-20 -65t-35.5 -44t-57.5 -26t-79.5 -13t-109 -3zM310 695q30 0 74.5 -23.5t61.5 -23.5q22 0 33 23q9 21 23 21q17 0 33 -8t16 -22q0 -4 -2 -14q-23 -101 -108 -101q-30 0 -74 23.5t-61 23.5q-24 0 -35 -23
q-9 -21 -23 -21q-15 0 -31 8t-16 22q0 4 2 14q23 101 107 101z" />
    <glyph glyph-name="odieresis" unicode="&#xf6;" horiz-adv-x="751" 
d="M359 132h33q87 0 109 18.5t22 88.5v5q0 70 -22 88.5t-109 18.5h-33q-87 0 -109 -18.5t-22 -88.5v-5q0 -70 22 -88.5t109 -18.5zM398 -3h-45q-66 0 -109 3t-79.5 13t-57.5 26t-35.5 44t-20 65t-5.5 91v5q0 65 9.5 106t28 68.5t57 41t86 18.5t126.5 5h45q79 0 127 -5
t86.5 -18.5t57 -41t27.5 -68.5t9 -106v-5q0 -54 -5.5 -91t-20 -65t-35.5 -44t-57.5 -26t-79.5 -13t-109 -3zM329 618v-19q0 -60 -53 -60h-62q-54 0 -54 62v19q0 60 53 60h62q54 0 54 -62zM592 618v-19q0 -60 -53 -60h-62q-54 0 -54 62v19q0 60 53 60h62q54 0 54 -62z" />
    <glyph glyph-name="divide" unicode="&#xf7;" horiz-adv-x="682" 
d="M426 503q0 -35 -25.5 -60t-60.5 -25t-61 25t-26 60q0 34 26 59t61 25t60.5 -25t25.5 -59zM426 98q0 -35 -25.5 -60t-60.5 -25t-61 25.5t-26 59.5t26 59t61 25t60.5 -25t25.5 -59zM120 363h442q60 0 60 -53v-24q0 -53 -60 -53h-442q-60 0 -60 53v24q0 53 60 53z" />
    <glyph glyph-name="oslash" unicode="&#xf8;" horiz-adv-x="751" 
d="M245 206l197 125q12 8 12 15q0 9 -19 10q-15 1 -43 1h-37q-87 0 -111 -19.5t-24 -90.5v-6q0 -13 2 -31q1 -10 9 -10q5 0 14 6zM506 278l-197 -125q-12 -8 -12 -15q0 -9 19 -10q15 -1 43 -1h37q87 0 111 19.5t24 90.5v6q0 22 -1 31q-1 10 -10 10q-5 0 -14 -6zM705 245v-5
q0 -54 -5.5 -91.5t-20 -65.5t-35.5 -44t-57.5 -26t-79.5 -13t-109 -3h-45q-143 0 -196 21q-18 6 -21 6q-9 0 -27 -15l-17 -13q-25 -19 -38 -19t-28 16.5t-15 31.5t19 29l30 21q10 7 10 16q0 4 -6 19.5t-12 48t-6 78.5v6q0 65 9.5 106.5t28 69t57 41t86 18.5t126.5 5h45
q145 0 198 -21q18 -6 22 -6q7 0 25 13l15 12q21 17 36 17q13 0 28 -16.5t15 -31.5t-17 -27l-28 -20q-10 -8 -10 -16q0 -4 6 -19.5t11.5 -47t5.5 -75.5z" />
    <glyph glyph-name="ugrave" unicode="&#xf9;" horiz-adv-x="773" 
d="M522 182v238q0 60 53 60h80q53 0 53 -60v-320q0 -103 -129 -103h-211q-71 0 -115.5 2.5t-82.5 12t-57.5 24t-33.5 41.5t-18 61t-4 87v195q0 60 53 60h80q53 0 53 -60v-153q0 -91 25 -114.5t117 -23.5h77q60 0 60 53zM421 538l-162 64q-28 10 -28 33q0 12 12 30l15 22
q15 23 35 23q14 0 37 -16l137 -91q20 -14 20 -28q0 -11 -9 -24q-13 -20 -30 -20q-8 0 -27 7z" />
    <glyph glyph-name="uacute" unicode="&#xfa;" horiz-adv-x="773" 
d="M522 182v238q0 60 53 60h80q53 0 53 -60v-320q0 -103 -129 -103h-211q-71 0 -115.5 2.5t-82.5 12t-57.5 24t-33.5 41.5t-18 61t-4 87v195q0 60 53 60h80q53 0 53 -60v-153q0 -91 25 -114.5t117 -23.5h77q60 0 60 53zM511 602l-162 -64q-19 -7 -27 -7q-17 0 -30 20
q-9 13 -9 24q0 14 20 28l137 91q23 16 37 16q20 0 35 -23l15 -22q12 -18 12 -30q0 -22 -28 -33z" />
    <glyph glyph-name="ucircumflex" unicode="&#xfb;" horiz-adv-x="773" 
d="M522 182v238q0 60 53 60h80q53 0 53 -60v-320q0 -103 -129 -103h-211q-71 0 -115.5 2.5t-82.5 12t-57.5 24t-33.5 41.5t-18 61t-4 87v195q0 60 53 60h80q53 0 53 -60v-153q0 -91 25 -114.5t117 -23.5h77q60 0 60 53zM384 595q-11 0 -27 -8l-76 -37q-15 -7 -27 -7
q-17 0 -30 20q-9 13 -9 24q0 14 20 28l118 82q15 10 31 10t31 -10l118 -82q20 -14 20 -28q0 -11 -9 -24q-13 -20 -30 -20q-12 0 -27 7l-76 37q-16 8 -27 8z" />
    <glyph glyph-name="udieresis" unicode="&#xfc;" horiz-adv-x="773" 
d="M522 182v238q0 60 53 60h80q53 0 53 -60v-320q0 -103 -129 -103h-211q-71 0 -115.5 2.5t-82.5 12t-57.5 24t-33.5 41.5t-18 61t-4 87v195q0 60 53 60h80q53 0 53 -60v-153q0 -91 25 -114.5t117 -23.5h77q60 0 60 53zM337 618v-19q0 -60 -53 -60h-62q-54 0 -54 62v19
q0 60 53 60h62q54 0 54 -62zM600 618v-19q0 -60 -53 -60h-62q-54 0 -54 62v19q0 60 53 60h62q54 0 54 -62z" />
    <glyph glyph-name="yacute" unicode="&#xfd;" horiz-adv-x="681" 
d="M218 433l99 -255q9 -22 21 -22q14 0 23 21l105 256q11 27 24 37t41 10h74q23 0 38.5 -10.5t15.5 -29.5q0 -15 -7 -29l-213 -426q-49 -98 -90.5 -126.5t-138.5 -28.5h-27q-49 0 -69.5 13.5t-20.5 42.5v21q0 51 62 51h25q74 0 92 34q4 8 4 18t-13 10h-7q-25 0 -40 13.5
t-28 41.5l-161 336q-7 14 -7 29q0 19 15.5 29.5t38.5 10.5h85q24 0 36.5 -10.5t22.5 -36.5zM477 602l-162 -64q-19 -7 -27 -7q-17 0 -30 20q-9 13 -9 24q0 14 20 28l137 91q23 16 37 16q20 0 35 -23l15 -22q12 -18 12 -30q0 -22 -28 -33z" />
    <glyph glyph-name="thorn" unicode="&#xfe;" horiz-adv-x="781" 
d="M338 483h119q71 0 114.5 -5t78.5 -18.5t52 -40.5t25 -66.5t8 -101.5v-19q0 -78 -10.5 -122t-44.5 -70.5t-84 -34.5t-141 -8h-117q-57 0 -72 -7.5t-15 -35.5v-62q0 -62 -54 -62h-79q-53 0 -53 60v730q0 60 53 60h79q54 0 54 -62v-92q0 -28 15 -35.5t72 -7.5zM248 251v-24
q0 -66 21.5 -84t102.5 -18h43q87 0 110.5 19t23.5 88v19q0 69 -24 88t-110 19h-33q-87 0 -110.5 -19t-23.5 -88z" />
    <glyph glyph-name="ydieresis" unicode="&#xff;" horiz-adv-x="681" 
d="M218 433l99 -255q9 -22 21 -22q14 0 23 21l105 256q11 27 24 37t41 10h74q23 0 38.5 -10.5t15.5 -29.5q0 -15 -7 -29l-213 -426q-49 -98 -90.5 -126.5t-138.5 -28.5h-27q-49 0 -69.5 13.5t-20.5 42.5v21q0 51 62 51h25q74 0 92 34q4 8 4 18t-13 10h-7q-25 0 -40 13.5
t-28 41.5l-161 336q-7 14 -7 29q0 19 15.5 29.5t38.5 10.5h85q24 0 36.5 -10.5t22.5 -36.5zM293 618v-19q0 -60 -53 -60h-62q-54 0 -54 62v19q0 60 53 60h62q54 0 54 -62zM556 618v-19q0 -60 -53 -60h-62q-54 0 -54 62v19q0 60 53 60h62q54 0 54 -62z" />
    <glyph glyph-name="Amacron" unicode="&#x100;" horiz-adv-x="996" 
d="M747 52l-24 46q-7 15 -15 19.5t-27 4.5h-370q-19 0 -27 -4.5t-15 -19.5l-24 -46q-16 -32 -29 -42t-42 -10h-88q-26 0 -40.5 12t-14.5 32t11 39l307 555q13 23 27.5 32.5t39.5 9.5h160q25 0 39 -9t28 -33l311 -555q11 -21 11 -39q0 -21 -15.5 -32.5t-39.5 -11.5h-95
q-27 0 -39.5 10.5t-28.5 41.5zM622 301l-108 217q-8 16 -18 16t-18 -16l-109 -217q-6 -12 -6 -20q0 -17 24 -17h217q24 0 24 17q0 8 -6 20zM365 850h260q42 0 42 -44v-6q0 -44 -42 -44h-260q-42 0 -42 43v6q0 21 11 33t31 12z" />
    <glyph glyph-name="amacron" unicode="&#x101;" horiz-adv-x="737" 
d="M550 -3h-261q-148 0 -194 29t-46 117v22q0 82 47.5 109t189.5 27h159q28 0 38.5 4t10.5 17q0 25 -21 31.5t-94 6.5h-243q-60 0 -60 50v9q0 22 10.5 34.5t46.5 19.5t85 8.5t146 1.5h29q96 0 149 -8t85.5 -35.5t42 -69t9.5 -117.5v-153q0 -103 -129 -103zM358 108h15
q82 0 103.5 9t21.5 38v6q0 28 -20.5 35.5t-104.5 7.5h-15q-86 0 -106.5 -7t-20.5 -36v-6q0 -30 21.5 -38.5t105.5 -8.5zM239 662h260q42 0 42 -44v-6q0 -44 -42 -44h-260q-42 0 -42 43v6q0 21 11 33t31 12z" />
    <glyph glyph-name="Abreve" unicode="&#x102;" horiz-adv-x="996" 
d="M747 52l-24 46q-7 15 -15 19.5t-27 4.5h-370q-19 0 -27 -4.5t-15 -19.5l-24 -46q-16 -32 -29 -42t-42 -10h-88q-26 0 -40.5 12t-14.5 32t11 39l307 555q13 23 27.5 32.5t39.5 9.5h160q25 0 39 -9t28 -33l311 -555q11 -21 11 -39q0 -21 -15.5 -32.5t-39.5 -11.5h-95
q-27 0 -39.5 10.5t-28.5 41.5zM622 301l-108 217q-8 16 -18 16t-18 -16l-109 -217q-6 -12 -6 -20q0 -17 24 -17h217q24 0 24 17q0 8 -6 20zM495 818q43 0 65 8.5t35 30.5q9 16 32 16h38q23 0 23 -22q0 -8 -5 -23q-17 -49 -68.5 -75t-119.5 -26t-119.5 26t-68.5 75
q-5 15 -5 23q0 22 23 22h38q23 0 32 -16q13 -22 35 -30.5t65 -8.5z" />
    <glyph glyph-name="abreve" unicode="&#x103;" horiz-adv-x="737" 
d="M550 -3h-261q-148 0 -194 29t-46 117v22q0 82 47.5 109t189.5 27h159q28 0 38.5 4t10.5 17q0 25 -21 31.5t-94 6.5h-243q-60 0 -60 50v9q0 22 10.5 34.5t46.5 19.5t85 8.5t146 1.5h29q96 0 149 -8t85.5 -35.5t42 -69t9.5 -117.5v-153q0 -103 -129 -103zM358 108h15
q82 0 103.5 9t21.5 38v6q0 28 -20.5 35.5t-104.5 7.5h-15q-86 0 -106.5 -7t-20.5 -36v-6q0 -30 21.5 -38.5t105.5 -8.5zM370 625q43 0 65 8.5t35 30.5q9 16 32 16h38q23 0 23 -22q0 -8 -5 -23q-17 -49 -68.5 -75t-119.5 -26t-119.5 26t-68.5 75q-5 15 -5 23q0 22 23 22h38
q23 0 32 -16q13 -22 35 -30.5t65 -8.5z" />
    <glyph glyph-name="Aogonek" unicode="&#x104;" horiz-adv-x="996" 
d="M753 40l-30 58q-7 15 -15 19.5t-27 4.5h-370q-19 0 -27 -4.5t-15 -19.5l-24 -46q-16 -32 -29 -42t-42 -10h-88q-26 0 -40.5 12t-14.5 32t11 39l307 555q13 23 27.5 32.5t39.5 9.5h160q25 0 39 -9t28 -33l311 -555q11 -21 11 -39q0 -41 -49 -58q-73 -25 -73 -77
q0 -18 10.5 -25t36.5 -7h30q20 0 28.5 -7t8.5 -24v-6q0 -47 -111 -47h-7q-54 0 -83 17t-29 63q0 53 42 89q10 9 10 18q0 10 -26 60zM622 301l-108 217q-8 16 -18 16t-18 -16l-109 -217q-6 -12 -6 -20q0 -17 24 -17h217q24 0 24 17q0 8 -6 20z" />
    <glyph glyph-name="aogonek" unicode="&#x105;" horiz-adv-x="737" 
d="M679 253v-176q0 -38 -8 -54t-34 -29q-76 -36 -76 -85q0 -18 10.5 -25t36.5 -7h30q20 0 28.5 -7t8.5 -24v-6q0 -47 -111 -47h-7q-54 0 -83 17t-29 63q0 51 41 89q13 12 13 21q0 14 -20 14h-190q-148 0 -194 29t-46 117v22q0 82 47.5 109t189.5 27h159q28 0 38.5 4t10.5 17
q0 25 -21 31.5t-94 6.5h-243q-60 0 -60 50v9q0 22 10.5 34.5t46.5 19.5t85 8.5t146 1.5h29q96 0 149 -8t85.5 -35.5t42 -69t9.5 -117.5zM358 108h15q82 0 103.5 9t21.5 38v6q0 28 -20.5 35.5t-104.5 7.5h-15q-86 0 -106.5 -7t-20.5 -36v-6q0 -30 21.5 -38.5t105.5 -8.5z" />
    <glyph glyph-name="Cacute" unicode="&#x106;" horiz-adv-x="973" 
d="M258 341v-10q0 -44 1.5 -68.5t12 -46.5t23 -31t44 -16t66 -8t97.5 -1h359q60 0 60 -53v-30q0 -35 -24 -51.5t-93.5 -23.5t-219.5 -7h-73q-105 0 -172.5 4.5t-122.5 19t-83.5 35t-48 61t-25 89t-5.5 124.5v16q0 78 6 128t25.5 90.5t49 62.5t84 36.5t121.5 19t171 4.5h73
q78 0 127.5 -1t90 -4.5t61.5 -8.5t35.5 -15t18.5 -22t4 -31v-26q0 -53 -60 -53h-359q-46 0 -75.5 -0.5t-58 -4.5t-44 -8.5t-29.5 -15.5t-20 -22t-10.5 -32.5t-5.5 -43t-1 -56.5zM643 775l-169 -47q-17 -5 -26 -5q-17 0 -29 22q-8 16 -8 23q0 16 24 29l145 77q24 12 36 12
q21 0 35 -26l13 -24q9 -16 9 -28q0 -25 -30 -33z" />
    <glyph glyph-name="cacute" unicode="&#x107;" horiz-adv-x="729" 
d="M232 247v-11q0 -55 31.5 -75.5t115.5 -20.5h239q60 0 60 -50v-25q0 -23 -8 -35t-38 -20.5t-79 -10.5t-142 -2h-41q-65 0 -109 3t-83 12.5t-62 25.5t-40 42.5t-23.5 64t-6.5 89.5v10q0 77 16.5 124t58.5 72.5t98 34t151 8.5h41q64 0 102.5 -0.5t71.5 -3.5t48.5 -7
t27 -11.5t14.5 -17t3 -25.5v-24q0 -50 -60 -50h-239q-84 0 -115.5 -21t-31.5 -76zM509 602l-162 -64q-19 -7 -27 -7q-17 0 -30 20q-9 13 -9 24q0 14 20 28l137 91q23 16 37 16q20 0 35 -23l15 -22q12 -18 12 -30q0 -22 -28 -33z" />
    <glyph glyph-name="Ccircumflex" unicode="&#x108;" horiz-adv-x="973" 
d="M258 341v-10q0 -44 1.5 -68.5t12 -46.5t23 -31t44 -16t66 -8t97.5 -1h359q60 0 60 -53v-30q0 -35 -24 -51.5t-93.5 -23.5t-219.5 -7h-73q-105 0 -172.5 4.5t-122.5 19t-83.5 35t-48 61t-25 89t-5.5 124.5v16q0 78 6 128t25.5 90.5t49 62.5t84 36.5t121.5 19t171 4.5h73
q78 0 127.5 -1t90 -4.5t61.5 -8.5t35.5 -15t18.5 -22t4 -31v-26q0 -53 -60 -53h-359q-46 0 -75.5 -0.5t-58 -4.5t-44 -8.5t-29.5 -15.5t-20 -22t-10.5 -32.5t-5.5 -43t-1 -56.5zM518 784q-12 0 -27 -6l-81 -34q-16 -6 -25 -6q-19 0 -31 21q-7 13 -7 24q0 15 21 28l119 74
q15 9 31 9t31 -9l119 -74q21 -13 21 -28q0 -11 -7 -24q-12 -21 -31 -21q-9 0 -25 6l-81 34q-15 6 -27 6z" />
    <glyph glyph-name="ccircumflex" unicode="&#x109;" horiz-adv-x="729" 
d="M232 247v-11q0 -55 31.5 -75.5t115.5 -20.5h239q60 0 60 -50v-25q0 -23 -8 -35t-38 -20.5t-79 -10.5t-142 -2h-41q-65 0 -109 3t-83 12.5t-62 25.5t-40 42.5t-23.5 64t-6.5 89.5v10q0 77 16.5 124t58.5 72.5t98 34t151 8.5h41q64 0 102.5 -0.5t71.5 -3.5t48.5 -7
t27 -11.5t14.5 -17t3 -25.5v-24q0 -50 -60 -50h-239q-84 0 -115.5 -21t-31.5 -76zM382 595q-11 0 -27 -8l-76 -37q-15 -7 -27 -7q-17 0 -30 20q-9 13 -9 24q0 14 20 28l118 82q15 10 31 10t31 -10l118 -82q20 -14 20 -28q0 -11 -9 -24q-13 -20 -30 -20q-12 0 -27 7l-76 37
q-16 8 -27 8z" />
    <glyph glyph-name="Cdotaccent" unicode="&#x10a;" horiz-adv-x="973" 
d="M258 341v-10q0 -44 1.5 -68.5t12 -46.5t23 -31t44 -16t66 -8t97.5 -1h359q60 0 60 -53v-30q0 -35 -24 -51.5t-93.5 -23.5t-219.5 -7h-73q-105 0 -172.5 4.5t-122.5 19t-83.5 35t-48 61t-25 89t-5.5 124.5v16q0 78 6 128t25.5 90.5t49 62.5t84 36.5t121.5 19t171 4.5h73
q78 0 127.5 -1t90 -4.5t61.5 -8.5t35.5 -15t18.5 -22t4 -31v-26q0 -53 -60 -53h-359q-46 0 -75.5 -0.5t-58 -4.5t-44 -8.5t-29.5 -15.5t-20 -22t-10.5 -32.5t-5.5 -43t-1 -56.5zM612 814v-19q0 -60 -53 -60h-79q-54 0 -54 62v19q0 60 53 60h79q54 0 54 -62z" />
    <glyph glyph-name="cdotaccent" unicode="&#x10b;" horiz-adv-x="729" 
d="M232 247v-11q0 -55 31.5 -75.5t115.5 -20.5h239q60 0 60 -50v-25q0 -23 -8 -35t-38 -20.5t-79 -10.5t-142 -2h-41q-65 0 -109 3t-83 12.5t-62 25.5t-40 42.5t-23.5 64t-6.5 89.5v10q0 77 16.5 124t58.5 72.5t98 34t151 8.5h41q64 0 102.5 -0.5t71.5 -3.5t48.5 -7
t27 -11.5t14.5 -17t3 -25.5v-24q0 -50 -60 -50h-239q-84 0 -115.5 -21t-31.5 -76zM476 618v-19q0 -60 -53 -60h-79q-54 0 -54 62v19q0 60 53 60h79q54 0 54 -62z" />
    <glyph glyph-name="Ccaron" unicode="&#x10c;" horiz-adv-x="973" 
d="M258 341v-10q0 -44 1.5 -68.5t12 -46.5t23 -31t44 -16t66 -8t97.5 -1h359q60 0 60 -53v-30q0 -35 -24 -51.5t-93.5 -23.5t-219.5 -7h-73q-105 0 -172.5 4.5t-122.5 19t-83.5 35t-48 61t-25 89t-5.5 124.5v16q0 78 6 128t25.5 90.5t49 62.5t84 36.5t121.5 19t171 4.5h73
q78 0 127.5 -1t90 -4.5t61.5 -8.5t35.5 -15t18.5 -22t4 -31v-26q0 -53 -60 -53h-359q-46 0 -75.5 -0.5t-58 -4.5t-44 -8.5t-29.5 -15.5t-20 -22t-10.5 -32.5t-5.5 -43t-1 -56.5zM518 844q12 0 27 6l81 34q16 6 25 6q19 0 31 -21q7 -13 7 -24q0 -15 -21 -28l-119 -74
q-15 -9 -31 -9t-31 9l-119 74q-21 13 -21 28q0 11 7 24q12 21 31 21q9 0 25 -6l81 -34q15 -6 27 -6z" />
    <glyph glyph-name="ccaron" unicode="&#x10d;" horiz-adv-x="729" 
d="M232 247v-11q0 -55 31.5 -75.5t115.5 -20.5h239q60 0 60 -50v-25q0 -23 -8 -35t-38 -20.5t-79 -10.5t-142 -2h-41q-65 0 -109 3t-83 12.5t-62 25.5t-40 42.5t-23.5 64t-6.5 89.5v10q0 77 16.5 124t58.5 72.5t98 34t151 8.5h41q64 0 102.5 -0.5t71.5 -3.5t48.5 -7
t27 -11.5t14.5 -17t3 -25.5v-24q0 -50 -60 -50h-239q-84 0 -115.5 -21t-31.5 -76zM384 657q11 0 27 8l76 37q15 7 27 7q17 0 30 -20q9 -13 9 -24q0 -14 -20 -28l-118 -82q-15 -10 -31 -10t-31 10l-118 82q-20 14 -20 28q0 11 9 24q13 20 30 20q12 0 27 -7l76 -37
q16 -8 27 -8z" />
    <glyph glyph-name="Dcaron" unicode="&#x10e;" horiz-adv-x="1028" 
d="M312 158h211q65 0 101 1t68 9t45 17t23 32t11.5 48t1.5 71v12q0 34 -1 55t-6 41.5t-11 32t-20.5 22t-30.5 14.5t-45 8t-59 4.5t-77 0.5h-211q-40 0 -40 -34v-297q0 -37 40 -37zM540 0h-337q-59 0 -96 27.5t-37 84.5v456q0 58 37 85t96 27h337q76 0 127.5 -2t99.5 -8.5
t77 -16t54.5 -28.5t38.5 -41.5t22 -58.5t12 -76.5t3 -98.5v-20q0 -76 -5 -123t-22.5 -87.5t-44.5 -61t-79 -35t-117 -19t-166 -4.5zM501 844q12 0 27 6l81 34q17 6 25 6q19 0 31 -21q7 -13 7 -24q0 -15 -21 -28l-119 -74q-15 -9 -31 -9t-31 9l-119 74q-21 13 -21 28
q0 11 7 24q12 21 31 21q8 0 25 -6l81 -34q15 -6 27 -6z" />
    <glyph glyph-name="dcaron" unicode="&#x10f;" horiz-adv-x="781" 
d="M366 125h33q87 0 110.5 19t23.5 88v19q0 69 -23.5 88t-110.5 19h-33q-87 0 -110.5 -19t-23.5 -88v-19q0 -69 23.5 -88t110.5 -19zM716 618v-450q0 -171 -217 -171h-173q-91 0 -141 8t-84 34.5t-44.5 70.5t-10.5 122v19q0 77 11.5 121.5t46 70t83.5 33t137 7.5h119
q57 0 72 7.5t15 35.5v94q0 60 53 60h79q54 0 54 -62zM924 596l-42 -108q-16 -41 -60 -41h-8q-41 0 -41 39v142q0 52 54 52h55q51 0 51 -46q0 -17 -9 -38z" />
    <glyph glyph-name="Dcroat" unicode="&#x110;" horiz-adv-x="1028" 
d="M272 265v-70q0 -37 40 -37h211q65 0 101 1t68 9t45 17t23 32t11.5 48t1.5 71v12q0 34 -1 55t-6 41.5t-11 32t-20.5 22t-30.5 14.5t-45 8t-59 4.5t-77 0.5h-211q-40 0 -40 -34v-69q0 -27 28 -27h125q19 0 30.5 -11t11.5 -30v-21q0 -42 -42 -42h-125q-28 0 -28 -27zM70 112
v155q0 25 -25 25h-5q-42 0 -42 40v22q0 19 11.5 30.5t30.5 11.5h5q25 0 25 25v147q0 58 37 85t96 27h337q76 0 127.5 -2t99.5 -8.5t77 -16t54.5 -28.5t38.5 -41.5t22 -58.5t12 -76.5t3 -98.5v-20q0 -76 -5 -123t-22.5 -87.5t-44.5 -61t-79 -35t-117 -19t-166 -4.5h-337
q-59 0 -96 27.5t-37 84.5z" />
    <glyph glyph-name="dcroat" unicode="&#x111;" horiz-adv-x="781" 
d="M366 125h33q87 0 110.5 19t23.5 88v19q0 69 -23.5 88t-110.5 19h-33q-87 0 -110.5 -19t-23.5 -88v-19q0 -69 23.5 -88t110.5 -19zM716 509v-341q0 -171 -217 -171h-173q-91 0 -141 8t-84 34.5t-44.5 70.5t-10.5 122v19q0 77 11.5 121.5t46 70t83.5 33t137 7.5h149
q35 0 46 5.5t11 19.5q0 12 -5.5 17t-20.5 5h-123q-18 0 -28.5 10.5t-10.5 27.5v15q0 39 39 39h123q23 0 27 15l2 8q8 35 50 35h79q42 0 50 -35l2 -9q3 -14 21 -14h9q39 0 39 -37v-16q0 -17 -10.5 -28t-28.5 -11h-8q-20 0 -20 -21z" />
    <glyph glyph-name="Emacron" unicode="&#x112;" horiz-adv-x="857" 
d="M300 154h472q60 0 60 -53v-48q0 -53 -60 -53h-569q-59 0 -96 27.5t-37 84.5v456q0 58 37 85t96 27h557q60 0 60 -53v-44q0 -53 -60 -53h-460q-39 0 -39 -33v-49q0 -35 39 -35h433q60 0 60 -53v-36q0 -53 -60 -53h-433q-39 0 -39 -33v-49q0 -35 39 -35zM311 850h260
q42 0 42 -44v-6q0 -44 -42 -44h-260q-42 0 -42 43v6q0 21 11 33t31 12z" />
    <glyph glyph-name="emacron" unicode="&#x113;" horiz-adv-x="720" 
d="M235 662h260q42 0 42 -44v-6q0 -44 -42 -44h-260q-42 0 -42 43v6q0 21 11 33t31 12zM266 298h198q24 0 31 7t7 22q0 24 -29.5 33.5t-114.5 9.5q-76 0 -103.5 -10.5t-27.5 -38.5q0 -13 7.5 -18t31.5 -5zM401 -3h-41q-65 0 -108.5 3t-81 12.5t-59.5 25t-37.5 42.5
t-21.5 63.5t-6 89.5v9q0 76 15.5 123.5t53.5 73.5t88.5 35t133.5 9h34q55 0 87.5 -1t70 -5t57.5 -12t40.5 -21.5t30 -34t15.5 -49t6 -67.5q0 -50 -23.5 -72.5t-71.5 -22.5h-308q-27 0 -38 -6t-11 -22q0 -18 8.5 -25.5t38 -11.5t96.5 -4h239q60 0 60 -50v-18
q0 -23 -7.5 -34.5t-39 -19t-78 -9t-142.5 -1.5z" />
    <glyph glyph-name="Ebreve" unicode="&#x114;" horiz-adv-x="857" 
d="M300 154h472q60 0 60 -53v-48q0 -53 -60 -53h-569q-59 0 -96 27.5t-37 84.5v456q0 58 37 85t96 27h557q60 0 60 -53v-44q0 -53 -60 -53h-460q-39 0 -39 -33v-49q0 -35 39 -35h433q60 0 60 -53v-36q0 -53 -60 -53h-433q-39 0 -39 -33v-49q0 -35 39 -35zM441 818
q43 0 65 8.5t35 30.5q9 16 32 16h38q23 0 23 -22q0 -8 -5 -23q-17 -49 -68.5 -75t-119.5 -26t-119.5 26t-68.5 75q-5 15 -5 23q0 22 23 22h38q23 0 32 -16q13 -22 35 -30.5t65 -8.5z" />
    <glyph glyph-name="ebreve" unicode="&#x115;" horiz-adv-x="720" 
d="M366 625q43 0 65 8.5t35 30.5q9 16 32 16h38q23 0 23 -22q0 -8 -5 -23q-17 -49 -68.5 -75t-119.5 -26t-119.5 26t-68.5 75q-5 15 -5 23q0 22 23 22h38q23 0 32 -16q13 -22 35 -30.5t65 -8.5zM266 298h198q24 0 31 7t7 22q0 24 -29.5 33.5t-114.5 9.5q-76 0 -103.5 -10.5
t-27.5 -38.5q0 -13 7.5 -18t31.5 -5zM401 -3h-41q-65 0 -108.5 3t-81 12.5t-59.5 25t-37.5 42.5t-21.5 63.5t-6 89.5v9q0 76 15.5 123.5t53.5 73.5t88.5 35t133.5 9h34q55 0 87.5 -1t70 -5t57.5 -12t40.5 -21.5t30 -34t15.5 -49t6 -67.5q0 -50 -23.5 -72.5t-71.5 -22.5h-308
q-27 0 -38 -6t-11 -22q0 -18 8.5 -25.5t38 -11.5t96.5 -4h239q60 0 60 -50v-18q0 -23 -7.5 -34.5t-39 -19t-78 -9t-142.5 -1.5z" />
    <glyph glyph-name="Edotaccent" unicode="&#x116;" horiz-adv-x="857" 
d="M300 154h472q60 0 60 -53v-48q0 -53 -60 -53h-569q-59 0 -96 27.5t-37 84.5v456q0 58 37 85t96 27h557q60 0 60 -53v-44q0 -53 -60 -53h-460q-39 0 -39 -33v-49q0 -35 39 -35h433q60 0 60 -53v-36q0 -53 -60 -53h-433q-39 0 -39 -33v-49q0 -35 39 -35zM532 814v-19
q0 -60 -53 -60h-79q-54 0 -54 62v19q0 60 53 60h79q54 0 54 -62z" />
    <glyph glyph-name="edotaccent" unicode="&#x117;" horiz-adv-x="720" 
d="M456 618v-19q0 -60 -53 -60h-79q-54 0 -54 62v19q0 60 53 60h79q54 0 54 -62zM266 298h198q24 0 31 7t7 22q0 24 -29.5 33.5t-114.5 9.5q-76 0 -103.5 -10.5t-27.5 -38.5q0 -13 7.5 -18t31.5 -5zM401 -3h-41q-65 0 -108.5 3t-81 12.5t-59.5 25t-37.5 42.5t-21.5 63.5
t-6 89.5v9q0 76 15.5 123.5t53.5 73.5t88.5 35t133.5 9h34q55 0 87.5 -1t70 -5t57.5 -12t40.5 -21.5t30 -34t15.5 -49t6 -67.5q0 -50 -23.5 -72.5t-71.5 -22.5h-308q-27 0 -38 -6t-11 -22q0 -18 8.5 -25.5t38 -11.5t96.5 -4h239q60 0 60 -50v-18q0 -23 -7.5 -34.5t-39 -19
t-78 -9t-142.5 -1.5z" />
    <glyph glyph-name="Eogonek" unicode="&#x118;" horiz-adv-x="857" 
d="M590 0h-387q-59 0 -96 27.5t-37 84.5v456q0 58 37 85t96 27h557q60 0 60 -53v-44q0 -53 -60 -53h-460q-39 0 -39 -33v-49q0 -35 39 -35h433q60 0 60 -53v-36q0 -53 -60 -53h-433q-39 0 -39 -33v-49q0 -35 39 -35h472q60 0 60 -53v-42q0 -28 -13 -38.5t-43 -18.5
q-37 -10 -69 -37t-32 -56q0 -18 10.5 -25t36.5 -7h30q20 0 28.5 -7t8.5 -24v-6q0 -47 -111 -47h-7q-54 0 -83 17t-29 63q0 51 42 89q13 12 13 21q0 17 -24 17z" />
    <glyph glyph-name="eogonek" unicode="&#x119;" horiz-adv-x="720" 
d="M46 233v9q0 76 15.5 123.5t53.5 73.5t88.5 35t133.5 9h34q55 0 87.5 -1t70 -5t57.5 -12t40.5 -21.5t30 -34t15.5 -49t6 -67.5q0 -50 -23.5 -72.5t-71.5 -22.5h-308q-27 0 -38 -6t-11 -22q0 -18 8.5 -25.5t38 -11.5t96.5 -4h239q60 0 60 -50v-19q0 -34 -25 -46t-109 -16
q-40 -1 -73.5 -30.5t-33.5 -58.5q0 -18 10.5 -25t36.5 -7h30q20 0 28.5 -7t8.5 -24v-6q0 -47 -111 -47h-7q-54 0 -83 17t-29 63q0 51 42 89q13 12 13 22q0 13 -16 13q-76 1 -122.5 6t-85 18.5t-57.5 40.5t-29 67.5t-10 103.5zM266 298h198q24 0 31 7t7 22q0 24 -29.5 33.5
t-114.5 9.5q-76 0 -103.5 -10.5t-27.5 -38.5q0 -13 7.5 -18t31.5 -5z" />
    <glyph glyph-name="Ecaron" unicode="&#x11a;" horiz-adv-x="857" 
d="M300 154h472q60 0 60 -53v-48q0 -53 -60 -53h-569q-59 0 -96 27.5t-37 84.5v456q0 58 37 85t96 27h557q60 0 60 -53v-44q0 -53 -60 -53h-460q-39 0 -39 -33v-49q0 -35 39 -35h433q60 0 60 -53v-36q0 -53 -60 -53h-433q-39 0 -39 -33v-49q0 -35 39 -35zM441 844q12 0 27 6
l81 34q17 6 25 6q19 0 31 -21q7 -13 7 -24q0 -15 -21 -28l-119 -74q-15 -9 -31 -9t-31 9l-119 74q-21 13 -21 28q0 11 7 24q12 21 31 21q8 0 25 -6l81 -34q15 -6 27 -6z" />
    <glyph glyph-name="ecaron" unicode="&#x11b;" horiz-adv-x="720" 
d="M367 657q11 0 27 8l76 37q15 7 27 7q17 0 30 -20q9 -13 9 -24q0 -14 -20 -28l-118 -82q-15 -10 -31 -10t-31 10l-118 82q-20 14 -20 28q0 11 9 24q13 20 30 20q12 0 27 -7l76 -37q16 -8 27 -8zM266 298h198q24 0 31 7t7 22q0 24 -29.5 33.5t-114.5 9.5
q-76 0 -103.5 -10.5t-27.5 -38.5q0 -13 7.5 -18t31.5 -5zM401 -3h-41q-65 0 -108.5 3t-81 12.5t-59.5 25t-37.5 42.5t-21.5 63.5t-6 89.5v9q0 76 15.5 123.5t53.5 73.5t88.5 35t133.5 9h34q55 0 87.5 -1t70 -5t57.5 -12t40.5 -21.5t30 -34t15.5 -49t6 -67.5
q0 -50 -23.5 -72.5t-71.5 -22.5h-308q-27 0 -38 -6t-11 -22q0 -18 8.5 -25.5t38 -11.5t96.5 -4h239q60 0 60 -50v-18q0 -23 -7.5 -34.5t-39 -19t-78 -9t-142.5 -1.5z" />
    <glyph glyph-name="Gcircumflex" unicode="&#x11c;" horiz-adv-x="975" 
d="M921 310v-72q0 -43 -2 -69.5t-9.5 -55.5t-22.5 -45.5t-40 -32.5t-63 -23.5t-90.5 -12t-123.5 -4.5h-57q-78 0 -134.5 2.5t-105.5 10t-81 17.5t-58 29.5t-40 42.5t-24 59t-13 76t-3 96v16q0 78 6 128t25.5 90.5t49 62.5t84 36.5t121.5 19t171 4.5h50q78 0 127.5 -1
t90 -4.5t61.5 -8.5t35.5 -15t18.5 -22t4 -31v-23q0 -53 -60 -53h-339q-62 0 -97 -1.5t-66 -9t-44 -17t-23 -33.5t-11.5 -50t-1.5 -73v-22q0 -46 1.5 -71t11.5 -47.5t22.5 -31.5t44 -16.5t66 -8.5t97.5 -1h57q80 0 116.5 5t45.5 14t9 30v40q0 27 -32 27h-174q-61 0 -61 53v29
q0 53 61 53h297q56 0 79.5 -20.5t23.5 -65.5zM502 784q-12 0 -27 -6l-81 -34q-17 -6 -25 -6q-19 0 -31 21q-7 13 -7 24q0 15 21 28l119 74q15 9 31 9t31 -9l119 -74q21 -13 21 -28q0 -11 -7 -24q-12 -21 -31 -21q-9 0 -25 6l-81 34q-15 6 -27 6z" />
    <glyph glyph-name="gcircumflex" unicode="&#x11d;" horiz-adv-x="767" 
d="M522 250v19q0 56 -26 72.5t-111 16.5h-29q-77 0 -102 -18t-25 -71v-14q0 -56 22 -72.5t95 -16.5h49q81 0 104 15.5t23 68.5zM702 321v-278q0 -130 -68 -173.5t-256 -43.5h-42q-62 0 -102.5 1t-72.5 4t-49.5 7t-29 12.5t-15 18.5t-3.5 25v17q0 50 60 50h270
q78 0 103.5 11.5t25.5 38.5t-39 27h-178q-160 0 -210 40.5t-50 176.5v14q0 128 55 171t213 43h200q101 0 144.5 -39t43.5 -123zM378 595q-11 0 -27 -8l-76 -37q-15 -7 -27 -7q-17 0 -30 20q-9 13 -9 24q0 14 20 28l118 82q15 10 31 10t31 -10l118 -82q20 -14 20 -28
q0 -11 -9 -24q-13 -20 -30 -20q-12 0 -27 7l-76 37q-16 8 -27 8z" />
    <glyph glyph-name="Gbreve" unicode="&#x11e;" horiz-adv-x="975" 
d="M921 310v-72q0 -43 -2 -69.5t-9.5 -55.5t-22.5 -45.5t-40 -32.5t-63 -23.5t-90.5 -12t-123.5 -4.5h-57q-78 0 -134.5 2.5t-105.5 10t-81 17.5t-58 29.5t-40 42.5t-24 59t-13 76t-3 96v16q0 78 6 128t25.5 90.5t49 62.5t84 36.5t121.5 19t171 4.5h50q78 0 127.5 -1
t90 -4.5t61.5 -8.5t35.5 -15t18.5 -22t4 -31v-23q0 -53 -60 -53h-339q-62 0 -97 -1.5t-66 -9t-44 -17t-23 -33.5t-11.5 -50t-1.5 -73v-22q0 -46 1.5 -71t11.5 -47.5t22.5 -31.5t44 -16.5t66 -8.5t97.5 -1h57q80 0 116.5 5t45.5 14t9 30v40q0 27 -32 27h-174q-61 0 -61 53v29
q0 53 61 53h297q56 0 79.5 -20.5t23.5 -65.5zM502 818q43 0 65 8.5t35 30.5q9 16 32 16h38q23 0 23 -22q0 -8 -5 -23q-17 -49 -68.5 -75t-119.5 -26t-119.5 26t-68.5 75q-5 15 -5 23q0 22 23 22h38q23 0 32 -16q13 -22 35 -30.5t65 -8.5z" />
    <glyph glyph-name="gbreve" unicode="&#x11f;" horiz-adv-x="767" 
d="M522 250v19q0 56 -26 72.5t-111 16.5h-29q-77 0 -102 -18t-25 -71v-14q0 -56 22 -72.5t95 -16.5h49q81 0 104 15.5t23 68.5zM702 321v-278q0 -130 -68 -173.5t-256 -43.5h-42q-62 0 -102.5 1t-72.5 4t-49.5 7t-29 12.5t-15 18.5t-3.5 25v17q0 50 60 50h270
q78 0 103.5 11.5t25.5 38.5t-39 27h-178q-160 0 -210 40.5t-50 176.5v14q0 128 55 171t213 43h200q101 0 144.5 -39t43.5 -123zM379 625q43 0 65 8.5t35 30.5q9 16 32 16h38q23 0 23 -22q0 -8 -5 -23q-17 -49 -68.5 -75t-119.5 -26t-119.5 26t-68.5 75q-5 15 -5 23
q0 22 23 22h38q23 0 32 -16q13 -22 35 -30.5t65 -8.5z" />
    <glyph glyph-name="Gdotaccent" unicode="&#x120;" horiz-adv-x="975" 
d="M921 310v-72q0 -43 -2 -69.5t-9.5 -55.5t-22.5 -45.5t-40 -32.5t-63 -23.5t-90.5 -12t-123.5 -4.5h-57q-78 0 -134.5 2.5t-105.5 10t-81 17.5t-58 29.5t-40 42.5t-24 59t-13 76t-3 96v16q0 78 6 128t25.5 90.5t49 62.5t84 36.5t121.5 19t171 4.5h50q78 0 127.5 -1
t90 -4.5t61.5 -8.5t35.5 -15t18.5 -22t4 -31v-23q0 -53 -60 -53h-339q-62 0 -97 -1.5t-66 -9t-44 -17t-23 -33.5t-11.5 -50t-1.5 -73v-22q0 -46 1.5 -71t11.5 -47.5t22.5 -31.5t44 -16.5t66 -8.5t97.5 -1h57q80 0 116.5 5t45.5 14t9 30v40q0 27 -32 27h-174q-61 0 -61 53v29
q0 53 61 53h297q56 0 79.5 -20.5t23.5 -65.5zM593 814v-19q0 -60 -53 -60h-79q-54 0 -54 62v19q0 60 53 60h79q54 0 54 -62z" />
    <glyph glyph-name="gdotaccent" unicode="&#x121;" horiz-adv-x="767" 
d="M522 250v19q0 56 -26 72.5t-111 16.5h-29q-77 0 -102 -18t-25 -71v-14q0 -56 22 -72.5t95 -16.5h49q81 0 104 15.5t23 68.5zM702 321v-278q0 -130 -68 -173.5t-256 -43.5h-42q-62 0 -102.5 1t-72.5 4t-49.5 7t-29 12.5t-15 18.5t-3.5 25v17q0 50 60 50h270
q78 0 103.5 11.5t25.5 38.5t-39 27h-178q-160 0 -210 40.5t-50 176.5v14q0 128 55 171t213 43h200q101 0 144.5 -39t43.5 -123zM471 618v-19q0 -60 -53 -60h-79q-54 0 -54 62v19q0 60 53 60h79q54 0 54 -62z" />
    <glyph glyph-name="Gcommaaccent" unicode="&#x122;" horiz-adv-x="975" 
d="M921 310v-72q0 -43 -2 -69.5t-9.5 -55.5t-22.5 -45.5t-40 -32.5t-63 -23.5t-90.5 -12t-123.5 -4.5h-57q-78 0 -134.5 2.5t-105.5 10t-81 17.5t-58 29.5t-40 42.5t-24 59t-13 76t-3 96v16q0 78 6 128t25.5 90.5t49 62.5t84 36.5t121.5 19t171 4.5h50q78 0 127.5 -1
t90 -4.5t61.5 -8.5t35.5 -15t18.5 -22t4 -31v-23q0 -53 -60 -53h-339q-62 0 -97 -1.5t-66 -9t-44 -17t-23 -33.5t-11.5 -50t-1.5 -73v-22q0 -46 1.5 -71t11.5 -47.5t22.5 -31.5t44 -16.5t66 -8.5t97.5 -1h57q80 0 116.5 5t45.5 14t9 30v40q0 27 -32 27h-174q-61 0 -61 53v29
q0 53 61 53h297q56 0 79.5 -20.5t23.5 -65.5zM568 -131l-47 -87q-13 -24 -24.5 -32.5t-32.5 -8.5h-11q-38 0 -38 38v121q0 51 54 51h61q22 0 35.5 -11.5t13.5 -32.5q0 -19 -11 -38z" />
    <glyph glyph-name="gcommaaccent" unicode="&#x123;" horiz-adv-x="767" 
d="M522 250v19q0 56 -26 72.5t-111 16.5h-29q-77 0 -102 -18t-25 -71v-14q0 -56 22 -72.5t95 -16.5h49q81 0 104 15.5t23 68.5zM702 321v-278q0 -130 -68 -173.5t-256 -43.5h-42q-62 0 -102.5 1t-72.5 4t-49.5 7t-29 12.5t-15 18.5t-3.5 25v17q0 50 60 50h270
q78 0 103.5 11.5t25.5 38.5t-39 27h-178q-160 0 -210 40.5t-50 176.5v14q0 128 55 171t213 43h200q101 0 144.5 -39t43.5 -123zM309 623l47 87q13 24 24.5 32.5t32.5 8.5h9q38 0 38 -38v-121q0 -51 -53 -51h-60q-22 0 -35.5 11.5t-13.5 32.5q0 19 11 38z" />
    <glyph glyph-name="Hcircumflex" unicode="&#x124;" horiz-adv-x="994" 
d="M272 618v-157q0 -20 9.5 -27.5t28.5 -7.5h373q21 0 30 8t9 26v160q0 60 53 60h95q54 0 54 -62v-558q0 -60 -53 -60h-95q-54 0 -54 62v172q0 21 -9.5 28t-29.5 7h-372q-22 0 -30.5 -7.5t-8.5 -26.5v-175q0 -60 -53 -60h-95q-54 0 -54 62v558q0 60 53 60h95q54 0 54 -62z
M497 784q-12 0 -27 -6l-81 -34q-16 -6 -25 -6q-19 0 -31 21q-7 13 -7 24q0 15 21 28l119 74q15 9 31 9t31 -9l119 -74q21 -13 21 -28q0 -11 -7 -24q-12 -21 -31 -21q-8 0 -25 6l-81 34q-15 6 -27 6z" />
    <glyph glyph-name="hcircumflex" unicode="&#x125;" horiz-adv-x="778" 
d="M338 483h67q71 0 115.5 -2.5t82.5 -12t57.5 -24t33.5 -41.5t18 -61t4 -87v-195q0 -60 -53 -60h-80q-53 0 -53 60v154q0 91 -25 114.5t-117 23.5h-77q-60 0 -60 -53v-239q0 -60 -53 -60h-79q-54 0 -54 62v558q0 60 53 60h79q54 0 54 -62v-92q0 -28 15 -35.5t72 -7.5z
M154 784q-12 0 -27 -6l-81 -34q-16 -6 -25 -6q-19 0 -31 21q-7 13 -7 24q0 15 21 28l119 74q15 9 31 9t31 -9l119 -74q21 -13 21 -28q0 -11 -7 -24q-12 -21 -31 -21q-9 0 -25 6l-81 34q-15 6 -27 6z" />
    <glyph glyph-name="Hbar" unicode="&#x126;" horiz-adv-x="994" 
d="M694 502h-394q-28 0 -28 -25v-38q0 -18 8.5 -25t26.5 -7h379q20 0 28 7t8 24v39q0 25 -28 25zM300 598h394q28 0 28 23v5q0 23 14 38.5t41 15.5h93q27 0 40.5 -14.5t13.5 -37.5v-8q0 -22 23 -22h6q19 0 30.5 -12t11.5 -32v-10q0 -19 -11.5 -30.5t-31.5 -11.5h-5
q-23 0 -23 -21v-421q0 -60 -53 -60h-95q-54 0 -54 62v155q0 21 -9.5 28t-29.5 7h-372q-22 0 -30.5 -7.5t-8.5 -26.5v-158q0 -60 -53 -60h-95q-54 0 -54 62v419q0 21 -23 21h-5q-20 0 -31.5 11t-11.5 31v10q0 19 12 31.5t31 12.5h5q23 0 23 21v9q0 23 13.5 37.5t40.5 14.5h93
q27 0 41 -15.5t14 -38.5v-5q0 -23 28 -23z" />
    <glyph glyph-name="hbar" unicode="&#x127;" horiz-adv-x="778" 
d="M308 483h97q71 0 115.5 -2.5t82.5 -12t57.5 -24t33.5 -41.5t18 -61t4 -87v-195q0 -60 -53 -60h-80q-53 0 -53 60v154q0 91 -25 114.5t-117 23.5h-77q-60 0 -60 -53v-239q0 -60 -53 -60h-79q-54 0 -54 62v447q0 21 -20 21h-8q-18 0 -28.5 11t-10.5 28v16q0 37 39 37h8
q18 0 21 14l2 9q8 35 50 35h79q42 0 50 -35l2 -8q4 -15 27 -15h124q39 0 39 -39v-15q0 -17 -10.5 -27.5t-28.5 -10.5h-123q-15 0 -20.5 -5t-5.5 -17q0 -13 11.5 -19t45.5 -6z" />
    <glyph glyph-name="Itilde" unicode="&#x128;" horiz-adv-x="343" 
d="M273 618v-558q0 -60 -53 -60h-96q-54 0 -54 62v558q0 60 53 60h96q54 0 54 -62zM105 882q30 0 74.5 -23.5t61.5 -23.5q22 0 33 23q9 21 23 21q17 0 33 -8t16 -22q0 -4 -2 -14q-23 -101 -108 -101q-30 0 -74 23.5t-61 23.5q-24 0 -35 -23q-9 -21 -23 -21q-15 0 -31 8
t-16 22q0 4 2 14q23 101 107 101z" />
    <glyph glyph-name="itilde" unicode="&#x129;" horiz-adv-x="316" 
d="M251 418v-358q0 -60 -53 -60h-79q-54 0 -54 62v358q0 60 53 60h79q54 0 54 -62zM92 695q30 0 74.5 -23.5t61.5 -23.5q22 0 33 23q9 21 23 21q17 0 33 -8t16 -22q0 -4 -2 -14q-23 -101 -108 -101q-30 0 -74 23.5t-61 23.5q-24 0 -35 -23q-9 -21 -23 -21q-15 0 -31 8
t-16 22q0 4 2 14q23 101 107 101z" />
    <glyph glyph-name="Imacron" unicode="&#x12a;" horiz-adv-x="343" 
d="M273 618v-558q0 -60 -53 -60h-96q-54 0 -54 62v558q0 60 53 60h96q54 0 54 -62zM41 850h260q42 0 42 -44v-6q0 -44 -42 -44h-260q-42 0 -42 43v6q0 21 11 33t31 12z" />
    <glyph glyph-name="imacron" unicode="&#x12b;" horiz-adv-x="316" 
d="M251 418v-358q0 -60 -53 -60h-79q-54 0 -54 62v358q0 60 53 60h79q54 0 54 -62zM28 662h260q42 0 42 -44v-6q0 -44 -42 -44h-260q-42 0 -42 43v6q0 21 11 33t31 12z" />
    <glyph glyph-name="Ibreve" unicode="&#x12c;" horiz-adv-x="343" 
d="M273 618v-558q0 -60 -53 -60h-96q-54 0 -54 62v558q0 60 53 60h96q54 0 54 -62zM171 818q43 0 65 8.5t35 30.5q9 16 32 16h38q23 0 23 -22q0 -8 -5 -23q-17 -49 -68.5 -75t-119.5 -26t-119.5 26t-68.5 75q-5 15 -5 23q0 22 23 22h38q23 0 32 -16q13 -22 35 -30.5t65 -8.5
z" />
    <glyph glyph-name="ibreve" unicode="&#x12d;" horiz-adv-x="316" 
d="M251 418v-358q0 -60 -53 -60h-79q-54 0 -54 62v358q0 60 53 60h79q54 0 54 -62zM159 625q43 0 65 8.5t35 30.5q9 16 32 16h38q23 0 23 -22q0 -8 -5 -23q-17 -49 -68.5 -75t-119.5 -26t-119.5 26t-68.5 75q-5 15 -5 23q0 22 23 22h38q23 0 32 -16q13 -22 35 -30.5t65 -8.5
z" />
    <glyph glyph-name="Iogonek" unicode="&#x12e;" horiz-adv-x="343" 
d="M100 -30q12 11 12 19q0 9 -10 14q-32 15 -32 59v558q0 60 53 60h96q54 0 54 -62v-558q0 -34 -33 -58q-69 -48 -69 -93q0 -18 10.5 -25t36.5 -7h27q20 0 28.5 -7t8.5 -24v-6q0 -47 -108 -47h-7q-54 0 -83 17t-29 63q0 58 45 97z" />
    <glyph glyph-name="iogonek" unicode="&#x12f;" horiz-adv-x="316" 
d="M65 62v358q0 60 53 60h79q54 0 54 -62v-358q0 -36 -29 -58q-64 -49 -64 -93q0 -18 10.5 -25t36.5 -7h27q20 0 28.5 -7t8.5 -24v-6q0 -47 -108 -47h-7q-54 0 -83 17t-29 63q0 61 50 101q12 10 12 19t-10 14q-29 14 -29 55zM251 618v-19q0 -60 -53 -60h-79q-54 0 -54 62v19
q0 60 53 60h79q54 0 54 -62z" />
    <glyph glyph-name="Idotaccent" unicode="&#x130;" horiz-adv-x="343" 
d="M273 618v-558q0 -60 -53 -60h-96q-54 0 -54 62v558q0 60 53 60h96q54 0 54 -62zM264 814v-19q0 -60 -53 -60h-79q-54 0 -54 62v19q0 60 53 60h79q54 0 54 -62z" />
    <glyph glyph-name="dotlessi" unicode="&#x131;" horiz-adv-x="316" 
d="M251 418v-358q0 -60 -53 -60h-79q-54 0 -54 62v358q0 60 53 60h79q54 0 54 -62z" />
    <glyph glyph-name="Jcircumflex" unicode="&#x134;" horiz-adv-x="785" 
d="M718 618v-320q0 -64 -6 -107.5t-22.5 -79t-43 -56.5t-70.5 -35.5t-101 -19.5t-139 -5h-45q-114 0 -169.5 7.5t-76.5 24t-21 50.5v25q0 54 61 54h195q85 0 129 4.5t69.5 23t31 43.5t5.5 78v315q0 60 53 60h96q54 0 54 -62zM609 784q-12 0 -27 -6l-81 -34q-16 -6 -25 -6
q-19 0 -31 21q-7 13 -7 24q0 15 21 28l119 74q15 9 31 9t31 -9l119 -74q21 -13 21 -28q0 -11 -7 -24q-12 -21 -31 -21q-8 0 -25 6l-81 34q-15 6 -27 6z" />
    <glyph glyph-name="jcircumflex" unicode="&#x135;" horiz-adv-x="323" 
d="M72 -14v441q0 53 53 53h80q53 0 53 -53v-435q0 -88 -39.5 -125t-123.5 -37q-91 0 -91 58v22q0 35 37 40q18 2 24.5 10t6.5 26zM158 595q-11 0 -27 -8l-76 -37q-15 -7 -27 -7q-17 0 -30 20q-9 13 -9 24q0 14 20 28l118 82q15 10 31 10t31 -10l118 -82q20 -14 20 -28
q0 -11 -9 -24q-13 -20 -30 -20q-12 0 -27 7l-76 37q-16 8 -27 8z" />
    <glyph glyph-name="Kcommaaccent" unicode="&#x136;" horiz-adv-x="940" 
d="M272 229v-169q0 -60 -53 -60h-95q-54 0 -54 62v558q0 60 53 60h95q54 0 54 -62v-157q0 -20 9.5 -27.5t28.5 -7.5h45q23 0 53 24l245 197q24 19 39 26t37 7h90q24 0 39.5 -12t15.5 -32q0 -27 -24 -45l-273 -217q-15 -12 -15 -24q0 -13 15 -24l302 -235q24 -18 24 -46
q0 -21 -15.5 -33t-39.5 -12h-107q-22 0 -37 7t-39 26l-259 204q-34 27 -58 27h-38q-19 0 -28.5 -7.5t-9.5 -27.5zM525 -131l-47 -87q-13 -24 -24.5 -32.5t-32.5 -8.5h-11q-38 0 -38 38v121q0 51 54 51h61q22 0 35.5 -11.5t13.5 -32.5q0 -19 -11 -38z" />
    <glyph glyph-name="kcommaaccent" unicode="&#x137;" horiz-adv-x="719" 
d="M251 163v-103q0 -60 -53 -60h-79q-54 0 -54 62v558q0 60 53 60h79q54 0 54 -62v-268q0 -30 30 -30h11q17 0 37 17l147 118q32 25 62 25h87q22 0 37 -11t15 -29q0 -24 -21 -40l-172 -123q-11 -8 -11 -17q0 -7 11 -17l194 -163q21 -19 21 -40q0 -18 -15 -29t-37 -11h-90
q-35 0 -62 25l-166 149q-21 19 -41 19h-7q-30 0 -30 -30zM427 -131l-47 -87q-13 -24 -24.5 -32.5t-32.5 -8.5h-11q-38 0 -38 38v121q0 51 54 51h61q22 0 35.5 -11.5t13.5 -32.5q0 -19 -11 -38z" />
    <glyph glyph-name="kgreenlandic" unicode="&#x138;" horiz-adv-x="719" 
d="M251 153v-93q0 -60 -53 -60h-79q-54 0 -54 62v358q0 60 53 60h79q54 0 54 -62v-78q0 -30 30 -30h11q17 0 37 17l147 128q28 25 62 25h87q22 0 37 -11t15 -29q0 -24 -21 -40l-172 -133q-11 -8 -11 -17q0 -7 11 -17l194 -153q21 -16 21 -40q0 -18 -15 -29t-37 -11h-90
q-32 0 -62 25l-166 139q-24 19 -41 19h-7q-30 0 -30 -30z" />
    <glyph glyph-name="Lacute" unicode="&#x139;" horiz-adv-x="748" 
d="M273 618v-421q0 -39 40 -39h361q60 0 60 -53v-52q0 -53 -60 -53h-471q-59 0 -96 27.5t-37 84.5v508q0 60 53 60h96q54 0 54 -62zM346 775l-169 -47q-17 -5 -26 -5q-17 0 -29 22q-8 16 -8 23q0 16 24 29l145 77q24 12 36 12q21 0 35 -26l13 -24q9 -16 9 -28q0 -25 -30 -33
z" />
    <glyph glyph-name="lacute" unicode="&#x13a;" horiz-adv-x="316" 
d="M251 618v-558q0 -60 -53 -60h-79q-54 0 -54 62v558q0 60 53 60h79q54 0 54 -62zM297 775l-169 -47q-17 -5 -26 -5q-17 0 -29 22q-8 16 -8 23q0 16 24 29l145 77q24 12 36 12q21 0 35 -26l13 -24q9 -16 9 -28q0 -25 -30 -33z" />
    <glyph glyph-name="Lcommaaccent" unicode="&#x13b;" horiz-adv-x="748" 
d="M273 618v-421q0 -39 40 -39h361q60 0 60 -53v-52q0 -53 -60 -53h-471q-59 0 -96 27.5t-37 84.5v508q0 60 53 60h96q54 0 54 -62zM470 -131l-47 -87q-13 -24 -24.5 -32.5t-32.5 -8.5h-11q-38 0 -38 38v121q0 51 54 51h61q22 0 35.5 -11.5t13.5 -32.5q0 -19 -11 -38z" />
    <glyph glyph-name="lcommaaccent" unicode="&#x13c;" horiz-adv-x="316" 
d="M251 618v-558q0 -60 -53 -60h-79q-54 0 -54 62v558q0 60 53 60h79q54 0 54 -62zM223 -131l-47 -87q-13 -24 -24.5 -32.5t-32.5 -8.5h-11q-38 0 -38 38v121q0 51 54 51h61q22 0 35.5 -11.5t13.5 -32.5q0 -19 -11 -38z" />
    <glyph glyph-name="Lcaron" unicode="&#x13d;" horiz-adv-x="748" 
d="M273 618v-421q0 -39 40 -39h361q60 0 60 -53v-52q0 -53 -60 -53h-471q-59 0 -96 27.5t-37 84.5v508q0 60 53 60h96q54 0 54 -62zM512 596l-42 -108q-16 -41 -60 -41h-8q-41 0 -41 39v142q0 52 54 52h55q51 0 51 -46q0 -17 -9 -38z" />
    <glyph glyph-name="lcaron" unicode="&#x13e;" horiz-adv-x="316" 
d="M251 618v-558q0 -60 -53 -60h-79q-54 0 -54 62v558q0 60 53 60h79q54 0 54 -62zM459 596l-42 -108q-16 -41 -60 -41h-8q-41 0 -41 39v142q0 52 54 52h55q51 0 51 -46q0 -17 -9 -38z" />
    <glyph glyph-name="Ldot" unicode="&#x13f;" horiz-adv-x="748" 
d="M273 618v-421q0 -39 40 -39h361q60 0 60 -53v-52q0 -53 -60 -53h-471q-59 0 -96 27.5t-37 84.5v508q0 60 53 60h96q54 0 54 -62zM620 379v-19q0 -60 -53 -60h-79q-54 0 -54 62v19q0 60 53 60h79q54 0 54 -62z" />
    <glyph glyph-name="ldot" unicode="&#x140;" horiz-adv-x="574" 
d="M251 618v-558q0 -60 -53 -60h-79q-54 0 -54 62v558q0 60 53 60h79q54 0 54 -62zM531 379v-19q0 -60 -53 -60h-79q-54 0 -54 62v19q0 60 53 60h79q54 0 54 -62z" />
    <glyph glyph-name="Lslash" unicode="&#x141;" horiz-adv-x="748" 
d="M70 112v129q0 18 -15 18q-3 0 -9 -2l-5 -2q-10 -4 -16 -4q-23 0 -23 29v37q0 34 30 45l14 5q24 9 24 34v219q0 60 53 60h96q54 0 54 -62v-148q0 -20 16 -20q5 0 11 2l154 57q8 3 16 3q26 0 26 -32v-24q0 -39 -35 -52l-162 -60q-15 -5 -20.5 -12.5t-5.5 -22.5v-112
q0 -39 40 -39h361q60 0 60 -53v-52q0 -53 -60 -53h-471q-59 0 -96 27.5t-37 84.5z" />
    <glyph glyph-name="lslash" unicode="&#x142;" horiz-adv-x="328" 
d="M257 292v-232q0 -60 -53 -60h-79q-54 0 -54 62v159q0 16 -11 16q-4 0 -10 -3l-7 -4q-10 -5 -18 -5q-18 0 -18 24v41q0 18 4.5 26.5t18.5 15.5l23 11q18 8 18 31v246q0 60 53 60h79q54 0 54 -62v-174q0 -16 11 -16q4 0 10 3l7 4q10 5 18 5q18 0 18 -24v-40
q0 -18 -4.5 -26.5t-18.5 -15.5l-23 -11q-18 -8 -18 -31z" />
    <glyph glyph-name="Nacute" unicode="&#x143;" horiz-adv-x="1042" 
d="M972 618v-533q0 -85 -93 -85h-158q-36 0 -54.5 10t-39.5 37l-311 412q-19 25 -30 25q-18 0 -18 -24v-400q0 -60 -53 -60h-91q-54 0 -54 62v533q0 85 93 85h162q36 0 54.5 -10t39.5 -37l307 -412q19 -25 30 -25q18 0 18 24v400q0 60 53 60h91q54 0 54 -62zM651 775
l-169 -47q-17 -5 -26 -5q-17 0 -29 22q-8 16 -8 23q0 16 24 29l145 77q24 12 36 12q21 0 35 -26l13 -24q9 -16 9 -28q0 -25 -30 -33z" />
    <glyph glyph-name="nacute" unicode="&#x144;" horiz-adv-x="778" 
d="M251 299v-239q0 -60 -53 -60h-80q-53 0 -53 60v320q0 103 129 103h211q71 0 115.5 -2.5t82.5 -12t57.5 -24t33.5 -41.5t18 -61t4 -87v-195q0 -60 -53 -60h-80q-53 0 -53 60v154q0 91 -25 114.5t-117 23.5h-77q-60 0 -60 -53zM521 602l-162 -64q-19 -7 -27 -7
q-17 0 -30 20q-9 13 -9 24q0 14 20 28l137 91q23 16 37 16q20 0 35 -23l15 -22q12 -18 12 -30q0 -22 -28 -33z" />
    <glyph glyph-name="Ncommaaccent" unicode="&#x145;" horiz-adv-x="1042" 
d="M972 618v-533q0 -85 -93 -85h-158q-36 0 -54.5 10t-39.5 37l-311 412q-19 25 -30 25q-18 0 -18 -24v-400q0 -60 -53 -60h-91q-54 0 -54 62v533q0 85 93 85h162q36 0 54.5 -10t39.5 -37l307 -412q19 -25 30 -25q18 0 18 24v400q0 60 53 60h91q54 0 54 -62zM604 -131
l-47 -87q-13 -24 -24.5 -32.5t-32.5 -8.5h-11q-38 0 -38 38v121q0 51 54 51h61q22 0 35.5 -11.5t13.5 -32.5q0 -19 -11 -38z" />
    <glyph glyph-name="ncommaaccent" unicode="&#x146;" horiz-adv-x="778" 
d="M251 299v-239q0 -60 -53 -60h-80q-53 0 -53 60v320q0 103 129 103h211q71 0 115.5 -2.5t82.5 -12t57.5 -24t33.5 -41.5t18 -61t4 -87v-195q0 -60 -53 -60h-80q-53 0 -53 60v154q0 91 -25 114.5t-117 23.5h-77q-60 0 -60 -53zM461 -131l-47 -87q-13 -24 -24.5 -32.5
t-32.5 -8.5h-11q-38 0 -38 38v121q0 51 54 51h61q22 0 35.5 -11.5t13.5 -32.5q0 -19 -11 -38z" />
    <glyph glyph-name="Ncaron" unicode="&#x147;" horiz-adv-x="1042" 
d="M972 618v-533q0 -85 -93 -85h-158q-36 0 -54.5 10t-39.5 37l-311 412q-19 25 -30 25q-18 0 -18 -24v-400q0 -60 -53 -60h-91q-54 0 -54 62v533q0 85 93 85h162q36 0 54.5 -10t39.5 -37l307 -412q19 -25 30 -25q18 0 18 24v400q0 60 53 60h91q54 0 54 -62zM525 844
q12 0 27 6l81 34q17 6 25 6q19 0 31 -21q7 -13 7 -24q0 -15 -21 -28l-119 -74q-15 -9 -31 -9t-31 9l-119 74q-21 13 -21 28q0 11 7 24q12 21 31 21q9 0 25 -6l81 -34q15 -6 27 -6z" />
    <glyph glyph-name="ncaron" unicode="&#x148;" horiz-adv-x="778" 
d="M251 299v-239q0 -60 -53 -60h-80q-53 0 -53 60v320q0 103 129 103h211q71 0 115.5 -2.5t82.5 -12t57.5 -24t33.5 -41.5t18 -61t4 -87v-195q0 -60 -53 -60h-80q-53 0 -53 60v154q0 91 -25 114.5t-117 23.5h-77q-60 0 -60 -53zM395 657q11 0 27 8l76 37q15 7 27 7
q17 0 30 -20q9 -13 9 -24q0 -14 -20 -28l-118 -82q-15 -10 -31 -10t-31 10l-118 82q-20 14 -20 28q0 11 9 24q13 20 30 20q12 0 27 -7l76 -37q16 -8 27 -8z" />
    <glyph glyph-name="Eng" unicode="&#x14a;" horiz-adv-x="1042" 
d="M972 618v-565q0 -223 -245 -223h-102q-52 0 -74.5 15t-22.5 46v21q0 56 67 56h120q52 0 52 29q0 14 -22 36l-426 429q-22 22 -33 22q-18 0 -18 -24v-400q0 -60 -53 -60h-91q-54 0 -54 62v558q0 60 53 60h221q23 0 36 -7t31 -25l313 -339q21 -23 32 -23q18 0 18 24v310
q0 60 53 60h91q54 0 54 -62z" />
    <glyph glyph-name="eng" unicode="&#x14b;" horiz-adv-x="778" 
d="M496 -170h-49q-49 0 -69.5 13.5t-20.5 42.5v21q0 51 62 51h29q47 0 64.5 15t17.5 55v186q0 91 -25 114.5t-117 23.5h-77q-60 0 -60 -53v-239q0 -60 -53 -60h-80q-53 0 -53 60v320q0 103 129 103h211q71 0 115.5 -2.5t82.5 -12t57.5 -24t33.5 -41.5t18 -61t4 -87v-225
q0 -113 -55.5 -156.5t-164.5 -43.5z" />
    <glyph glyph-name="Omacron" unicode="&#x14c;" horiz-adv-x="1029" 
d="M530 -5h-31q-105 0 -169 3.5t-118.5 17.5t-81.5 34.5t-46.5 61.5t-24.5 91t-5 130v14q0 80 5 130t24.5 91t46.5 61.5t81.5 34.5t118.5 17.5t169 3.5h31q105 0 169 -3.5t118.5 -17.5t81.5 -34.5t46.5 -61.5t24.5 -91t5 -130v-14q0 -80 -5 -130t-24.5 -91t-46.5 -61.5
t-81.5 -34.5t-118.5 -17.5t-169 -3.5zM506 152h17q65 0 101 1.5t67.5 9.5t44.5 17.5t22.5 34t11 49.5t1.5 74v5q0 49 -1.5 75t-11 50.5t-22.5 34t-44.5 17.5t-67.5 9.5t-101 1.5h-17q-65 0 -101 -1.5t-67.5 -9.5t-44.5 -17.5t-22.5 -34t-11 -50.5t-1.5 -75v-5q0 -49 1.5 -74
t11 -49.5t22.5 -34t44.5 -17.5t67.5 -9.5t101 -1.5zM385 850h260q42 0 42 -44v-6q0 -44 -42 -44h-260q-42 0 -42 43v6q0 21 11 33t31 12z" />
    <glyph glyph-name="omacron" unicode="&#x14d;" horiz-adv-x="751" 
d="M359 132h33q87 0 109 18.5t22 88.5v5q0 70 -22 88.5t-109 18.5h-33q-87 0 -109 -18.5t-22 -88.5v-5q0 -70 22 -88.5t109 -18.5zM398 -3h-45q-66 0 -109 3t-79.5 13t-57.5 26t-35.5 44t-20 65t-5.5 91v5q0 65 9.5 106t28 68.5t57 41t86 18.5t126.5 5h45q79 0 127 -5
t86.5 -18.5t57 -41t27.5 -68.5t9 -106v-5q0 -54 -5.5 -91t-20 -65t-35.5 -44t-57.5 -26t-79.5 -13t-109 -3zM246 662h260q42 0 42 -44v-6q0 -44 -42 -44h-260q-42 0 -42 43v6q0 21 11 33t31 12z" />
    <glyph glyph-name="Obreve" unicode="&#x14e;" horiz-adv-x="1029" 
d="M530 -5h-31q-105 0 -169 3.5t-118.5 17.5t-81.5 34.5t-46.5 61.5t-24.5 91t-5 130v14q0 80 5 130t24.5 91t46.5 61.5t81.5 34.5t118.5 17.5t169 3.5h31q105 0 169 -3.5t118.5 -17.5t81.5 -34.5t46.5 -61.5t24.5 -91t5 -130v-14q0 -80 -5 -130t-24.5 -91t-46.5 -61.5
t-81.5 -34.5t-118.5 -17.5t-169 -3.5zM506 152h17q65 0 101 1.5t67.5 9.5t44.5 17.5t22.5 34t11 49.5t1.5 74v5q0 49 -1.5 75t-11 50.5t-22.5 34t-44.5 17.5t-67.5 9.5t-101 1.5h-17q-65 0 -101 -1.5t-67.5 -9.5t-44.5 -17.5t-22.5 -34t-11 -50.5t-1.5 -75v-5q0 -49 1.5 -74
t11 -49.5t22.5 -34t44.5 -17.5t67.5 -9.5t101 -1.5zM515 818q43 0 65 8.5t35 30.5q9 16 32 16h38q23 0 23 -22q0 -8 -5 -23q-17 -49 -68.5 -75t-119.5 -26t-119.5 26t-68.5 75q-5 15 -5 23q0 22 23 22h38q23 0 32 -16q13 -22 35 -30.5t65 -8.5z" />
    <glyph glyph-name="obreve" unicode="&#x14f;" horiz-adv-x="751" 
d="M359 132h33q87 0 109 18.5t22 88.5v5q0 70 -22 88.5t-109 18.5h-33q-87 0 -109 -18.5t-22 -88.5v-5q0 -70 22 -88.5t109 -18.5zM398 -3h-45q-66 0 -109 3t-79.5 13t-57.5 26t-35.5 44t-20 65t-5.5 91v5q0 65 9.5 106t28 68.5t57 41t86 18.5t126.5 5h45q79 0 127 -5
t86.5 -18.5t57 -41t27.5 -68.5t9 -106v-5q0 -54 -5.5 -91t-20 -65t-35.5 -44t-57.5 -26t-79.5 -13t-109 -3zM377 625q43 0 65 8.5t35 30.5q9 16 32 16h38q23 0 23 -22q0 -8 -5 -23q-17 -49 -68.5 -75t-119.5 -26t-119.5 26t-68.5 75q-5 15 -5 23q0 22 23 22h38q23 0 32 -16
q13 -22 35 -30.5t65 -8.5z" />
    <glyph glyph-name="Ohungarumlaut" unicode="&#x150;" horiz-adv-x="1029" 
d="M530 -5h-31q-105 0 -169 3.5t-118.5 17.5t-81.5 34.5t-46.5 61.5t-24.5 91t-5 130v14q0 80 5 130t24.5 91t46.5 61.5t81.5 34.5t118.5 17.5t169 3.5h31q105 0 169 -3.5t118.5 -17.5t81.5 -34.5t46.5 -61.5t24.5 -91t5 -130v-14q0 -80 -5 -130t-24.5 -91t-46.5 -61.5
t-81.5 -34.5t-118.5 -17.5t-169 -3.5zM506 152h17q65 0 101 1.5t67.5 9.5t44.5 17.5t22.5 34t11 49.5t1.5 74v5q0 49 -1.5 75t-11 50.5t-22.5 34t-44.5 17.5t-67.5 9.5t-101 1.5h-17q-65 0 -101 -1.5t-67.5 -9.5t-44.5 -17.5t-22.5 -34t-11 -50.5t-1.5 -75v-5q0 -49 1.5 -74
t11 -49.5t22.5 -34t44.5 -17.5t67.5 -9.5t101 -1.5zM763 781l-141 -54q-12 -4 -21 -4q-15 0 -28 22q-7 13 -7 22q0 15 21 27l121 71q21 13 33 13q16 0 31 -22l13 -19q9 -13 9 -24q0 -21 -31 -32zM527 781l-134 -54q-12 -4 -21 -4q-15 0 -28 22q-7 13 -7 22q0 15 21 27
l114 71q21 13 33 13q16 0 31 -22l13 -19q9 -13 9 -24q0 -21 -31 -32z" />
    <glyph glyph-name="ohungarumlaut" unicode="&#x151;" horiz-adv-x="751" 
d="M359 132h33q87 0 109 18.5t22 88.5v5q0 70 -22 88.5t-109 18.5h-33q-87 0 -109 -18.5t-22 -88.5v-5q0 -70 22 -88.5t109 -18.5zM398 -3h-45q-66 0 -109 3t-79.5 13t-57.5 26t-35.5 44t-20 65t-5.5 91v5q0 65 9.5 106t28 68.5t57 41t86 18.5t126.5 5h45q79 0 127 -5
t86.5 -18.5t57 -41t27.5 -68.5t9 -106v-5q0 -54 -5.5 -91t-20 -65t-35.5 -44t-57.5 -26t-79.5 -13t-109 -3zM389 614l-127 -68q-14 -7 -23 -7q-15 0 -29 20q-8 12 -8 22q0 13 18 27l104 81q22 18 36 18q16 0 30 -17l16 -19q11 -13 11 -25q0 -17 -28 -32zM619 614l-134 -68
q-14 -7 -23 -7q-15 0 -29 20q-8 12 -8 22q0 13 18 27l114 84q20 15 33 15q16 0 30 -17l16 -19q11 -13 11 -25q0 -17 -28 -32z" />
    <glyph glyph-name="OE" unicode="&#x152;" horiz-adv-x="1558" 
d="M1001 154h472q60 0 60 -53v-48q0 -53 -60 -53h-974q-105 0 -169 3.5t-118.5 17.5t-81.5 34t-46.5 60t-24.5 89.5t-5 127.5v16q0 79 5 128t24.5 89t46.5 60.5t81.5 34t118.5 17t169 3.5h962q60 0 60 -53v-44q0 -53 -60 -53h-460q-39 0 -39 -33v-49q0 -35 39 -35h433
q60 0 60 -53v-36q0 -53 -60 -53h-433q-39 0 -39 -33v-49q0 -35 39 -35zM605 526h-99q-65 0 -101 -1t-67.5 -9t-44.5 -17.5t-22.5 -33.5t-11 -48.5t-1.5 -72.5v-7q0 -47 1.5 -71.5t11 -48t22.5 -33t44.5 -17t68 -9t100.5 -1.5h99q102 0 134 24.5t32 87.5v145q0 62 -32.5 87
t-133.5 25z" />
    <glyph glyph-name="oe" unicode="&#x153;" horiz-adv-x="1193" 
d="M742 300h195q24 0 31 7t7 22q0 24 -19.5 33.5t-71.5 9.5h-142q-42 0 -42 -27v-18q0 -27 42 -27zM874 -3h-521q-79 0 -127 5.5t-86.5 19t-57 41t-27.5 68t-9 104.5v9q0 79 12.5 124.5t50.5 72t92 34.5t152 8h491q49 0 77.5 -0.5t63.5 -3t54 -8t41 -14.5t33 -22.5t21 -33.5
t13.5 -46.5t3.5 -60.5q0 -49 -23.5 -71t-71.5 -22h-315q-25 0 -33.5 -6t-8.5 -20v-25q0 -14 9 -20.5t34 -6.5h339q60 0 60 -50v-14q0 -43 -43.5 -52.5t-223.5 -9.5zM421 351h-62q-87 0 -109 -17.5t-22 -87.5v-11q0 -67 22.5 -85t108.5 -18h62q61 0 81.5 13.5t20.5 49.5v93
q0 36 -20.5 49.5t-81.5 13.5z" />
    <glyph glyph-name="Racute" unicode="&#x154;" horiz-adv-x="944" 
d="M309 337h212q97 0 127 15t30 64v37q0 33 -11 48t-45 22t-106 7h-207q-39 0 -39 -33v-125q0 -35 39 -35zM270 156v-96q0 -60 -53 -60h-94q-53 0 -53 60v508q0 58 37 85t96 27h390q158 0 223 -40t65 -157v-36q0 -56 -24 -88t-69 -54q-17 -9 -17 -18q0 -12 15 -16
q51 -16 73.5 -56t22.5 -125v-30q0 -60 -53 -60h-94q-53 0 -53 60v11q0 32 -1 48t-10.5 31.5t-21.5 21.5t-43 11t-64.5 5.5t-96.5 0.5h-136q-39 0 -39 -33zM594 775l-169 -47q-17 -5 -26 -5q-17 0 -29 22q-8 16 -8 23q0 16 24 29l145 77q24 12 36 12q21 0 35 -26l13 -24
q9 -16 9 -28q0 -25 -30 -33z" />
    <glyph glyph-name="racute" unicode="&#x155;" horiz-adv-x="627" 
d="M455 602l-162 -64q-19 -7 -27 -7q-17 0 -30 20q-9 13 -9 24q0 14 20 28l137 91q23 16 37 16q20 0 35 -23l15 -22q12 -18 12 -30q0 -22 -28 -33zM351 355h-39q-61 0 -61 -53v-242q0 -60 -53 -60h-80q-53 0 -53 60v320q0 48 27 75.5t98 27.5h217q100 0 148.5 -30t48.5 -113
v-14q0 -57 -53 -57h-61q-51 0 -55 43q-2 27 -18.5 35t-65.5 8z" />
    <glyph glyph-name="Rcommaaccent" unicode="&#x156;" horiz-adv-x="944" 
d="M309 337h212q97 0 127 15t30 64v37q0 33 -11 48t-45 22t-106 7h-207q-39 0 -39 -33v-125q0 -35 39 -35zM270 156v-96q0 -60 -53 -60h-94q-53 0 -53 60v508q0 58 37 85t96 27h390q158 0 223 -40t65 -157v-36q0 -56 -24 -88t-69 -54q-17 -9 -17 -18q0 -12 15 -16
q51 -16 73.5 -56t22.5 -125v-30q0 -60 -53 -60h-94q-53 0 -53 60v11q0 32 -1 48t-10.5 31.5t-21.5 21.5t-43 11t-64.5 5.5t-96.5 0.5h-136q-39 0 -39 -33zM547 -131l-47 -87q-13 -24 -24.5 -32.5t-32.5 -8.5h-11q-38 0 -38 38v121q0 51 54 51h61q22 0 35.5 -11.5t13.5 -32.5
q0 -19 -11 -38z" />
    <glyph glyph-name="rcommaaccent" unicode="&#x157;" horiz-adv-x="627" 
d="M223 -131l-47 -87q-13 -24 -24.5 -32.5t-32.5 -8.5h-11q-38 0 -38 38v121q0 51 54 51h61q22 0 35.5 -11.5t13.5 -32.5q0 -19 -11 -38zM351 355h-39q-61 0 -61 -53v-242q0 -60 -53 -60h-80q-53 0 -53 60v320q0 48 27 75.5t98 27.5h217q100 0 148.5 -30t48.5 -113v-14
q0 -57 -53 -57h-61q-51 0 -55 43q-2 27 -18.5 35t-65.5 8z" />
    <glyph glyph-name="Rcaron" unicode="&#x158;" horiz-adv-x="944" 
d="M309 337h212q97 0 127 15t30 64v37q0 33 -11 48t-45 22t-106 7h-207q-39 0 -39 -33v-125q0 -35 39 -35zM270 156v-96q0 -60 -53 -60h-94q-53 0 -53 60v508q0 58 37 85t96 27h390q158 0 223 -40t65 -157v-36q0 -56 -24 -88t-69 -54q-17 -9 -17 -18q0 -12 15 -16
q51 -16 73.5 -56t22.5 -125v-30q0 -60 -53 -60h-94q-53 0 -53 60v11q0 32 -1 48t-10.5 31.5t-21.5 21.5t-43 11t-64.5 5.5t-96.5 0.5h-136q-39 0 -39 -33zM468 844q12 0 27 6l81 34q17 6 25 6q19 0 31 -21q7 -13 7 -24q0 -15 -21 -28l-119 -74q-15 -9 -31 -9t-31 9l-119 74
q-21 13 -21 28q0 11 7 24q12 21 31 21q9 0 25 -6l81 -34q15 -6 27 -6z" />
    <glyph glyph-name="rcaron" unicode="&#x159;" horiz-adv-x="627" 
d="M329 657q11 0 27 8l76 37q15 7 27 7q17 0 30 -20q9 -13 9 -24q0 -14 -20 -28l-118 -82q-15 -10 -31 -10t-31 10l-118 82q-20 14 -20 28q0 11 9 24q13 20 30 20q12 0 27 -7l76 -37q16 -8 27 -8zM351 355h-39q-61 0 -61 -53v-242q0 -60 -53 -60h-80q-53 0 -53 60v320
q0 48 27 75.5t98 27.5h217q100 0 148.5 -30t48.5 -113v-14q0 -57 -53 -57h-61q-51 0 -55 43q-2 27 -18.5 35t-65.5 8z" />
    <glyph glyph-name="Sacute" unicode="&#x15a;" horiz-adv-x="955" 
d="M611 775l-169 -47q-17 -5 -26 -5q-17 0 -29 22q-8 16 -8 23q0 16 24 29l145 77q24 12 36 12q21 0 35 -26l13 -24q9 -16 9 -28q0 -25 -30 -33zM532 -5h-182q-210 0 -253.5 12t-43.5 69v16q0 31 17.5 44t53.5 13h478q59 0 82.5 12t23.5 44v10q0 28 -24 39t-81 11h-311
q-125 0 -178 41.5t-53 145.5v24q0 52 7.5 87.5t33 59t48.5 36t80.5 18.5t101 7t136.5 1h89q78 0 127.5 -1t90 -4.5t61.5 -8.5t35.5 -15t18.5 -22t4 -31v-10q0 -37 -18 -47.5t-58 -10.5h-465q-56 0 -75 -12t-19 -36v-10q0 -30 18.5 -42t75.5 -12h290q70 0 114 -6.5
t80.5 -25.5t53 -56.5t16.5 -97.5v-21q0 -136 -77 -178.5t-298 -42.5z" />
    <glyph glyph-name="sacute" unicode="&#x15b;" horiz-adv-x="726" 
d="M376 -3h-85q-115 0 -165.5 6t-64 18.5t-13.5 41.5v16q0 43 58 43h275q82 0 102 4.5t20 22.5v5q0 10 -9.5 15t-41 8t-95.5 3q-129 0 -191 11.5t-84.5 38t-22.5 80.5v15q0 43 9.5 70t28 45.5t58 27t87 12t127.5 3.5h24q90 0 140.5 -2.5t82 -9.5t41 -18t9.5 -31v-16
q0 -27 -15.5 -36.5t-46.5 -9.5h-285q-49 0 -64.5 -5t-15.5 -20v-7q0 -10 10 -15t41 -8t89 -3q185 0 244 -24.5t59 -112.5v-8q0 -95 -64 -127.5t-242 -32.5zM494 602l-162 -64q-19 -7 -27 -7q-17 0 -30 20q-9 13 -9 24q0 14 20 28l137 91q23 16 37 16q20 0 35 -23l15 -22
q12 -18 12 -30q0 -22 -28 -33z" />
    <glyph glyph-name="Scircumflex" unicode="&#x15c;" horiz-adv-x="955" 
d="M486 784q-12 0 -27 -6l-81 -34q-16 -6 -25 -6q-19 0 -31 21q-7 13 -7 24q0 15 21 28l119 74q15 9 31 9t31 -9l119 -74q21 -13 21 -28q0 -11 -7 -24q-12 -21 -31 -21q-9 0 -25 6l-81 34q-15 6 -27 6zM532 -5h-182q-210 0 -253.5 12t-43.5 69v16q0 31 17.5 44t53.5 13h478
q59 0 82.5 12t23.5 44v10q0 28 -24 39t-81 11h-311q-125 0 -178 41.5t-53 145.5v24q0 52 7.5 87.5t33 59t48.5 36t80.5 18.5t101 7t136.5 1h89q78 0 127.5 -1t90 -4.5t61.5 -8.5t35.5 -15t18.5 -22t4 -31v-10q0 -37 -18 -47.5t-58 -10.5h-465q-56 0 -75 -12t-19 -36v-10
q0 -30 18.5 -42t75.5 -12h290q70 0 114 -6.5t80.5 -25.5t53 -56.5t16.5 -97.5v-21q0 -136 -77 -178.5t-298 -42.5z" />
    <glyph glyph-name="scircumflex" unicode="&#x15d;" horiz-adv-x="726" 
d="M376 -3h-85q-115 0 -165.5 6t-64 18.5t-13.5 41.5v16q0 43 58 43h275q82 0 102 4.5t20 22.5v5q0 10 -9.5 15t-41 8t-95.5 3q-129 0 -191 11.5t-84.5 38t-22.5 80.5v15q0 43 9.5 70t28 45.5t58 27t87 12t127.5 3.5h24q90 0 140.5 -2.5t82 -9.5t41 -18t9.5 -31v-16
q0 -27 -15.5 -36.5t-46.5 -9.5h-285q-49 0 -64.5 -5t-15.5 -20v-7q0 -10 10 -15t41 -8t89 -3q185 0 244 -24.5t59 -112.5v-8q0 -95 -64 -127.5t-242 -32.5zM367 595q-11 0 -27 -8l-76 -37q-15 -7 -27 -7q-17 0 -30 20q-9 13 -9 24q0 14 20 28l118 82q15 10 31 10t31 -10
l118 -82q20 -14 20 -28q0 -11 -9 -24q-13 -20 -30 -20q-12 0 -27 7l-76 37q-16 8 -27 8z" />
    <glyph glyph-name="Scedilla" unicode="&#x15e;" horiz-adv-x="955" 
d="M548 -128l-162 -64q-19 -7 -27 -7q-17 0 -30 20q-9 13 -9 24q0 14 20 28l137 91q23 16 37 16q20 0 35 -23l15 -22q12 -18 12 -30q0 -22 -28 -33zM532 -5h-182q-210 0 -253.5 12t-43.5 69v16q0 31 17.5 44t53.5 13h478q59 0 82.5 12t23.5 44v10q0 28 -24 39t-81 11h-311
q-125 0 -178 41.5t-53 145.5v24q0 52 7.5 87.5t33 59t48.5 36t80.5 18.5t101 7t136.5 1h89q78 0 127.5 -1t90 -4.5t61.5 -8.5t35.5 -15t18.5 -22t4 -31v-10q0 -37 -18 -47.5t-58 -10.5h-465q-56 0 -75 -12t-19 -36v-10q0 -30 18.5 -42t75.5 -12h290q70 0 114 -6.5
t80.5 -25.5t53 -56.5t16.5 -97.5v-21q0 -136 -77 -178.5t-298 -42.5z" />
    <glyph glyph-name="scedilla" unicode="&#x15f;" horiz-adv-x="726" 
d="M376 -3h-85q-115 0 -165.5 6t-64 18.5t-13.5 41.5v16q0 43 58 43h275q82 0 102 4.5t20 22.5v5q0 10 -9.5 15t-41 8t-95.5 3q-129 0 -191 11.5t-84.5 38t-22.5 80.5v15q0 43 9.5 70t28 45.5t58 27t87 12t127.5 3.5h24q90 0 140.5 -2.5t82 -9.5t41 -18t9.5 -31v-16
q0 -27 -15.5 -36.5t-46.5 -9.5h-285q-49 0 -64.5 -5t-15.5 -20v-7q0 -10 10 -15t41 -8t89 -3q185 0 244 -24.5t59 -112.5v-8q0 -95 -64 -127.5t-242 -32.5zM426 -128l-162 -64q-19 -7 -27 -7q-17 0 -30 20q-9 13 -9 24q0 14 20 28l137 91q23 16 37 16q20 0 35 -23l15 -22
q12 -18 12 -30q0 -22 -28 -33z" />
    <glyph glyph-name="Scaron" unicode="&#x160;" horiz-adv-x="955" 
d="M485 844q12 0 27 6l81 34q17 6 25 6q19 0 31 -21q7 -13 7 -24q0 -15 -21 -28l-119 -74q-15 -9 -31 -9t-31 9l-119 74q-21 13 -21 28q0 11 7 24q12 21 31 21q8 0 25 -6l81 -34q15 -6 27 -6zM532 -5h-182q-210 0 -253.5 12t-43.5 69v16q0 31 17.5 44t53.5 13h478
q59 0 82.5 12t23.5 44v10q0 28 -24 39t-81 11h-311q-125 0 -178 41.5t-53 145.5v24q0 52 7.5 87.5t33 59t48.5 36t80.5 18.5t101 7t136.5 1h89q78 0 127.5 -1t90 -4.5t61.5 -8.5t35.5 -15t18.5 -22t4 -31v-10q0 -37 -18 -47.5t-58 -10.5h-465q-56 0 -75 -12t-19 -36v-10
q0 -30 18.5 -42t75.5 -12h290q70 0 114 -6.5t80.5 -25.5t53 -56.5t16.5 -97.5v-21q0 -136 -77 -178.5t-298 -42.5z" />
    <glyph glyph-name="scaron" unicode="&#x161;" horiz-adv-x="726" 
d="M376 -3h-85q-115 0 -165.5 6t-64 18.5t-13.5 41.5v16q0 43 58 43h275q82 0 102 4.5t20 22.5v5q0 10 -9.5 15t-41 8t-95.5 3q-129 0 -191 11.5t-84.5 38t-22.5 80.5v15q0 43 9.5 70t28 45.5t58 27t87 12t127.5 3.5h24q90 0 140.5 -2.5t82 -9.5t41 -18t9.5 -31v-16
q0 -27 -15.5 -36.5t-46.5 -9.5h-285q-49 0 -64.5 -5t-15.5 -20v-7q0 -10 10 -15t41 -8t89 -3q185 0 244 -24.5t59 -112.5v-8q0 -95 -64 -127.5t-242 -32.5zM369 657q11 0 27 8l76 37q15 7 27 7q17 0 30 -20q9 -13 9 -24q0 -14 -20 -28l-118 -82q-15 -10 -31 -10t-31 10
l-118 82q-20 14 -20 28q0 11 9 24q13 20 30 20q12 0 27 -7l76 -37q16 -8 27 -8z" />
    <glyph glyph-name="Tcommaaccent" unicode="&#x162;" horiz-adv-x="828" 
d="M313 62v430q0 19 -8.5 26.5t-30.5 7.5h-196q-60 0 -60 53v48q0 53 60 53h672q60 0 60 -53v-48q0 -53 -60 -53h-196q-22 0 -30.5 -7.5t-8.5 -26.5v-432q0 -60 -53 -60h-95q-54 0 -54 62zM481 -131l-47 -87q-13 -24 -24.5 -32.5t-32.5 -8.5h-11q-38 0 -38 38v121
q0 51 54 51h61q22 0 35.5 -11.5t13.5 -32.5q0 -19 -11 -38z" />
    <glyph glyph-name="tcommaaccent" unicode="&#x163;" horiz-adv-x="617" 
d="M131 169v149q0 21 -9.5 28t-29.5 7h-16q-60 0 -60 53v20q0 54 62 54h13q22 0 31 8t9 26v30q0 61 53 61h73q54 0 54 -63v-27q0 -20 9.5 -27.5t28.5 -7.5h180q60 0 60 -53v-20q0 -54 -62 -54h-177q-22 0 -30.5 -7.5t-8.5 -26.5v-93q0 -62 15 -77.5t70 -15.5h126
q31 0 45.5 -8.5t14.5 -34.5v-29q0 -43 -38.5 -53.5t-180.5 -10.5h-23q-89 0 -135 20t-60 54t-14 98zM421 -131l-47 -87q-13 -24 -24.5 -32.5t-32.5 -8.5h-11q-38 0 -38 38v121q0 51 54 51h61q22 0 35.5 -11.5t13.5 -32.5q0 -19 -11 -38z" />
    <glyph glyph-name="Tcaron" unicode="&#x164;" horiz-adv-x="828" 
d="M313 62v430q0 19 -8.5 26.5t-30.5 7.5h-196q-60 0 -60 53v48q0 53 60 53h672q60 0 60 -53v-48q0 -53 -60 -53h-196q-22 0 -30.5 -7.5t-8.5 -26.5v-432q0 -60 -53 -60h-95q-54 0 -54 62zM415 844q12 0 27 6l81 34q17 6 25 6q19 0 31 -21q7 -13 7 -24q0 -15 -21 -28
l-119 -74q-15 -9 -31 -9t-31 9l-119 74q-21 13 -21 28q0 11 7 24q12 21 31 21q8 0 25 -6l81 -34q15 -6 27 -6z" />
    <glyph glyph-name="tcaron" unicode="&#x165;" horiz-adv-x="617" 
d="M131 169v149q0 21 -9.5 28t-29.5 7h-16q-60 0 -60 53v20q0 54 62 54h13q22 0 31 8t9 26v30q0 61 53 61h73q54 0 54 -63v-27q0 -20 9.5 -27.5t28.5 -7.5h89q60 0 60 -53v-20q0 -54 -62 -54h-86q-22 0 -30.5 -7.5t-8.5 -26.5v-93q0 -62 15 -77.5t70 -15.5h126
q31 0 45.5 -8.5t14.5 -34.5v-29q0 -43 -38.5 -53.5t-180.5 -10.5h-23q-89 0 -135 20t-60 54t-14 98zM685 596l-42 -108q-16 -41 -60 -41h-8q-41 0 -41 39v142q0 52 54 52h55q51 0 51 -46q0 -17 -9 -38z" />
    <glyph glyph-name="Tbar" unicode="&#x166;" horiz-adv-x="828" 
d="M313 451v41q0 19 -8.5 26.5t-30.5 7.5h-196q-60 0 -60 53v48q0 53 60 53h672q60 0 60 -53v-48q0 -53 -60 -53h-196q-22 0 -30.5 -7.5t-8.5 -26.5v-41q0 -31 35 -31h145q21 0 32.5 -12.5t11.5 -33.5v-6q0 -47 -44 -47h-145q-35 0 -35 -31v-230q0 -60 -53 -60h-95
q-54 0 -54 62v228q0 31 -35 31h-132q-44 0 -44 45v7q0 21 11.5 34t32.5 13h132q35 0 35 31z" />
    <glyph glyph-name="tbar" unicode="&#x167;" horiz-adv-x="617" 
d="M311 194q0 -37 17.5 -49t67.5 -12h126q31 0 45.5 -8.5t14.5 -34.5v-29q0 -43 -38.5 -53.5t-180.5 -10.5h-23q-89 0 -135 20t-60 54t-14 98v24q0 12 -5.5 16.5t-20.5 4.5h-30q-37 0 -37 36v10q0 17 10 27t27 10h30q15 0 20.5 4.5t5.5 15.5v8q0 17 -7.5 22.5t-24.5 5.5h-23
q-60 0 -60 53v20q0 54 62 54h13q22 0 31 8t9 26v30q0 61 53 61h73q54 0 54 -63v-27q0 -20 9.5 -27.5t28.5 -7.5h180q60 0 60 -53v-20q0 -54 -62 -54h-184q-18 0 -25 -6t-7 -21v-8q0 -12 5.5 -16.5t20.5 -4.5h118q37 0 37 -36v-10q0 -37 -37 -37h-118q-15 0 -20.5 -4.5
t-5.5 -15.5z" />
    <glyph glyph-name="Utilde" unicode="&#x168;" horiz-adv-x="979" 
d="M708 292v328q0 60 53 60h97q53 0 53 -60v-390q0 -53 -8.5 -90t-31 -63.5t-51.5 -42t-79.5 -24.5t-104.5 -12t-137 -3h-20q-84 0 -137 3t-104 11.5t-79.5 24t-51 41.5t-31 64t-8.5 91v390q0 60 53 60h97q53 0 53 -60v-328q0 -33 3 -55t13 -38t22.5 -24.5t39 -13.5t53.5 -6
t74 -1h31q47 0 73.5 1.5t52.5 6.5t37.5 13t22 24t13 38t2.5 55zM423 882q30 0 74.5 -23.5t61.5 -23.5q22 0 33 23q9 21 23 21q17 0 33 -8t16 -22q0 -4 -2 -14q-23 -101 -108 -101q-30 0 -74 23.5t-61 23.5q-24 0 -35 -23q-9 -21 -23 -21q-15 0 -31 8t-16 22q0 4 2 14
q23 101 107 101z" />
    <glyph glyph-name="utilde" unicode="&#x169;" horiz-adv-x="773" 
d="M522 182v238q0 60 53 60h80q53 0 53 -60v-320q0 -103 -129 -103h-211q-71 0 -115.5 2.5t-82.5 12t-57.5 24t-33.5 41.5t-18 61t-4 87v195q0 60 53 60h80q53 0 53 -60v-153q0 -91 25 -114.5t117 -23.5h77q60 0 60 53zM318 695q30 0 74.5 -23.5t61.5 -23.5q22 0 33 23
q9 21 23 21q17 0 33 -8t16 -22q0 -4 -2 -14q-23 -101 -108 -101q-30 0 -74 23.5t-61 23.5q-24 0 -35 -23q-9 -21 -23 -21q-15 0 -31 8t-16 22q0 4 2 14q23 101 107 101z" />
    <glyph glyph-name="Umacron" unicode="&#x16a;" horiz-adv-x="979" 
d="M708 292v328q0 60 53 60h97q53 0 53 -60v-390q0 -53 -8.5 -90t-31 -63.5t-51.5 -42t-79.5 -24.5t-104.5 -12t-137 -3h-20q-84 0 -137 3t-104 11.5t-79.5 24t-51 41.5t-31 64t-8.5 91v390q0 60 53 60h97q53 0 53 -60v-328q0 -33 3 -55t13 -38t22.5 -24.5t39 -13.5t53.5 -6
t74 -1h31q47 0 73.5 1.5t52.5 6.5t37.5 13t22 24t13 38t2.5 55zM359 850h260q42 0 42 -44v-6q0 -44 -42 -44h-260q-42 0 -42 43v6q0 21 11 33t31 12z" />
    <glyph glyph-name="umacron" unicode="&#x16b;" horiz-adv-x="773" 
d="M522 182v238q0 60 53 60h80q53 0 53 -60v-320q0 -103 -129 -103h-211q-71 0 -115.5 2.5t-82.5 12t-57.5 24t-33.5 41.5t-18 61t-4 87v195q0 60 53 60h80q53 0 53 -60v-153q0 -91 25 -114.5t117 -23.5h77q60 0 60 53zM254 662h260q42 0 42 -44v-6q0 -44 -42 -44h-260
q-42 0 -42 43v6q0 21 11 33t31 12z" />
    <glyph glyph-name="Ubreve" unicode="&#x16c;" horiz-adv-x="979" 
d="M708 292v328q0 60 53 60h97q53 0 53 -60v-390q0 -53 -8.5 -90t-31 -63.5t-51.5 -42t-79.5 -24.5t-104.5 -12t-137 -3h-20q-84 0 -137 3t-104 11.5t-79.5 24t-51 41.5t-31 64t-8.5 91v390q0 60 53 60h97q53 0 53 -60v-328q0 -33 3 -55t13 -38t22.5 -24.5t39 -13.5t53.5 -6
t74 -1h31q47 0 73.5 1.5t52.5 6.5t37.5 13t22 24t13 38t2.5 55zM489 818q43 0 65 8.5t35 30.5q9 16 32 16h38q23 0 23 -22q0 -8 -5 -23q-17 -49 -68.5 -75t-119.5 -26t-119.5 26t-68.5 75q-5 15 -5 23q0 22 23 22h38q23 0 32 -16q13 -22 35 -30.5t65 -8.5z" />
    <glyph glyph-name="ubreve" unicode="&#x16d;" horiz-adv-x="773" 
d="M522 182v238q0 60 53 60h80q53 0 53 -60v-320q0 -103 -129 -103h-211q-71 0 -115.5 2.5t-82.5 12t-57.5 24t-33.5 41.5t-18 61t-4 87v195q0 60 53 60h80q53 0 53 -60v-153q0 -91 25 -114.5t117 -23.5h77q60 0 60 53zM385 625q43 0 65 8.5t35 30.5q9 16 32 16h38
q23 0 23 -22q0 -8 -5 -23q-17 -49 -68.5 -75t-119.5 -26t-119.5 26t-68.5 75q-5 15 -5 23q0 22 23 22h38q23 0 32 -16q13 -22 35 -30.5t65 -8.5z" />
    <glyph glyph-name="Uring" unicode="&#x16e;" horiz-adv-x="979" 
d="M708 292v328q0 60 53 60h97q53 0 53 -60v-390q0 -53 -8.5 -90t-31 -63.5t-51.5 -42t-79.5 -24.5t-104.5 -12t-137 -3h-20q-84 0 -137 3t-104 11.5t-79.5 24t-51 41.5t-31 64t-8.5 91v390q0 60 53 60h97q53 0 53 -60v-328q0 -33 3 -55t13 -38t22.5 -24.5t39 -13.5t53.5 -6
t74 -1h31q47 0 73.5 1.5t52.5 6.5t37.5 13t22 24t13 38t2.5 55zM492 716h-6q-77 0 -105.5 19t-28.5 68v6q0 49 28 67.5t106 18.5h6q78 0 106 -18.5t28 -67.5v-6q0 -49 -28.5 -68t-105.5 -19zM486 768h6q43 0 57.5 7.5t14.5 27.5v6q0 19 -14.5 26t-57.5 7h-6q-43 0 -57.5 -7
t-14.5 -26v-6q0 -20 14.5 -27.5t57.5 -7.5z" />
    <glyph glyph-name="uring" unicode="&#x16f;" horiz-adv-x="773" 
d="M522 182v238q0 60 53 60h80q53 0 53 -60v-320q0 -103 -129 -103h-211q-71 0 -115.5 2.5t-82.5 12t-57.5 24t-33.5 41.5t-18 61t-4 87v195q0 60 53 60h80q53 0 53 -60v-153q0 -91 25 -114.5t117 -23.5h77q60 0 60 53zM387 535h-6q-77 0 -105.5 19t-28.5 68v6q0 49 28 67.5
t106 18.5h6q78 0 106 -18.5t28 -67.5v-6q0 -49 -28.5 -68t-105.5 -19zM381 587h6q43 0 57.5 7.5t14.5 27.5v6q0 19 -14.5 26t-57.5 7h-6q-43 0 -57.5 -7t-14.5 -26v-6q0 -20 14.5 -27.5t57.5 -7.5z" />
    <glyph glyph-name="Uhungarumlaut" unicode="&#x170;" horiz-adv-x="979" 
d="M708 292v328q0 60 53 60h97q53 0 53 -60v-390q0 -53 -8.5 -90t-31 -63.5t-51.5 -42t-79.5 -24.5t-104.5 -12t-137 -3h-20q-84 0 -137 3t-104 11.5t-79.5 24t-51 41.5t-31 64t-8.5 91v390q0 60 53 60h97q53 0 53 -60v-328q0 -33 3 -55t13 -38t22.5 -24.5t39 -13.5t53.5 -6
t74 -1h31q47 0 73.5 1.5t52.5 6.5t37.5 13t22 24t13 38t2.5 55zM737 781l-141 -54q-12 -4 -21 -4q-15 0 -28 22q-7 13 -7 22q0 15 21 27l121 71q21 13 33 13q16 0 31 -22l13 -19q9 -13 9 -24q0 -21 -31 -32zM501 781l-134 -54q-12 -4 -21 -4q-15 0 -28 22q-7 13 -7 22
q0 15 21 27l114 71q21 13 33 13q16 0 31 -22l13 -19q9 -13 9 -24q0 -21 -31 -32z" />
    <glyph glyph-name="uhungarumlaut" unicode="&#x171;" horiz-adv-x="773" 
d="M522 182v238q0 60 53 60h80q53 0 53 -60v-320q0 -103 -129 -103h-211q-71 0 -115.5 2.5t-82.5 12t-57.5 24t-33.5 41.5t-18 61t-4 87v195q0 60 53 60h80q53 0 53 -60v-153q0 -91 25 -114.5t117 -23.5h77q60 0 60 53zM397 614l-127 -68q-14 -7 -23 -7q-15 0 -29 20
q-8 12 -8 22q0 13 18 27l104 81q22 18 36 18q16 0 30 -17l16 -19q11 -13 11 -25q0 -17 -28 -32zM627 614l-134 -68q-14 -7 -23 -7q-15 0 -29 20q-8 12 -8 22q0 13 18 27l114 84q20 15 33 15q16 0 30 -17l16 -19q11 -13 11 -25q0 -17 -28 -32z" />
    <glyph glyph-name="Uogonek" unicode="&#x172;" horiz-adv-x="979" 
d="M68 231v389q0 60 53 60h97q53 0 53 -60v-328q0 -33 3 -55t13 -38t22.5 -24.5t39 -13.5t53.5 -6t74 -1h31q47 0 73.5 1.5t52.5 6.5t37.5 13t22 24t13 38t2.5 55v328q0 60 53 60h97q53 0 53 -60v-389q0 -132 -66 -179.5t-237 -53.5q-28 -1 -64.5 -26.5t-36.5 -62.5
q0 -18 10.5 -25t36.5 -7h30q20 0 28.5 -7t8.5 -24v-6q0 -47 -111 -47h-7q-54 0 -83 17t-29 63q0 52 42 88q12 10 12 21q0 15 -17 15q-83 0 -137.5 5t-100.5 19.5t-70.5 41t-38 67.5t-13.5 101z" />
    <glyph glyph-name="uogonek" unicode="&#x173;" horiz-adv-x="773" 
d="M506 -3h-138q-71 0 -115.5 2.5t-82.5 12t-57.5 24t-33.5 41.5t-18 61t-4 87v195q0 60 53 60h80q53 0 53 -60v-153q0 -91 25 -114.5t117 -23.5h77q60 0 60 53v238q0 60 53 60h80q53 0 53 -60v-346q0 -36 -9 -51t-36 -28q-76 -38 -76 -86q0 -18 10.5 -25t36.5 -7h30
q20 0 28.5 -7t8.5 -24v-6q0 -47 -111 -47h-7q-54 0 -83 17t-29 63q0 49 41 89q13 12 13 21q0 14 -19 14z" />
    <glyph glyph-name="Wcircumflex" unicode="&#x174;" horiz-adv-x="1270" 
d="M620 413l-131 -368q-9 -26 -24 -35.5t-44 -9.5h-135q-29 0 -44.5 10t-23.5 35l-178 552q-9 27 -9 39q0 21 15.5 32.5t39.5 11.5h82q29 0 43 -10.5t23 -41.5l115 -413q5 -18 15 -18q9 0 15 18l141 413q10 30 25.5 41t46.5 11h92q29 0 44 -11t25 -41l142 -413q6 -18 15 -18
q10 0 15 18l115 413q9 31 23.5 41.5t45.5 10.5h77q26 0 40.5 -12t14.5 -32q0 -14 -9 -39l-179 -552q-8 -25 -23.5 -35t-44.5 -10h-135q-29 0 -44 9.5t-24 35.5l-132 368q-6 18 -15 18t-15 -18zM636 784q-12 0 -27 -6l-81 -34q-16 -6 -25 -6q-19 0 -31 21q-7 13 -7 24
q0 15 21 28l119 74q15 9 31 9t31 -9l119 -74q21 -13 21 -28q0 -11 -7 -24q-12 -21 -31 -21q-9 0 -25 6l-81 34q-15 6 -27 6z" />
    <glyph glyph-name="wcircumflex" unicode="&#x175;" horiz-adv-x="1049" 
d="M1027 440q0 -13 -6 -29l-145 -372q-9 -23 -22.5 -31t-39.5 -8h-153q-26 0 -40.5 9.5t-21.5 32.5l-59 190q-6 20 -18 20q-10 0 -17 -20l-58 -190q-7 -24 -21.5 -33t-40.5 -9h-153q-26 0 -39.5 8.5t-22.5 30.5l-144 373q-6 16 -6 28q0 19 15 29.5t38 10.5h85q25 0 38 -10.5
t21 -36.5l82 -272q6 -17 18 -17q11 0 17 17l86 272q8 25 22.5 36t42.5 11h84q46 0 60 -47l86 -272q6 -17 18 -17q11 0 17 17l84 272q8 26 22.5 36.5t42.5 10.5h75q23 0 38 -10.5t15 -29.5zM522 595q-11 0 -27 -8l-76 -37q-15 -7 -27 -7q-17 0 -30 20q-9 13 -9 24q0 14 20 28
l118 82q15 10 31 10t31 -10l118 -82q20 -14 20 -28q0 -11 -9 -24q-13 -20 -30 -20q-12 0 -27 7l-76 37q-16 8 -27 8z" />
    <glyph glyph-name="Ycircumflex" unicode="&#x176;" horiz-adv-x="950" 
d="M577 213v-153q0 -60 -53 -60h-96q-54 0 -54 62v150q0 23 -14 40l-293 332q-27 29 -27 51q0 21 14.5 33t40.5 12h91q40 0 67 -30l203 -231q14 -15 23 -15t23 15l197 231q25 30 67 30h90q25 0 39.5 -12t14.5 -33q0 -23 -26 -51l-294 -332q-13 -14 -13 -39zM478 784
q-12 0 -27 -6l-81 -34q-17 -6 -25 -6q-19 0 -31 21q-7 13 -7 24q0 15 21 28l119 74q15 9 31 9t31 -9l119 -74q21 -13 21 -28q0 -11 -7 -24q-12 -21 -31 -21q-9 0 -25 6l-81 34q-15 6 -27 6z" />
    <glyph glyph-name="ycircumflex" unicode="&#x177;" horiz-adv-x="681" 
d="M218 433l99 -255q9 -22 21 -22q14 0 23 21l105 256q11 27 24 37t41 10h74q23 0 38.5 -10.5t15.5 -29.5q0 -15 -7 -29l-213 -426q-49 -98 -90.5 -126.5t-138.5 -28.5h-27q-49 0 -69.5 13.5t-20.5 42.5v21q0 51 62 51h25q74 0 92 34q4 8 4 18t-13 10h-7q-25 0 -40 13.5
t-28 41.5l-161 336q-7 14 -7 29q0 19 15.5 29.5t38.5 10.5h85q24 0 36.5 -10.5t22.5 -36.5zM340 595q-11 0 -27 -8l-76 -37q-15 -7 -27 -7q-17 0 -30 20q-9 13 -9 24q0 14 20 28l118 82q15 10 31 10t31 -10l118 -82q20 -14 20 -28q0 -11 -9 -24q-13 -20 -30 -20q-12 0 -27 7
l-76 37q-16 8 -27 8z" />
    <glyph glyph-name="Ydieresis" unicode="&#x178;" horiz-adv-x="950" 
d="M577 213v-153q0 -60 -53 -60h-96q-54 0 -54 62v150q0 23 -14 40l-293 332q-27 29 -27 51q0 21 14.5 33t40.5 12h91q40 0 67 -30l203 -231q14 -15 23 -15t23 15l197 231q25 30 67 30h90q25 0 39.5 -12t14.5 -33q0 -23 -26 -51l-294 -332q-13 -14 -13 -39zM431 814v-19
q0 -60 -53 -60h-62q-54 0 -54 62v19q0 60 53 60h62q54 0 54 -62zM694 814v-19q0 -60 -53 -60h-62q-54 0 -54 62v19q0 60 53 60h62q54 0 54 -62z" />
    <glyph glyph-name="Zacute" unicode="&#x179;" horiz-adv-x="899" 
d="M93 191l437 308q14 10 14 22q0 15 -18 15h-408q-60 0 -60 53v38q0 53 60 53h641q40 0 62.5 -19t22.5 -52v-36q0 -48 -48 -82l-435 -307q-14 -10 -14 -22q0 -15 18 -15h432q60 0 60 -53v-41q0 -53 -60 -53h-668q-40 0 -62 18.5t-22 52.5v37q0 49 48 83zM577 775l-169 -47
q-17 -5 -26 -5q-17 0 -29 22q-8 16 -8 23q0 16 24 29l145 77q24 12 36 12q21 0 35 -26l13 -24q9 -16 9 -28q0 -25 -30 -33z" />
    <glyph glyph-name="zacute" unicode="&#x17a;" horiz-adv-x="625" 
d="M74 153l240 177q12 9 12 19q0 12 -15 12h-200q-61 0 -61 54v11q0 54 61 54h389q80 0 80 -65v-26q0 -40 -36 -67l-230 -170q-12 -9 -12 -19q0 -12 15 -12h215q61 0 61 -54v-13q0 -54 -61 -54h-419q-76 0 -76 63v23q0 41 37 67zM441 602l-162 -64q-19 -7 -27 -7
q-17 0 -30 20q-9 13 -9 24q0 14 20 28l137 91q23 16 37 16q20 0 35 -23l15 -22q12 -18 12 -30q0 -22 -28 -33z" />
    <glyph glyph-name="Zdotaccent" unicode="&#x17b;" horiz-adv-x="899" 
d="M93 191l437 308q14 10 14 22q0 15 -18 15h-408q-60 0 -60 53v38q0 53 60 53h641q40 0 62.5 -19t22.5 -52v-36q0 -48 -48 -82l-435 -307q-14 -10 -14 -22q0 -15 18 -15h432q60 0 60 -53v-41q0 -53 -60 -53h-668q-40 0 -62 18.5t-22 52.5v37q0 49 48 83zM543 814v-19
q0 -60 -53 -60h-79q-54 0 -54 62v19q0 60 53 60h79q54 0 54 -62z" />
    <glyph glyph-name="zdotaccent" unicode="&#x17c;" horiz-adv-x="625" 
d="M74 153l240 177q12 9 12 19q0 12 -15 12h-200q-61 0 -61 54v11q0 54 61 54h389q80 0 80 -65v-26q0 -40 -36 -67l-230 -170q-12 -9 -12 -19q0 -12 15 -12h215q61 0 61 -54v-13q0 -54 -61 -54h-419q-76 0 -76 63v23q0 41 37 67zM406 618v-19q0 -60 -53 -60h-79
q-54 0 -54 62v19q0 60 53 60h79q54 0 54 -62z" />
    <glyph glyph-name="Zcaron" unicode="&#x17d;" horiz-adv-x="899" 
d="M93 191l437 308q14 10 14 22q0 15 -18 15h-408q-60 0 -60 53v38q0 53 60 53h641q40 0 62.5 -19t22.5 -52v-36q0 -48 -48 -82l-435 -307q-14 -10 -14 -22q0 -15 18 -15h432q60 0 60 -53v-41q0 -53 -60 -53h-668q-40 0 -62 18.5t-22 52.5v37q0 49 48 83zM453 844q12 0 27 6
l81 34q17 6 25 6q19 0 31 -21q7 -13 7 -24q0 -15 -21 -28l-119 -74q-15 -9 -31 -9t-31 9l-119 74q-21 13 -21 28q0 11 7 24q12 21 31 21q8 0 25 -6l81 -34q15 -6 27 -6z" />
    <glyph glyph-name="zcaron" unicode="&#x17e;" horiz-adv-x="625" 
d="M74 153l240 177q12 9 12 19q0 12 -15 12h-200q-61 0 -61 54v11q0 54 61 54h389q80 0 80 -65v-26q0 -40 -36 -67l-230 -170q-12 -9 -12 -19q0 -12 15 -12h215q61 0 61 -54v-13q0 -54 -61 -54h-419q-76 0 -76 63v23q0 41 37 67zM315 657q11 0 27 8l76 37q15 7 27 7
q17 0 30 -20q9 -13 9 -24q0 -14 -20 -28l-118 -82q-15 -10 -31 -10t-31 10l-118 82q-20 14 -20 28q0 11 9 24q13 20 30 20q12 0 27 -7l76 -37q16 -8 27 -8z" />
    <glyph glyph-name="florin" unicode="&#x192;" horiz-adv-x="899" 
d="M582 463l-9 -36q-2 -10 -2 -15q0 -22 28 -22h142q60 0 60 -53v-40q0 -54 -63 -54h-169q-33 0 -39 -30l-36 -180q-20 -98 -90 -150.5t-184 -52.5h-54q-63 0 -87.5 12t-24.5 41v50q0 48 57 48h68q64 0 91.5 20.5t36.5 58.5l33 146q2 10 2 15q0 22 -28 22h-124q-56 0 -56 53
v40q0 54 57 54h160q28 0 36 33l20 75q49 187 248 187h78q63 0 87.5 -12t24.5 -41v-48q0 -48 -57 -48h-90q-59 0 -83 -17.5t-33 -55.5z" />
    <glyph glyph-name="Aringacute" unicode="&#x1fa;" horiz-adv-x="996" 
d="M500 722h-9q-39 0 -52 -5.5t-13 -20.5v-12q0 -30 65 -30h9q38 0 51 7t13 23v12q0 15 -12.5 20.5t-51.5 5.5zM617 301l-103 197q-8 16 -18 16t-18 -16l-104 -197q-6 -12 -6 -20q0 -17 24 -17h207q24 0 24 17q0 8 -6 20zM490 771h10q70 0 96 -15t26 -50v-11q0 -15 -6 -29
q-5 -12 -5 -19q0 -9 22 -43l321 -521q11 -17 11 -39q0 -21 -15.5 -32.5t-39.5 -11.5h-93q-27 0 -39.5 10t-30.5 41l-27 47q-9 15 -16.5 19.5t-25.5 4.5h-364q-18 0 -25.5 -4.5t-16.5 -19.5l-27 -47q-18 -32 -31 -41.5t-42 -9.5h-86q-26 0 -40.5 12t-14.5 32t11 39l316 519
q21 33 21 45q0 7 -5 19q-6 14 -6 29v11q0 34 26.5 49.5t95.5 15.5zM607 814l-137 -26q-15 -3 -23 -3q-15 0 -23 18q-4 9 -4 18q0 15 18 22l125 46q15 6 27 6q18 0 30 -22l5 -10q6 -12 6 -23q0 -22 -24 -26z" />
    <glyph glyph-name="aringacute" unicode="&#x1fb;" horiz-adv-x="737" 
d="M373 529h-6q-77 0 -105.5 19t-28.5 68v6q0 49 28 67.5t106 18.5h6q78 0 106 -18.5t28 -67.5v-6q0 -49 -28.5 -68t-105.5 -19zM367 581h6q43 0 57.5 7.5t14.5 27.5v6q0 19 -14.5 26t-57.5 7h-6q-43 0 -57.5 -7t-14.5 -26v-6q0 -20 14.5 -27.5t57.5 -7.5zM550 -3h-261
q-148 0 -194 29t-46 117v22q0 82 47.5 109t189.5 27h159q28 0 38.5 4t10.5 17q0 25 -21 31.5t-94 6.5h-243q-60 0 -60 50v9q0 22 10.5 34.5t46.5 19.5t85 8.5t146 1.5h29q96 0 149 -8t85.5 -35.5t42 -69t9.5 -117.5v-153q0 -103 -129 -103zM358 108h15q82 0 103.5 9t21.5 38
v6q0 28 -20.5 35.5t-104.5 7.5h-15q-86 0 -106.5 -7t-20.5 -36v-6q0 -30 21.5 -38.5t105.5 -8.5zM501 792l-159 -49q-13 -5 -24 -5q-14 0 -24 18q-6 10 -6 20q0 15 19 25l140 75q20 10 31 10q17 0 30 -22l11 -20q7 -14 7 -24q0 -20 -25 -28z" />
    <glyph glyph-name="AEacute" unicode="&#x1fc;" horiz-adv-x="1489" 
d="M702 87v9q0 26 -34 26h-331q-18 0 -26.5 -4.5t-17.5 -19.5l-36 -54q-18 -27 -30 -35.5t-40 -8.5h-88q-26 0 -40.5 12t-14.5 32q0 23 14 43l401 554q17 24 30.5 31.5t40.5 7.5h862q60 0 60 -53v-44q0 -53 -60 -53h-460q-39 0 -39 -33v-49q0 -35 39 -35h433q60 0 60 -53
v-36q0 -53 -60 -53h-433q-39 0 -39 -33v-49q0 -35 39 -35h472q60 0 60 -53v-48q0 -53 -60 -53h-595q-50 0 -78.5 22.5t-28.5 64.5zM668 530h-45q-16 0 -25.5 -6.5t-22.5 -24.5l-140 -197q-8 -11 -8 -21q0 -17 24 -17h212q39 0 39 33v202q0 31 -34 31zM1070 775l-169 -47
q-17 -5 -26 -5q-17 0 -29 22q-8 16 -8 23q0 16 24 29l145 77q24 12 36 12q21 0 35 -26l13 -24q9 -16 9 -28q0 -25 -30 -33z" />
    <glyph glyph-name="aeacute" unicode="&#x1fd;" horiz-adv-x="1161" 
d="M710 300h195q24 0 31 7t7 22q0 24 -19.5 33.5t-71.5 9.5h-142q-42 0 -42 -27v-18q0 -27 42 -27zM364 483h448q49 0 77.5 -0.5t63.5 -3t54 -8t41 -14.5t33 -22.5t21 -33.5t13.5 -46.5t3.5 -60.5q0 -49 -23.5 -71t-71.5 -22h-315q-25 0 -33.5 -6t-8.5 -20v-25
q0 -14 9 -20.5t34 -6.5h339q60 0 60 -50v-14q0 -43 -43.5 -52.5t-223.5 -9.5h-553q-101 0 -151.5 13t-69.5 42.5t-19 89.5v24q0 81 47.5 108t189.5 27h163q26 0 35.5 5.5t9.5 19.5v8q0 18 -11 23t-44 5h-303q-60 0 -60 50v7q0 22 10.5 34.5t46.5 19.5t85 8.5t146 1.5z
M358 109h15q85 0 105 6.5t20 33.5v13q0 27 -20 33.5t-105 6.5h-15q-88 0 -107.5 -6t-19.5 -34v-7q0 -20 8 -29t34 -13t85 -4zM760 602l-162 -64q-19 -7 -27 -7q-17 0 -30 20q-9 13 -9 24q0 14 20 28l137 91q23 16 37 16q20 0 35 -23l15 -22q12 -18 12 -30q0 -22 -28 -33z
" />
    <glyph glyph-name="Oslashacute" unicode="&#x1fe;" horiz-adv-x="1029" 
d="M285 250l393 252q9 6 9 14q0 10 -19 13q-21 4 -70 4h-92q-66 0 -102.5 -1.5t-68.5 -9.5t-45 -17.5t-23 -34.5t-11.5 -51t-1.5 -76v-25q0 -44 4 -61q3 -13 11 -13q7 0 16 6zM743 431l-392 -252q-9 -6 -9 -12q0 -9 19 -12q21 -4 62 -4h100q65 0 102 1.5t69 9.5t45 17.5
t23 34t11.5 50t1.5 74.5v24q0 45 -4 62q-3 13 -12 13q-7 0 -16 -6zM499 685h58q126 0 197 -8.5t115 -29.5q17 -10 24 -10q10 0 25 10l24 17q23 16 39 16t31 -20.5t15 -37.5q0 -20 -20 -32l-39 -24q-12 -7 -12 -19q0 -3 5 -21.5t9.5 -64t4.5 -114.5v-14q0 -80 -5 -130
t-24.5 -91t-46.5 -61.5t-81.5 -34.5t-118.5 -17.5t-169 -3.5h-58q-126 0 -197 8.5t-115 29.5q-17 10 -24 10q-10 0 -25 -10l-28 -19q-23 -16 -39 -16t-31 20.5t-15 37.5q0 20 20 32l44 27q12 7 12 18q0 3 -5 21.5t-10 64t-5 114.5v14q0 80 5 130t24.5 91t46.5 61.5
t81.5 34.5t118.5 17.5t169 3.5zM640 775l-169 -47q-17 -5 -26 -5q-17 0 -29 22q-8 16 -8 23q0 16 24 29l145 77q24 12 36 12q21 0 35 -26l13 -24q9 -16 9 -28q0 -25 -30 -33z" />
    <glyph glyph-name="oslashacute" unicode="&#x1ff;" horiz-adv-x="751" 
d="M503 602l-162 -64q-19 -7 -27 -7q-17 0 -30 20q-9 13 -9 24q0 14 20 28l137 91q23 16 37 16q20 0 35 -23l15 -22q12 -18 12 -30q0 -22 -28 -33zM245 206l197 125q12 8 12 15q0 9 -19 10q-15 1 -43 1h-37q-87 0 -111 -19.5t-24 -90.5v-6q0 -13 2 -31q1 -10 9 -10q5 0 14 6
zM506 278l-197 -125q-12 -8 -12 -15q0 -9 19 -10q15 -1 43 -1h37q87 0 111 19.5t24 90.5v6q0 22 -1 31q-1 10 -10 10q-5 0 -14 -6zM705 245v-5q0 -54 -5.5 -91.5t-20 -65.5t-35.5 -44t-57.5 -26t-79.5 -13t-109 -3h-45q-143 0 -196 21q-18 6 -21 6q-9 0 -27 -15l-17 -13
q-25 -19 -38 -19t-28 16.5t-15 31.5t19 29l30 21q10 7 10 16q0 4 -6 19.5t-12 48t-6 78.5v6q0 65 9.5 106.5t28 69t57 41t86 18.5t126.5 5h45q145 0 198 -21q18 -6 22 -6q7 0 25 13l15 12q21 17 36 17q13 0 28 -16.5t15 -31.5t-17 -27l-28 -20q-10 -8 -10 -16q0 -4 6 -19.5
t11.5 -47t5.5 -75.5z" />
    <glyph glyph-name="Scommaaccent" unicode="&#x218;" horiz-adv-x="955" 
d="M561 -131l-47 -87q-13 -24 -24.5 -32.5t-32.5 -8.5h-11q-38 0 -38 38v121q0 51 54 51h61q22 0 35.5 -11.5t13.5 -32.5q0 -19 -11 -38zM532 -5h-182q-210 0 -253.5 12t-43.5 69v16q0 31 17.5 44t53.5 13h478q59 0 82.5 12t23.5 44v10q0 28 -24 39t-81 11h-311
q-125 0 -178 41.5t-53 145.5v24q0 52 7.5 87.5t33 59t48.5 36t80.5 18.5t101 7t136.5 1h89q78 0 127.5 -1t90 -4.5t61.5 -8.5t35.5 -15t18.5 -22t4 -31v-10q0 -37 -18 -47.5t-58 -10.5h-465q-56 0 -75 -12t-19 -36v-10q0 -30 18.5 -42t75.5 -12h290q70 0 114 -6.5
t80.5 -25.5t53 -56.5t16.5 -97.5v-21q0 -136 -77 -178.5t-298 -42.5z" />
    <glyph glyph-name="scommaaccent" unicode="&#x219;" horiz-adv-x="726" 
d="M376 -3h-85q-115 0 -165.5 6t-64 18.5t-13.5 41.5v16q0 43 58 43h275q82 0 102 4.5t20 22.5v5q0 10 -9.5 15t-41 8t-95.5 3q-129 0 -191 11.5t-84.5 38t-22.5 80.5v15q0 43 9.5 70t28 45.5t58 27t87 12t127.5 3.5h24q90 0 140.5 -2.5t82 -9.5t41 -18t9.5 -31v-16
q0 -27 -15.5 -36.5t-46.5 -9.5h-285q-49 0 -64.5 -5t-15.5 -20v-7q0 -10 10 -15t41 -8t89 -3q185 0 244 -24.5t59 -112.5v-8q0 -95 -64 -127.5t-242 -32.5zM439 -131l-47 -87q-13 -24 -24.5 -32.5t-32.5 -8.5h-11q-38 0 -38 38v121q0 51 54 51h61q22 0 35.5 -11.5
t13.5 -32.5q0 -19 -11 -38z" />
    <glyph glyph-name="uni021A" unicode="&#x21a;" horiz-adv-x="828" 
d="M313 62v430q0 19 -8.5 26.5t-30.5 7.5h-196q-60 0 -60 53v48q0 53 60 53h672q60 0 60 -53v-48q0 -53 -60 -53h-196q-22 0 -30.5 -7.5t-8.5 -26.5v-432q0 -60 -53 -60h-95q-54 0 -54 62zM481 -131l-47 -87q-13 -24 -24.5 -32.5t-32.5 -8.5h-11q-38 0 -38 38v121
q0 51 54 51h61q22 0 35.5 -11.5t13.5 -32.5q0 -19 -11 -38z" />
    <glyph glyph-name="uni021B" unicode="&#x21b;" horiz-adv-x="617" 
d="M131 169v149q0 21 -9.5 28t-29.5 7h-16q-60 0 -60 53v20q0 54 62 54h13q22 0 31 8t9 26v30q0 61 53 61h73q54 0 54 -63v-27q0 -20 9.5 -27.5t28.5 -7.5h180q60 0 60 -53v-20q0 -54 -62 -54h-177q-22 0 -30.5 -7.5t-8.5 -26.5v-93q0 -62 15 -77.5t70 -15.5h126
q31 0 45.5 -8.5t14.5 -34.5v-29q0 -43 -38.5 -53.5t-180.5 -10.5h-23q-89 0 -135 20t-60 54t-14 98zM421 -131l-47 -87q-13 -24 -24.5 -32.5t-32.5 -8.5h-11q-38 0 -38 38v121q0 51 54 51h61q22 0 35.5 -11.5t13.5 -32.5q0 -19 -11 -38z" />
    <glyph glyph-name="dotlessj" unicode="&#x237;" horiz-adv-x="323" 
d="M72 -14v441q0 53 53 53h80q53 0 53 -53v-435q0 -88 -39.5 -125t-123.5 -37q-91 0 -91 58v22q0 35 37 40q18 2 24.5 10t6.5 26z" />
    <glyph glyph-name="circumflex" unicode="&#x2c6;" 
d="M243 595q-11 0 -27 -8l-76 -37q-15 -7 -27 -7q-17 0 -30 20q-9 13 -9 24q0 14 20 28l118 82q15 10 31 10t31 -10l118 -82q20 -14 20 -28q0 -11 -9 -24q-13 -20 -30 -20q-12 0 -27 7l-76 37q-16 8 -27 8z" />
    <glyph glyph-name="caron" unicode="&#x2c7;" 
d="M257 657q11 0 27 8l76 37q15 7 27 7q17 0 30 -20q9 -13 9 -24q0 -14 -20 -28l-118 -82q-15 -10 -31 -10t-31 10l-118 82q-20 14 -20 28q0 11 9 24q13 20 30 20q12 0 27 -7l76 -37q16 -8 27 -8z" />
    <glyph glyph-name="uni02C9" unicode="&#x2c9;" 
d="M120 850h260q42 0 42 -44v-6q0 -44 -42 -44h-260q-42 0 -42 43v6q0 21 11 33t31 12z" />
    <glyph glyph-name="breve" unicode="&#x2d8;" 
d="M250 625q43 0 65 8.5t35 30.5q9 16 32 16h38q23 0 23 -22q0 -8 -5 -23q-17 -49 -68.5 -75t-119.5 -26t-119.5 26t-68.5 75q-5 15 -5 23q0 22 23 22h38q23 0 32 -16q13 -22 35 -30.5t65 -8.5z" />
    <glyph glyph-name="dotaccent" unicode="&#x2d9;" 
d="M343 618v-19q0 -60 -53 -60h-79q-54 0 -54 62v19q0 60 53 60h79q54 0 54 -62z" />
    <glyph glyph-name="ring" unicode="&#x2da;" 
d="M253 535h-6q-77 0 -105.5 19t-28.5 68v6q0 49 28 67.5t106 18.5h6q78 0 106 -18.5t28 -67.5v-6q0 -49 -28.5 -68t-105.5 -19zM247 587h6q43 0 57.5 7.5t14.5 27.5v6q0 19 -14.5 26t-57.5 7h-6q-43 0 -57.5 -7t-14.5 -26v-6q0 -20 14.5 -27.5t57.5 -7.5z" />
    <glyph glyph-name="ogonek" unicode="&#x2db;" 
d="M316 0q-42 -34 -55.5 -53t-13.5 -38q0 -18 10.5 -25t36.5 -7h30q20 0 28.5 -7t8.5 -24v-6q0 -47 -111 -47h-7q-54 0 -83 17t-29 63q0 44 23 71t76 56h86z" />
    <glyph glyph-name="tilde" unicode="&#x2dc;" 
d="M183 695q30 0 74.5 -23.5t61.5 -23.5q22 0 33 23q9 21 23 21q17 0 33 -8t16 -22q0 -4 -2 -14q-23 -101 -108 -101q-30 0 -74 23.5t-61 23.5q-24 0 -35 -23q-9 -21 -23 -21q-15 0 -31 8t-16 22q0 4 2 14q23 101 107 101z" />
    <glyph glyph-name="hungarumlaut" unicode="&#x2dd;" 
d="M228 614l-127 -68q-14 -7 -23 -7q-15 0 -29 20q-8 12 -8 22q0 13 18 27l104 81q22 18 36 18q16 0 30 -17l16 -19q11 -13 11 -25q0 -17 -28 -32zM458 614l-134 -68q-14 -7 -23 -7q-15 0 -29 20q-8 12 -8 22q0 13 18 27l114 84q20 15 33 15q16 0 30 -17l16 -19
q11 -13 11 -25q0 -17 -28 -32z" />
    <glyph glyph-name="uni0394" unicode="&#x394;" horiz-adv-x="948" 
d="M827 0h-706q-29 0 -46 16.5t-17 41.5q0 21 11 40l291 540q14 25 27.5 33.5t41.5 8.5h92q28 0 41.5 -8.5t27.5 -33.5l289 -540q11 -21 11 -40q0 -25 -18 -41.5t-45 -16.5zM455 471l-139 -278q-6 -12 -6 -20q0 -17 24 -17h284q24 0 24 17q0 8 -6 20l-145 278q-8 16 -18 16
t-18 -16z" />
    <glyph glyph-name="uni03A9" unicode="&#x3a9;" horiz-adv-x="842" 
d="M300 0h-183q-57 0 -57 50v43q0 50 57 50h71q29 0 29 21v4q0 10 -6.5 15t-23.5 13q-62 29 -90.5 58t-36 63t-7.5 105v17q0 98 30 149t105.5 74t221.5 23h21q146 0 222 -23t106 -74t30 -149v-17q0 -99 -23 -140t-113 -83q-29 -13 -29 -31v-4q0 -21 29 -21h72q57 0 57 -50
v-43q0 -50 -57 -50h-183q-32 0 -51.5 17t-19.5 46v148q0 26 13 42t41 31q44 24 60.5 50t16.5 71v11q0 52 -12 77t-49 37t-115 12h-10q-78 0 -115 -11.5t-49 -36t-12 -78.5v-11q0 -43 17 -69t61 -50q53 -28 53 -75v-148q0 -29 -19.5 -46t-51.5 -17z" />
    <glyph glyph-name="uni03BC" unicode="&#x3bc;" horiz-adv-x="785" 
d="M65 -110v530q0 60 53 60h80q53 0 53 -60v-183q0 -70 19.5 -89t92.5 -19h111q60 0 60 53v238q0 60 53 60h80q53 0 53 -60v-320q0 -103 -129 -103h-253q-57 0 -72 -7.5t-15 -35.5v-62q0 -62 -54 -62h-79q-53 0 -53 60z" />
    <glyph glyph-name="pi" unicode="&#x3c0;" horiz-adv-x="809" 
d="M465 353h-121q-20 0 -28.5 -7t-8.5 -26v-260q0 -60 -53 -60h-79q-54 0 -54 62v256q0 35 -30 35h-4q-24 0 -39 12t-15 37v24q0 54 62 54h621q60 0 60 -53v-24q0 -24 -15.5 -37t-41.5 -13h-7q-17 0 -23.5 -7.5t-6.5 -26.5v-153q0 -20 8.5 -27.5t34.5 -7.5q19 0 30.5 -10
t11.5 -26v-35q0 -30 -25.5 -45t-92.5 -15q-80 0 -113.5 33t-33.5 109v177q0 20 -9 27t-28 7z" />
    <glyph glyph-name="Wgrave" unicode="&#x1e80;" horiz-adv-x="1270" 
d="M620 413l-131 -368q-9 -26 -24 -35.5t-44 -9.5h-135q-29 0 -44.5 10t-23.5 35l-178 552q-9 27 -9 39q0 21 15.5 32.5t39.5 11.5h82q29 0 43 -10.5t23 -41.5l115 -413q5 -18 15 -18q9 0 15 18l141 413q10 30 25.5 41t46.5 11h92q29 0 44 -11t25 -41l142 -413q6 -18 15 -18
q10 0 15 18l115 413q9 31 23.5 41.5t45.5 10.5h77q26 0 40.5 -12t14.5 -32q0 -14 -9 -39l-179 -552q-8 -25 -23.5 -35t-44.5 -10h-135q-29 0 -44 9.5t-24 35.5l-132 368q-6 18 -15 18t-15 -18zM682 728l-169 47q-30 8 -30 33q0 12 9 28l13 24q14 26 35 26q12 0 36 -12
l145 -77q24 -13 24 -29q0 -7 -8 -23q-12 -22 -29 -22q-9 0 -26 5z" />
    <glyph glyph-name="wgrave" unicode="&#x1e81;" horiz-adv-x="1049" 
d="M1027 440q0 -13 -6 -29l-145 -372q-9 -23 -22.5 -31t-39.5 -8h-153q-26 0 -40.5 9.5t-21.5 32.5l-59 190q-6 20 -18 20q-10 0 -17 -20l-58 -190q-7 -24 -21.5 -33t-40.5 -9h-153q-26 0 -39.5 8.5t-22.5 30.5l-144 373q-6 16 -6 28q0 19 15 29.5t38 10.5h85q25 0 38 -10.5
t21 -36.5l82 -272q6 -17 18 -17q11 0 17 17l86 272q8 25 22.5 36t42.5 11h84q46 0 60 -47l86 -272q6 -17 18 -17q11 0 17 17l84 272q8 26 22.5 36.5t42.5 10.5h75q23 0 38 -10.5t15 -29.5zM549 538l-162 64q-28 10 -28 33q0 12 12 30l15 22q15 23 35 23q14 0 37 -16l137 -91
q20 -14 20 -28q0 -11 -9 -24q-13 -20 -30 -20q-8 0 -27 7z" />
    <glyph glyph-name="Wacute" unicode="&#x1e82;" horiz-adv-x="1270" 
d="M620 413l-131 -368q-9 -26 -24 -35.5t-44 -9.5h-135q-29 0 -44.5 10t-23.5 35l-178 552q-9 27 -9 39q0 21 15.5 32.5t39.5 11.5h82q29 0 43 -10.5t23 -41.5l115 -413q5 -18 15 -18q9 0 15 18l141 413q10 30 25.5 41t46.5 11h92q29 0 44 -11t25 -41l142 -413q6 -18 15 -18
q10 0 15 18l115 413q9 31 23.5 41.5t45.5 10.5h77q26 0 40.5 -12t14.5 -32q0 -14 -9 -39l-179 -552q-8 -25 -23.5 -35t-44.5 -10h-135q-29 0 -44 9.5t-24 35.5l-132 368q-6 18 -15 18t-15 -18zM761 775l-169 -47q-17 -5 -26 -5q-17 0 -29 22q-8 16 -8 23q0 16 24 29l145 77
q24 12 36 12q21 0 35 -26l13 -24q9 -16 9 -28q0 -25 -30 -33z" />
    <glyph glyph-name="wacute" unicode="&#x1e83;" horiz-adv-x="1049" 
d="M1027 440q0 -13 -6 -29l-145 -372q-9 -23 -22.5 -31t-39.5 -8h-153q-26 0 -40.5 9.5t-21.5 32.5l-59 190q-6 20 -18 20q-10 0 -17 -20l-58 -190q-7 -24 -21.5 -33t-40.5 -9h-153q-26 0 -39.5 8.5t-22.5 30.5l-144 373q-6 16 -6 28q0 19 15 29.5t38 10.5h85q25 0 38 -10.5
t21 -36.5l82 -272q6 -17 18 -17q11 0 17 17l86 272q8 25 22.5 36t42.5 11h84q46 0 60 -47l86 -272q6 -17 18 -17q11 0 17 17l84 272q8 26 22.5 36.5t42.5 10.5h75q23 0 38 -10.5t15 -29.5zM659 602l-162 -64q-19 -7 -27 -7q-17 0 -30 20q-9 13 -9 24q0 14 20 28l137 91
q23 16 37 16q20 0 35 -23l15 -22q12 -18 12 -30q0 -22 -28 -33z" />
    <glyph glyph-name="Wdieresis" unicode="&#x1e84;" horiz-adv-x="1270" 
d="M620 413l-131 -368q-9 -26 -24 -35.5t-44 -9.5h-135q-29 0 -44.5 10t-23.5 35l-178 552q-9 27 -9 39q0 21 15.5 32.5t39.5 11.5h82q29 0 43 -10.5t23 -41.5l115 -413q5 -18 15 -18q9 0 15 18l141 413q10 30 25.5 41t46.5 11h92q29 0 44 -11t25 -41l142 -413q6 -18 15 -18
q10 0 15 18l115 413q9 31 23.5 41.5t45.5 10.5h77q26 0 40.5 -12t14.5 -32q0 -14 -9 -39l-179 -552q-8 -25 -23.5 -35t-44.5 -10h-135q-29 0 -44 9.5t-24 35.5l-132 368q-6 18 -15 18t-15 -18zM589 814v-19q0 -60 -53 -60h-62q-54 0 -54 62v19q0 60 53 60h62q54 0 54 -62z
M852 814v-19q0 -60 -53 -60h-62q-54 0 -54 62v19q0 60 53 60h62q54 0 54 -62z" />
    <glyph glyph-name="wdieresis" unicode="&#x1e85;" horiz-adv-x="1049" 
d="M1027 440q0 -13 -6 -29l-145 -372q-9 -23 -22.5 -31t-39.5 -8h-153q-26 0 -40.5 9.5t-21.5 32.5l-59 190q-6 20 -18 20q-10 0 -17 -20l-58 -190q-7 -24 -21.5 -33t-40.5 -9h-153q-26 0 -39.5 8.5t-22.5 30.5l-144 373q-6 16 -6 28q0 19 15 29.5t38 10.5h85q25 0 38 -10.5
t21 -36.5l82 -272q6 -17 18 -17q11 0 17 17l86 272q8 25 22.5 36t42.5 11h84q46 0 60 -47l86 -272q6 -17 18 -17q11 0 17 17l84 272q8 26 22.5 36.5t42.5 10.5h75q23 0 38 -10.5t15 -29.5zM475 618v-19q0 -60 -53 -60h-62q-54 0 -54 62v19q0 60 53 60h62q54 0 54 -62z
M738 618v-19q0 -60 -53 -60h-62q-54 0 -54 62v19q0 60 53 60h62q54 0 54 -62z" />
    <glyph glyph-name="Ygrave" unicode="&#x1ef2;" horiz-adv-x="950" 
d="M577 213v-153q0 -60 -53 -60h-96q-54 0 -54 62v150q0 23 -14 40l-293 332q-27 29 -27 51q0 21 14.5 33t40.5 12h91q40 0 67 -30l203 -231q14 -15 23 -15t23 15l197 231q25 30 67 30h90q25 0 39.5 -12t14.5 -33q0 -23 -26 -51l-294 -332q-13 -14 -13 -39zM524 728l-169 47
q-30 8 -30 33q0 12 9 28l13 24q14 26 35 26q12 0 36 -12l145 -77q24 -13 24 -29q0 -7 -8 -23q-12 -22 -29 -22q-9 0 -26 5z" />
    <glyph glyph-name="ygrave" unicode="&#x1ef3;" horiz-adv-x="681" 
d="M218 433l99 -255q9 -22 21 -22q14 0 23 21l105 256q11 27 24 37t41 10h74q23 0 38.5 -10.5t15.5 -29.5q0 -15 -7 -29l-213 -426q-49 -98 -90.5 -126.5t-138.5 -28.5h-27q-49 0 -69.5 13.5t-20.5 42.5v21q0 51 62 51h25q74 0 92 34q4 8 4 18t-13 10h-7q-25 0 -40 13.5
t-28 41.5l-161 336q-7 14 -7 29q0 19 15.5 29.5t38.5 10.5h85q24 0 36.5 -10.5t22.5 -36.5zM367 538l-162 64q-28 10 -28 33q0 12 12 30l15 22q15 23 35 23q14 0 37 -16l137 -91q20 -14 20 -28q0 -11 -9 -24q-13 -20 -30 -20q-8 0 -27 7z" />
    <glyph glyph-name="endash" unicode="&#x2013;" horiz-adv-x="834" 
d="M47 303h739q48 0 48 -43v-14q0 -43 -48 -43h-739q-47 0 -47 43v14q0 43 47 43z" />
    <glyph glyph-name="emdash" unicode="&#x2014;" horiz-adv-x="1198" 
d="M79 303h1039q48 0 48 -43v-14q0 -43 -48 -43h-1039q-47 0 -47 43v14q0 43 47 43z" />
    <glyph glyph-name="quoteleft" unicode="&#x2018;" horiz-adv-x="318" 
d="M72 414l53 223q11 43 62 43h11q20 0 31 -11t11 -27v-257q0 -60 -57 -60h-65q-23 0 -37 14t-14 39q0 14 5 36z" />
    <glyph glyph-name="quoteright" unicode="&#x2019;" horiz-adv-x="318" 
d="M246 591l-53 -223q-11 -43 -62 -43h-11q-20 0 -31 11t-11 27v257q0 60 57 60h65q23 0 37 -14t14 -39q0 -14 -5 -36z" />
    <glyph glyph-name="quotesinglbase" unicode="&#x201a;" horiz-adv-x="318" 
d="M246 103l-53 -223q-11 -43 -62 -43h-11q-20 0 -31 11t-11 27v257q0 60 57 60h65q23 0 37 -14t14 -39q0 -14 -5 -36z" />
    <glyph glyph-name="quotedblleft" unicode="&#x201c;" horiz-adv-x="578" 
d="M332 414l53 223q11 43 62 43h11q20 0 31 -11t11 -27v-257q0 -60 -57 -60h-65q-23 0 -37 14t-14 39q0 14 5 36zM72 414l53 223q11 43 62 43h11q20 0 31 -11t11 -27v-257q0 -60 -57 -60h-65q-23 0 -37 14t-14 39q0 14 5 36z" />
    <glyph glyph-name="quotedblright" unicode="&#x201d;" horiz-adv-x="578" 
d="M246 591l-53 -223q-11 -43 -62 -43h-11q-20 0 -31 11t-11 27v257q0 60 57 60h65q23 0 37 -14t14 -39q0 -14 -5 -36zM506 591l-53 -223q-11 -43 -62 -43h-11q-20 0 -31 11t-11 27v257q0 60 57 60h65q23 0 37 -14t14 -39q0 -14 -5 -36z" />
    <glyph glyph-name="quotedblbase" unicode="&#x201e;" horiz-adv-x="578" 
d="M246 103l-53 -223q-11 -43 -62 -43h-11q-20 0 -31 11t-11 27v257q0 60 57 60h65q23 0 37 -14t14 -39q0 -14 -5 -36zM506 103l-53 -223q-11 -43 -62 -43h-11q-20 0 -31 11t-11 27v257q0 60 57 60h65q23 0 37 -14t14 -39q0 -14 -5 -36z" />
    <glyph glyph-name="dagger" unicode="&#x2020;" horiz-adv-x="726" 
d="M138 489h109q22 0 30.5 7.5t8.5 26.5v102q0 55 49 55h54q49 0 49 -57v-100q0 -19 8.5 -26.5t30.5 -7.5h111q60 0 60 -53v-30q0 -53 -60 -53h-111q-22 0 -30.5 -7.5t-8.5 -26.5v-354q0 -55 -48 -55h-54q-50 0 -50 57v352q0 19 -8.5 26.5t-30.5 7.5h-109q-60 0 -60 53v30
q0 53 60 53z" />
    <glyph glyph-name="daggerdbl" unicode="&#x2021;" horiz-adv-x="679" 
d="M263 -33v70q0 19 -8 26t-30 7h-89q-58 0 -58 51v23q0 51 58 51h89q22 0 30 7t8 26v136q0 19 -8 26t-30 7h-89q-58 0 -58 51v23q0 51 58 51h89q22 0 30 7t8 26v70q0 55 49 55h54q49 0 49 -57v-68q0 -19 8 -26t30 -7h91q58 0 58 -51v-23q0 -51 -58 -51h-91q-22 0 -30 -7
t-8 -26v-136q0 -19 8 -26t30 -7h91q58 0 58 -51v-23q0 -51 -58 -51h-91q-22 0 -30 -7t-8 -26v-72q0 -55 -48 -55h-54q-50 0 -50 57z" />
    <glyph glyph-name="bullet" unicode="&#x2022;" horiz-adv-x="620" 
d="M480 340q0 -70 -50 -120t-120 -50t-120 50t-50 120t50 120t120 50t120 -50t50 -120z" />
    <glyph glyph-name="ellipsis" unicode="&#x2026;" horiz-adv-x="978" 
d="M919 130v-70q0 -60 -53 -60h-101q-54 0 -54 62v70q0 60 53 60h101q54 0 54 -62zM267 130v-70q0 -60 -53 -60h-101q-54 0 -54 62v70q0 60 53 60h101q54 0 54 -62zM593 130v-70q0 -60 -53 -60h-101q-54 0 -54 62v70q0 60 53 60h101q54 0 54 -62z" />
    <glyph glyph-name="perthousand" unicode="&#x2030;" horiz-adv-x="1452" 
d="M269 347h-27q-109 0 -141.5 29t-32.5 135v8q0 105 32.5 133.5t141.5 28.5h27q111 0 144 -28.5t33 -133.5v-8q0 -56 -6.5 -87t-28.5 -49t-53 -23t-89 -5zM249 433h16q37 0 47 13t10 65v8q0 51 -10 63.5t-47 12.5h-16q-38 0 -48 -12.5t-10 -63.5v-8q0 -52 10 -65t48 -13z
M783 -1h-27q-109 0 -141.5 29t-32.5 135v8q0 105 32.5 133.5t141.5 28.5h27q111 0 144 -28.5t33 -133.5v-8q0 -56 -6.5 -87t-28.5 -49t-53 -23t-89 -5zM763 85h16q37 0 47 13t10 65v8q0 51 -10 63.5t-47 12.5h-16q-38 0 -48 -12.5t-10 -63.5v-8q0 -52 10 -65t48 -13z
M1207 -1h-27q-109 0 -141.5 29t-32.5 135v8q0 105 32.5 133.5t141.5 28.5h27q111 0 144 -28.5t33 -133.5v-8q0 -56 -6.5 -87t-28.5 -49t-53 -23t-89 -5zM1187 85h16q37 0 47 13t10 65v8q0 51 -10 63.5t-47 12.5h-16q-38 0 -48 -12.5t-10 -63.5v-8q0 -52 10 -65t48 -13z
M713 627l-297 -591q-10 -21 -20 -28.5t-30 -7.5h-21q-17 0 -27 8.5t-10 22.5q0 8 6 22l297 591q10 21 20 28.5t30 7.5h21q17 0 27 -8.5t10 -22.5q0 -8 -6 -22z" />
    <glyph glyph-name="guilsinglleft" unicode="&#x2039;" horiz-adv-x="358" 
d="M209 271q0 -7 6 -18l51 -86q14 -24 14 -39q0 -23 -28.5 -40.5t-51.5 -17.5q-18 0 -29 8t-24 31l-55 95q-25 43 -25 67t25 67l55 95q13 23 24 31t29 8q23 0 51.5 -17.5t28.5 -40.5q0 -15 -14 -39l-51 -86q-6 -11 -6 -18z" />
    <glyph glyph-name="guilsinglright" unicode="&#x203a;" horiz-adv-x="358" 
d="M149 271q0 7 -6 18l-51 86q-14 24 -14 39q0 23 28.5 40.5t51.5 17.5q18 0 29 -8t24 -31l55 -95q25 -43 25 -67t-25 -67l-55 -95q-13 -23 -24 -31t-29 -8q-23 0 -51.5 17.5t-28.5 40.5q0 15 14 39l51 86q6 11 6 18z" />
    <glyph glyph-name="fraction" unicode="&#x2044;" horiz-adv-x="171" 
d="M285 627l-297 -591q-10 -21 -20 -28.5t-30 -7.5h-21q-17 0 -27 8.5t-10 22.5q0 8 6 22l297 591q10 21 20 28.5t30 7.5h21q17 0 27 -8.5t10 -22.5q0 -8 -6 -22z" />
    <glyph glyph-name="Euro" unicode="&#x20ac;" horiz-adv-x="1004" 
d="M337 351v-17q0 -21 22 -21h408q34 0 34 -30v-10q0 -31 -36 -31h-398q-24 0 -24 -22q0 -17 3.5 -28t14 -23t36 -18t64.5 -6h408q60 0 60 -53v-15q0 -35 -24 -51.5t-93.5 -23.5t-219.5 -7h-58q-115 0 -184 9t-115 35t-65 67.5t-24 110.5q-1 25 -25 25h-40q-35 0 -35 31v9
q0 31 36 31h42q23 0 23 20v18q0 12 -5.5 16t-17.5 4h-43q-35 0 -35 31v9q0 31 36 31h39q23 0 25 25q4 56 18 92.5t40 62t72.5 39t106 19t151.5 5.5h59q78 0 127.5 -1t90 -4.5t61.5 -8.5t35.5 -15t18.5 -22t4 -31v-13q0 -53 -60 -53h-409q-72 0 -95 -18.5t-23 -53.5
q0 -23 24 -23h400q34 0 34 -30v-10q0 -31 -36 -31h-406q-13 0 -17.5 -4.5t-4.5 -15.5z" />
    <glyph glyph-name="afii61289" unicode="&#x2113;" horiz-adv-x="528" 
d="M308 -3h-8q-170 0 -170 143q0 13 -9 13q-6 0 -15 -9l-8 -7q-12 -10 -22 -10q-16 0 -33 23.5t-17 40.5t17 30l70 54q16 13 16 34v183q0 115 50.5 172t141.5 57q73 0 116.5 -42.5t43.5 -112.5q0 -146 -177 -288q-19 -14 -19 -35v-50q0 -38 15.5 -54t52.5 -16h80
q50 0 50 -42v-24q0 -35 -32.5 -47.5t-142.5 -12.5zM309 416q53 62 53 141q0 62 -38 62q-39 0 -39 -72v-128q0 -12 8 -12t16 9z" />
    <glyph glyph-name="trademark" unicode="&#x2122;" horiz-adv-x="999" 
d="M141 387v183q0 21 -24 21h-60q-36 0 -36 31v26q0 32 36 32h288q36 0 36 -32v-26q0 -31 -36 -31h-61q-23 0 -23 -21v-184q0 -36 -32 -36h-56q-32 0 -32 37zM705 350h-38q-15 0 -23.5 7.5t-15.5 25.5l-55 138q-6 16 -14 16q-10 0 -10 -15v-135q0 -37 -32 -37h-51
q-32 0 -32 37v257q0 36 32 36h107q28 0 39 -28l67 -159q6 -13 11 -13q7 0 12 13l66 159q11 28 42 28h101q32 0 32 -37v-257q0 -36 -32 -36h-50q-33 0 -33 37v135q0 15 -9 15t-15 -16l-58 -138q-14 -33 -41 -33z" />
    <glyph glyph-name="Omega" unicode="&#x2126;" horiz-adv-x="842" 
d="M300 0h-183q-57 0 -57 50v43q0 50 57 50h71q29 0 29 21v4q0 10 -6.5 15t-23.5 13q-62 29 -90.5 58t-36 63t-7.5 105v17q0 98 30 149t105.5 74t221.5 23h21q146 0 222 -23t106 -74t30 -149v-17q0 -99 -23 -140t-113 -83q-29 -13 -29 -31v-4q0 -21 29 -21h72q57 0 57 -50
v-43q0 -50 -57 -50h-183q-32 0 -51.5 17t-19.5 46v148q0 26 13 42t41 31q44 24 60.5 50t16.5 71v11q0 52 -12 77t-49 37t-115 12h-10q-78 0 -115 -11.5t-49 -36t-12 -78.5v-11q0 -43 17 -69t61 -50q53 -28 53 -75v-148q0 -29 -19.5 -46t-51.5 -17z" />
    <glyph glyph-name="estimated" unicode="&#x212e;" horiz-adv-x="734" 
d="M606 192l43 -28q-58 -88 -122.5 -127.5t-161.5 -39.5q-143 0 -231.5 99t-88.5 246t88.5 244t231.5 97q145 0 234 -94.5t90 -246.5h-503v-226q70 -72 179 -72q79 0 137.5 35t103.5 113zM186 386h362v179q-79 77 -183 77q-108 0 -179 -77v-179z" />
    <glyph glyph-name="onethird" unicode="&#x2153;" horiz-adv-x="1175" 
d="M700 627l-297 -591q-10 -21 -20 -28.5t-30 -7.5h-21q-17 0 -27 8.5t-10 22.5q0 8 6 22l297 591q10 21 20 28.5t30 7.5h21q17 0 27 -8.5t10 -22.5q0 -8 -6 -22zM1118 102q0 -65 -47 -83.5t-207 -18.5h-14q-95 0 -141 4.5t-62 14t-16 29.5v7q0 34 50 34h179q62 0 90 3t35 8
t7 18v4q0 14 -13.5 19.5t-52.5 5.5h-163q-36 0 -36 35v10q0 36 36 36h164q34 0 44.5 5t10.5 17v7q0 11 -7 16t-33 8t-82 3h-176q-50 0 -50 34v6q0 20 16.5 29.5t62.5 14t140 4.5h11q110 0 160 -8t67.5 -27t17.5 -60q0 -55 -34 -75q-11 -6 -11 -13q0 -6 9 -10
q25 -11 35 -27.5t10 -49.5zM99 620v24q0 36 35 36h166q42 0 42 -42v-291q0 -39 -35 -39h-63q-35 0 -35 38v215q0 23 -26 23h-49q-35 0 -35 36z" />
    <glyph glyph-name="twothirds" unicode="&#x2154;" horiz-adv-x="1333" 
d="M853 627l-297 -591q-10 -21 -20 -28.5t-30 -7.5h-21q-17 0 -27 8.5t-10 22.5q0 8 6 22l297 591q10 21 20 28.5t30 7.5h21q17 0 27 -8.5t10 -22.5q0 -8 -6 -22zM1228 102q0 -65 -47 -83.5t-207 -18.5h-14q-95 0 -141 4.5t-62 14t-16 29.5v7q0 34 50 34h179q62 0 90 3t35 8
t7 18v4q0 14 -13.5 19.5t-52.5 5.5h-163q-36 0 -36 35v10q0 36 36 36h164q34 0 44.5 5t10.5 17v7q0 11 -7 16t-33 8t-82 3h-176q-50 0 -50 34v6q0 20 16.5 29.5t62.5 14t140 4.5h11q110 0 160 -8t67.5 -27t17.5 -60q0 -55 -34 -75q-11 -6 -11 -13q0 -6 9 -10
q25 -11 35 -27.5t10 -49.5zM522 308h-396q-26 0 -41 14t-15 39v31q0 75 46.5 107.5t150.5 32.5h79q47 0 62 6t15 21v4q0 15 -18.5 20.5t-75.5 5.5h-203q-50 0 -50 34v9q0 20 16.5 29.5t62.5 14t140 4.5h9q110 0 160 -9.5t67.5 -32t17.5 -71.5v-6q0 -62 -38.5 -88t-140.5 -26
h-89q-54 0 -72.5 -9.5t-18.5 -28.5q0 -14 17 -14h315q35 0 35 -35v-16q0 -36 -35 -36z" />
    <glyph glyph-name="oneeighth" unicode="&#x215b;" horiz-adv-x="1175" 
d="M700 627l-297 -591q-10 -21 -20 -28.5t-30 -7.5h-21q-17 0 -27 8.5t-10 22.5q0 8 6 22l297 591q10 21 20 28.5t30 7.5h21q17 0 27 -8.5t10 -22.5q0 -8 -6 -22zM634 95v11q0 29 9 44t32 26q9 4 9 10q0 8 -11 13q-36 19 -36 74v9q0 41 13 58.5t58 26t146 8.5h34
q101 0 146 -8.5t58 -26t13 -58.5v-8q0 -55 -36 -74q-11 -6 -11 -13q0 -6 9 -10q23 -11 32 -26t9 -44v-12q0 -44 -13 -62.5t-58 -27t-149 -8.5h-34q-104 0 -149 8.5t-58 27t-13 62.5zM857 226h27q39 0 56.5 0.5t28.5 4.5t12.5 9t1.5 17v3q0 22 -14.5 26.5t-84.5 4.5h-27
q-38 0 -55.5 -0.5t-28.5 -4.5t-12.5 -9t-1.5 -17v-3q0 -12 1.5 -17t12.5 -9t28.5 -4.5t55.5 -0.5zM857 81h28q50 0 70 2.5t25 7.5t5 20v11q0 20 -14.5 24.5t-85.5 4.5h-28q-71 0 -85.5 -4.5t-14.5 -24.5v-11q0 -15 5 -20t25 -7.5t70 -2.5zM99 620v24q0 36 35 36h166
q42 0 42 -42v-291q0 -39 -35 -39h-63q-35 0 -35 38v215q0 23 -26 23h-49q-35 0 -35 36z" />
    <glyph glyph-name="threeeighths" unicode="&#x215c;" horiz-adv-x="1333" 
d="M560 410q0 -65 -47 -83.5t-207 -18.5h-14q-95 0 -141 4.5t-62 14t-16 29.5v7q0 34 50 34h179q62 0 90 3t35 8t7 18v4q0 14 -13.5 19.5t-52.5 5.5h-163q-36 0 -36 35v10q0 36 36 36h164q34 0 44.5 5t10.5 17v7q0 11 -7 16t-33 8t-82 3h-176q-50 0 -50 34v6q0 20 16.5 29.5
t62.5 14t140 4.5h11q110 0 160 -8t67.5 -27t17.5 -60q0 -55 -34 -75q-11 -6 -11 -13q0 -6 9 -10q25 -11 35 -27.5t10 -49.5zM852 627l-297 -591q-10 -21 -20 -28.5t-30 -7.5h-21q-17 0 -27 8.5t-10 22.5q0 8 6 22l297 591q10 21 20 28.5t30 7.5h21q17 0 27 -8.5t10 -22.5
q0 -8 -6 -22zM749 95v11q0 29 9 44t32 26q9 4 9 10q0 8 -11 13q-36 19 -36 74v9q0 41 13 58.5t58 26t146 8.5h34q101 0 146 -8.5t58 -26t13 -58.5v-8q0 -55 -36 -74q-11 -6 -11 -13q0 -6 9 -10q23 -11 32 -26t9 -44v-12q0 -44 -13 -62.5t-58 -27t-149 -8.5h-34
q-104 0 -149 8.5t-58 27t-13 62.5zM972 226h27q39 0 56.5 0.5t28.5 4.5t12.5 9t1.5 17v3q0 22 -14 26.5t-85 4.5h-27q-38 0 -55.5 -0.5t-28.5 -4.5t-12.5 -9t-1.5 -17v-3q0 -12 1.5 -17t12.5 -9t28.5 -4.5t55.5 -0.5zM972 81h28q50 0 70 2.5t25 7.5t5 20v11q0 20 -14.5 24.5
t-85.5 4.5h-28q-71 0 -85.5 -4.5t-14.5 -24.5v-11q0 -15 5 -20t25 -7.5t70 -2.5z" />
    <glyph glyph-name="fiveeighths" unicode="&#x215d;" horiz-adv-x="1333" 
d="M492 594h-288q-18 0 -18 -15v-20q0 -16 18 -16h134q124 0 164.5 -22t40.5 -84v-16q0 -43 -17 -65.5t-68.5 -35t-149.5 -12.5h-28q-95 0 -141 4.5t-62 14t-16 29.5v7q0 34 50 34h214q43 0 65.5 4t28.5 9.5t6 15.5v4q0 10 -6 15.5t-28.5 9.5t-65.5 4h-218q-38 0 -38 35v146
q0 40 43 40h380q35 0 35 -36v-14q0 -36 -35 -36zM852 627l-297 -591q-10 -21 -20 -28.5t-30 -7.5h-21q-17 0 -27 8.5t-10 22.5q0 8 6 22l297 591q10 21 20 28.5t30 7.5h21q17 0 27 -8.5t10 -22.5q0 -8 -6 -22zM749 95v11q0 29 9 44t32 26q9 4 9 10q0 8 -11 13q-36 19 -36 74
v9q0 41 13 58.5t58 26t146 8.5h34q101 0 146 -8.5t58 -26t13 -58.5v-8q0 -55 -36 -74q-11 -6 -11 -13q0 -6 9 -10q23 -11 32 -26t9 -44v-12q0 -44 -13 -62.5t-58 -27t-149 -8.5h-34q-104 0 -149 8.5t-58 27t-13 62.5zM972 226h27q39 0 56.5 0.5t28.5 4.5t12.5 9t1.5 17v3
q0 22 -14 26.5t-85 4.5h-27q-38 0 -55.5 -0.5t-28.5 -4.5t-12.5 -9t-1.5 -17v-3q0 -12 1.5 -17t12.5 -9t28.5 -4.5t55.5 -0.5zM972 81h28q50 0 70 2.5t25 7.5t5 20v11q0 20 -14.5 24.5t-85.5 4.5h-28q-71 0 -85.5 -4.5t-14.5 -24.5v-11q0 -15 5 -20t25 -7.5t70 -2.5z" />
    <glyph glyph-name="seveneighths" unicode="&#x215e;" horiz-adv-x="1175" 
d="M85 680h375q43 0 43 -40v-25q0 -26 -17 -46l-224 -243q-15 -18 -40 -18h-61q-31 0 -31 26q0 17 15 32l182 192q7 9 7 14q0 10 -11 10h-238q-35 0 -35 36v26q0 36 35 36zM712 627l-297 -591q-10 -21 -20 -28.5t-30 -7.5h-21q-17 0 -27 8.5t-10 22.5q0 8 6 22l297 591
q10 21 20 28.5t30 7.5h21q17 0 27 -8.5t10 -22.5q0 -8 -6 -22zM634 95v11q0 29 9 44t32 26q9 4 9 10q0 8 -11 13q-36 19 -36 74v9q0 41 13 58.5t58 26t146 8.5h34q101 0 146 -8.5t58 -26t13 -58.5v-8q0 -55 -36 -74q-11 -6 -11 -13q0 -6 9 -10q23 -11 32 -26t9 -44v-12
q0 -44 -13 -62.5t-58 -27t-149 -8.5h-34q-104 0 -149 8.5t-58 27t-13 62.5zM857 226h27q39 0 56.5 0.5t28.5 4.5t12.5 9t1.5 17v3q0 22 -14.5 26.5t-84.5 4.5h-27q-38 0 -55.5 -0.5t-28.5 -4.5t-12.5 -9t-1.5 -17v-3q0 -12 1.5 -17t12.5 -9t28.5 -4.5t55.5 -0.5zM857 81h28
q50 0 70 2.5t25 7.5t5 20v11q0 20 -14.5 24.5t-85.5 4.5h-28q-71 0 -85.5 -4.5t-14.5 -24.5v-11q0 -15 5 -20t25 -7.5t70 -2.5z" />
    <glyph glyph-name="partialdiff" unicode="&#x2202;" horiz-adv-x="666" 
d="M440 255q0 31 -30 53t-79 22q-45 0 -71.5 -28.5t-26.5 -77.5q0 -43 25.5 -70t66.5 -27q51 0 83 34t32 94zM302 721q152 0 231.5 -99.5t79.5 -261.5q0 -102 -29.5 -183t-97.5 -133t-167 -52q-129 0 -193.5 62.5t-64.5 176.5q0 102 65 165t176 63q60 0 106 -26
q19 -11 25 -11q12 0 12 21q0 43 -39 91t-109 48q-58 0 -104 -29q-20 -13 -35 -13q-23 0 -47 28.5t-24 51.5q0 26 41 55q67 46 174 46z" />
    <glyph glyph-name="Delta" unicode="&#x2206;" horiz-adv-x="948" 
d="M827 0h-706q-29 0 -46 16.5t-17 41.5q0 21 11 40l291 540q14 25 27.5 33.5t41.5 8.5h92q28 0 41.5 -8.5t27.5 -33.5l289 -540q11 -21 11 -40q0 -25 -18 -41.5t-45 -16.5zM455 471l-139 -278q-6 -12 -6 -20q0 -17 24 -17h284q24 0 24 17q0 8 -6 20l-145 278q-8 16 -18 16
t-18 -16z" />
    <glyph glyph-name="product" unicode="&#x220f;" horiz-adv-x="975" 
d="M835 593v-745q0 -62 -54 -62h-78q-53 0 -53 60v747q0 19 -8.5 26.5t-30.5 7.5h-247q-22 0 -30.5 -7.5t-8.5 -26.5v-747q0 -60 -53 -60h-78q-54 0 -54 62v745q0 19 -8 26.5t-26 7.5h-6q-52 0 -52 53v53q0 53 60 53h759q60 0 60 -53v-53q0 -53 -52 -53h-6q-18 0 -26 -7.5
t-8 -26.5z" />
    <glyph glyph-name="summation" unicode="&#x2211;" horiz-adv-x="738" 
d="M342 316q0 14 -11 26l-236 290q-19 23 -26 36.5t-7 33.5v13q0 33 22.5 52t62.5 19h471q60 0 60 -53v-53q0 -53 -60 -53h-268q-18 0 -18 -15q0 -10 14 -27l160 -202q28 -35 28 -62v-6q0 -29 -27 -64l-192 -261q-14 -18 -14 -27q0 -15 18 -15h311q60 0 60 -53v-56
q0 -53 -60 -53h-497q-83 0 -83 68v20q0 34 28 73l253 343q11 16 11 26z" />
    <glyph glyph-name="minus" unicode="&#x2212;" horiz-adv-x="682" 
d="M120 363h442q60 0 60 -53v-24q0 -53 -60 -53h-442q-60 0 -60 53v24q0 53 60 53z" />
    <glyph glyph-name="uni2215" unicode="&#x2215;" horiz-adv-x="171" 
d="M285 627l-297 -591q-10 -21 -20 -28.5t-30 -7.5h-21q-17 0 -27 8.5t-10 22.5q0 8 6 22l297 591q10 21 20 28.5t30 7.5h21q17 0 27 -8.5t10 -22.5q0 -8 -6 -22z" />
    <glyph glyph-name="uni2219" unicode="&#x2219;" horiz-adv-x="326" 
d="M267 300v-70q0 -60 -53 -60h-101q-54 0 -54 62v70q0 60 53 60h101q54 0 54 -62z" />
    <glyph glyph-name="radical" unicode="&#x221a;" horiz-adv-x="673" 
d="M233 -163l-107 231q-6 13 -17 13q-5 0 -11 -3l-4 -2q-14 -7 -23 -7q-19 0 -36.5 30t-17.5 53q0 24 30 37l57 28q36 16 55 16q43 0 66 -52l79 -179q10 -22 23 -22t17 23l157 737q10 46 56 46h46q47 0 47 -40q0 -14 -7 -45l-205 -858q-8 -33 -22.5 -45t-41.5 -12h-68
q-27 0 -43 10.5t-30 40.5z" />
    <glyph glyph-name="infinity" unicode="&#x221e;" horiz-adv-x="867" 
d="M232 477q64 0 105.5 -25t83.5 -70q7 -7 13 -7t13 7q31 32 49.5 48t56 32t82.5 16q86 0 138 -51t52 -136q0 -86 -52 -138.5t-139 -52.5q-104 0 -187 90q-7 7 -13 7t-13 -7q-41 -43 -83 -66t-102 -23q-87 0 -140.5 51t-53.5 138q0 85 52 136t138 51zM521 272
q55 -53 104 -53q29 0 46.5 19.5t17.5 49.5q0 31 -18 51t-49 20q-42 0 -100 -56q-8 -8 -8 -16t7 -15zM345 272q7 7 7 15t-8 16q-57 55 -102 55q-28 0 -46 -20.5t-18 -49.5q0 -31 18 -49.5t49 -18.5q46 0 100 52z" />
    <glyph glyph-name="integral" unicode="&#x222b;" horiz-adv-x="564" 
d="M191 56v415q0 83 13 143t32.5 93t50.5 52.5t58.5 24.5t65.5 5q91 0 91 -58v-31q0 -21 -11.5 -33.5t-33.5 -12.5h-15q-35 0 -52 -28.5t-17 -109.5v-415q0 -83 -13 -143t-32.5 -93t-50.5 -52.5t-58.5 -24.5t-65.5 -5q-91 0 -91 58v31q0 21 11.5 33.5t33.5 12.5h15
q35 0 52 28.5t17 109.5z" />
    <glyph glyph-name="approxequal" unicode="&#x2248;" horiz-adv-x="682" 
d="M618 405q-36 -129 -155 -129q-53 0 -127 30q-78 32 -113 32q-34 0 -54 -33q-17 -27 -46 -27h-27q-18 0 -28 9.5t-10 24.5q0 13 4 27q36 129 155 129q53 0 127 -30q78 -32 113 -32q34 0 54 33q17 27 46 27h27q18 0 28 -9.5t10 -24.5q0 -13 -4 -27zM618 174
q-36 -129 -155 -129q-53 0 -127 30q-78 32 -113 32q-34 0 -54 -33q-17 -27 -46 -27h-27q-18 0 -28 9.5t-10 24.5q0 13 4 27q36 129 155 129q53 0 127 -30q78 -32 113 -32q34 0 54 33q17 27 46 27h27q18 0 28 -9.5t10 -24.5q0 -13 -4 -27z" />
    <glyph glyph-name="notequal" unicode="&#x2260;" horiz-adv-x="682" 
d="M120 457h228q20 0 29 17l44 87q10 20 20.5 28t29.5 8h37q17 0 27 -8.5t10 -22.5q0 -12 -6 -22l-25 -47q-10 -20 -10 -27q0 -13 15 -13h43q60 0 60 -53v-18q0 -53 -60 -53h-117q-19 0 -26 -15l-27 -53q-7 -14 -7 -22q0 -11 13 -11h164q60 0 60 -53v-18q0 -53 -60 -53h-232
q-20 0 -29 -17l-27 -55q-10 -20 -20.5 -28t-29.5 -8h-37q-17 0 -27 8.5t-10 22.5q0 11 6 22l8 15q10 20 10 27q0 13 -15 13h-39q-60 0 -60 53v18q0 53 60 53h113q19 0 26 15l27 53q7 14 7 22q0 11 -13 11h-160q-60 0 -60 53v18q0 53 60 53z" />
    <glyph glyph-name="lessequal" unicode="&#x2264;" horiz-adv-x="682" 
d="M559 185l-454 168q-25 9 -34 22t-9 38v19q0 25 9 38t34 22l454 168q15 6 26 6q17 0 27 -12t10 -32v-29q0 -25 -9.5 -38.5t-33.5 -21.5l-303 -98q-10 -3 -10 -12t10 -12l303 -98q24 -8 33.5 -21.5t9.5 -38.5v-30q0 -20 -10 -32t-27 -12q-11 0 -26 6zM120 130h442
q60 0 60 -53v-24q0 -53 -60 -53h-442q-60 0 -60 53v24q0 53 60 53z" />
    <glyph glyph-name="greaterequal" unicode="&#x2265;" horiz-adv-x="682" 
d="M577 353l-454 -168q-15 -6 -26 -6q-17 0 -27 12t-10 32v29q0 25 9.5 38.5t33.5 21.5l303 98q10 3 10 12t-10 12l-303 98q-24 8 -33.5 21.5t-9.5 38.5v30q0 20 10 32t27 12q11 0 26 -6l454 -168q25 -9 34 -22t9 -38v-19q0 -25 -9 -38t-34 -22zM120 130h442q60 0 60 -53
v-24q0 -53 -60 -53h-442q-60 0 -60 53v24q0 53 60 53z" />
    <glyph glyph-name="lozenge" unicode="&#x25ca;" horiz-adv-x="604" 
d="M405 345q0 14 -9 29l-78 140q-10 18 -18 18t-18 -18l-74 -138q-9 -17 -9 -29t9 -29l78 -150q10 -18 18 -18q10 0 18 18l74 148q9 20 9 29zM552 347q0 -11 -7 -25l-159 -286q-12 -21 -23.5 -28.5t-33.5 -7.5h-56q-22 0 -33.5 7.5t-23.5 28.5l-157 284q-7 14 -7 25t7 25
l159 274q12 21 23.5 28.5t33.5 7.5h56q22 0 33.5 -7.5t23.5 -28.5l157 -272q7 -14 7 -25z" />
    <glyph glyph-name="grave.cap" unicode="&#xe000;" 
d="M283 728l-169 47q-30 8 -30 33q0 12 9 28l13 24q14 26 35 26q12 0 36 -12l145 -77q24 -13 24 -29q0 -7 -8 -23q-12 -22 -29 -22q-9 0 -26 5z" />
    <glyph glyph-name="acute.cap" unicode="&#xe002;" 
d="M381 775l-169 -47q-17 -5 -26 -5q-17 0 -29 22q-8 16 -8 23q0 16 24 29l145 77q24 12 36 12q21 0 35 -26l13 -24q9 -16 9 -28q0 -25 -30 -33z" />
    <glyph glyph-name="circumflex.cap" unicode="&#xe004;" 
d="M244 784q-12 0 -27 -6l-81 -34q-16 -6 -25 -6q-19 0 -31 21q-7 13 -7 24q0 15 21 28l119 74q15 9 31 9t31 -9l119 -74q21 -13 21 -28q0 -11 -7 -24q-12 -21 -31 -21q-9 0 -25 6l-81 34q-15 6 -27 6z" />
    <glyph glyph-name="caron.cap" unicode="&#xe006;" 
d="M244 844q12 0 27 6l81 34q16 6 25 6q19 0 31 -21q7 -13 7 -24q0 -15 -21 -28l-119 -74q-15 -9 -31 -9t-31 9l-119 74q-21 13 -21 28q0 11 7 24q12 21 31 21q9 0 25 -6l81 -34q15 -6 27 -6z" />
    <glyph glyph-name="caron.alt" unicode="&#xe008;" 
d="M313 596l-42 -108q-16 -41 -60 -41h-8q-41 0 -41 39v142q0 52 54 52h55q51 0 51 -46q0 -17 -9 -38z" />
    <glyph glyph-name="tilde.cap" unicode="&#xe009;" 
d="M183 882q30 0 74.5 -23.5t61.5 -23.5q22 0 33 23q9 21 23 21q17 0 33 -8t16 -22q0 -4 -2 -14q-23 -101 -108 -101q-30 0 -74 23.5t-61 23.5q-24 0 -35 -23q-9 -21 -23 -21q-15 0 -31 8t-16 22q0 4 2 14q23 101 107 101z" />
    <glyph glyph-name="dieresis.cap" unicode="&#xe00b;" 
d="M203 814v-19q0 -60 -53 -60h-62q-54 0 -54 62v19q0 60 53 60h62q54 0 54 -62zM466 814v-19q0 -60 -53 -60h-62q-54 0 -54 62v19q0 60 53 60h62q54 0 54 -62z" />
    <glyph glyph-name="macron.cap" unicode="&#xe00d;" 
d="M120 850h260q42 0 42 -44v-6q0 -44 -42 -44h-260q-42 0 -42 43v6q0 21 11 33t31 12z" />
    <glyph glyph-name="breve.cap" unicode="&#xe00f;" 
d="M250 818q43 0 65 8.5t35 30.5q9 16 32 16h38q23 0 23 -22q0 -8 -5 -23q-17 -49 -68.5 -75t-119.5 -26t-119.5 26t-68.5 75q-5 15 -5 23q0 22 23 22h38q23 0 32 -16q13 -22 35 -30.5t65 -8.5z" />
    <glyph glyph-name="ring.cap" unicode="&#xe011;" 
d="M253 716h-6q-77 0 -105.5 19t-28.5 68v6q0 49 28 67.5t106 18.5h6q78 0 106 -18.5t28 -67.5v-6q0 -49 -28.5 -68t-105.5 -19zM247 768h6q43 0 57.5 7.5t14.5 27.5v6q0 19 -14.5 26t-57.5 7h-6q-43 0 -57.5 -7t-14.5 -26v-6q0 -20 14.5 -27.5t57.5 -7.5z" />
    <glyph glyph-name="hungarumlaut.cap" unicode="&#xe013;" 
d="M464 781l-141 -54q-12 -4 -21 -4q-15 0 -28 22q-7 13 -7 22q0 15 21 27l121 71q21 13 33 13q16 0 31 -22l13 -19q9 -13 9 -24q0 -21 -31 -32zM228 781l-134 -54q-12 -4 -21 -4q-15 0 -28 22q-7 13 -7 22q0 15 21 27l114 71q21 13 33 13q16 0 31 -22l13 -19q9 -13 9 -24
q0 -21 -31 -32z" />
    <glyph glyph-name="dotaccent.cap" unicode="&#xe015;" 
d="M343 814v-19q0 -60 -53 -60h-79q-54 0 -54 62v19q0 60 53 60h79q54 0 54 -62z" />
    <glyph glyph-name="commaaccent" unicode="&#xe017;" 
d="M311 -131l-47 -87q-13 -24 -24.5 -32.5t-32.5 -8.5h-11q-38 0 -38 38v121q0 51 54 51h61q22 0 35.5 -11.5t13.5 -32.5q0 -19 -11 -38z" />
    <glyph glyph-name="commaaccent.alt" unicode="&#xe01a;" 
d="M195 623l47 87q13 24 24.5 32.5t32.5 8.5h9q38 0 38 -38v-121q0 -51 -53 -51h-60q-22 0 -35.5 11.5t-13.5 32.5q0 19 11 38z" />
    <glyph glyph-name="uniF8FF" unicode="&#xf8ff;" horiz-adv-x="485" 
d="M485 635v-590q0 -45 -52 -45h-381q-52 0 -52 45v590q0 45 52 45h381q52 0 52 -45zM183 265v40q0 38 43 56l49 20q26 11 33.5 21t7.5 34v13q0 26 -16.5 37.5t-58.5 11.5h-110q-32 0 -32 24v4q0 16 9 23.5t37 11.5t86 4h4q86 0 118.5 -22.5t32.5 -85.5v-17q0 -51 -14 -71
t-55 -37l-36 -14q-23 -9 -23 -32v-22q0 -27 -24 -27h-26q-25 0 -25 28zM262 165v-23q0 -27 -24 -27h-33q-25 0 -25 28v23q0 27 24 27h33q25 0 25 -28zM438 63v554q0 15 -15 15h-361q-15 0 -15 -15v-554q0 -15 15 -15h361q15 0 15 15z" />
    </font>
</defs>
</svg>
