<svg xmlns="http://www.w3.org/2000/svg" viewBox="0 0 19.13 11.99"><defs><style>.cls-1{fill:#e9863d;}</style></defs><title>Asset 5@3x</title><g id="Layer_2" data-name="Layer 2"><g id="contact"><g id="Layer_25" data-name="Layer 25"><g id="Layer_24" data-name="Layer 24"><g id="Layer_23" data-name="Layer 23"><path class="cls-1" d="M5.55,0A7.24,7.24,0,0,1,7.08.15,3.35,3.35,0,0,1,8.27.63a2.28,2.28,0,0,1,.77.9,3.16,3.16,0,0,1,.27,1.38,2.58,2.58,0,0,1-.4,1.48,2.93,2.93,0,0,1-1.2,1,2.81,2.81,0,0,1,1.62,1.1,3.27,3.27,0,0,1,.53,1.89,3.26,3.26,0,0,1-.34,1.54A3,3,0,0,1,8.58,11a4.1,4.1,0,0,1-1.34.61,6,6,0,0,1-1.54.2H0V0ZM5.21,4.75a1.88,1.88,0,0,0,1.14-.33A1.24,1.24,0,0,0,6.8,3.35a1.4,1.4,0,0,0-.14-.68,1.07,1.07,0,0,0-.4-.41,1.61,1.61,0,0,0-.57-.21A3.48,3.48,0,0,0,5,2H2.59V4.75Zm.14,5a3.33,3.33,0,0,0,.73-.07,1.72,1.72,0,0,0,.61-.25A1.25,1.25,0,0,0,7.11,9a1.63,1.63,0,0,0,.15-.76,1.54,1.54,0,0,0-.51-1.3,2.18,2.18,0,0,0-1.35-.39H2.59V9.76Z"/><path class="cls-1" d="M13.55,9.73a2.08,2.08,0,0,0,1.51.51,2.09,2.09,0,0,0,1.22-.36,1.5,1.5,0,0,0,.63-.76H19a3.91,3.91,0,0,1-1.52,2.2A4.42,4.42,0,0,1,15,12a4.91,4.91,0,0,1-1.82-.32,3.87,3.87,0,0,1-1.38-.92,4.19,4.19,0,0,1-.87-1.42,5.21,5.21,0,0,1-.31-1.82,5,5,0,0,1,.31-1.78,4.13,4.13,0,0,1,2.27-2.38A4.43,4.43,0,0,1,15,3a4,4,0,0,1,1.89.42,3.77,3.77,0,0,1,1.33,1.13A4.62,4.62,0,0,1,19,6.17a6,6,0,0,1,.16,1.9H13A2.39,2.39,0,0,0,13.55,9.73Zm2.69-4.48a1.75,1.75,0,0,0-1.32-.47A2,2,0,0,0,14,5a1.88,1.88,0,0,0-.59.47,1.68,1.68,0,0,0-.31.6A2.67,2.67,0,0,0,13,6.6h3.81A2.28,2.28,0,0,0,16.24,5.25Z"/><rect class="cls-1" x="12.49" y="0.79" width="4.77" height="1.16"/></g></g></g></g></g></svg>