<svg xmlns="http://www.w3.org/2000/svg" viewBox="0 0 226.6 226.6"><defs><style>.cls-1{fill:#fff;}</style></defs><title>Asset 1@3x</title><g id="Layer_2" data-name="Layer 2"><g id="Layer_1-2" data-name="Layer 1"><path class="cls-1" d="M217.6,113.3A104.3,104.3,0,0,0,9,113.3a104.3,104.3,0,0,1,208.6,0Z"/><path d="M113.3,0A113.3,113.3,0,1,0,226.6,113.3,113.3,113.3,0,0,0,113.3,0Zm0,208.6a95.3,95.3,0,1,1,95.3-95.3,95.41,95.41,0,0,1-95.3,95.3Z"/><circle class="cls-1" cx="113.3" cy="40.05" r="5"/><path d="M113.3,26.05a14,14,0,1,0,14,14,14,14,0,0,0-14-14Z"/><circle class="cls-1" cx="113.3" cy="186.55" r="5"/><path d="M113.3,172.55a14,14,0,1,0,14,14,14,14,0,0,0-14-14Z"/><circle class="cls-1" cx="186.55" cy="113.3" r="5"/><path d="M186.55,99.3a14,14,0,1,0,14,14,14,14,0,0,0-14-14Z"/><circle class="cls-1" cx="40.05" cy="113.3" r="5"/><path d="M40,99.3a14,14,0,1,0,14,14,14,14,0,0,0-14-14Z"/></g></g></svg>