<svg xmlns="http://www.w3.org/2000/svg" viewBox="0 0 11.85 11.85"><defs><style>.cls-1{fill:#e9863d;}</style></defs><title>Asset 2@3x</title><g id="Layer_2" data-name="Layer 2"><g id="contact"><g id="Layer_25" data-name="Layer 25"><g id="Layer_24" data-name="Layer 24"><path id="White" class="cls-1" d="M11.19,0H.65A.65.65,0,0,0,0,.65V11.19a.65.65,0,0,0,.65.65H6.33V7.26H4.78V5.47H6.33V4.15a2.15,2.15,0,0,1,2.3-2.36A12.67,12.67,0,0,1,10,1.86v1.6H9.06c-.74,0-.89.35-.89.87V5.47H9.94L9.71,7.26H8.17v4.59h3a.65.65,0,0,0,.65-.65V.65A.65.65,0,0,0,11.19,0Z"/></g></g></g></g></svg>