<svg xmlns="http://www.w3.org/2000/svg" viewBox="0 0 753.14 753.14"><defs><style>.cls-1{fill:#231f20;}</style></defs><title>Asset 2@3x</title><g id="Layer_2" data-name="Layer 2"><g id="Layer_1-2" data-name="Layer 1"><path class="cls-1" d="M376.57,753.14C168.93,753.14,0,584.21,0,376.57S168.93,0,376.57,0,753.14,168.93,753.14,376.57,584.21,753.14,376.57,753.14Zm0-717c-187.69,0-340.39,152.7-340.39,340.39S188.88,717,376.57,717,717,564.26,717,376.57,564.26,36.18,376.57,36.18Z"/><path class="cls-1" d="M381.89,507.13c-6.38,13.51-35.38,72.7-21.16,81,13.07,7.64,52.47-31.85,68-48.6,4.44-4.79,9.71-10.06,14.67-5.32,3.58,3.42,3.27,9,.18,12.91-7.92,9.91-22.45,31.28-43.38,51.42-30.69,29.53-57.74,45.68-81.11,52.07-44.47,12.16-86.2-17.07-78.8-72.51,8.26-61.86,50.17-151.23,68.06-187.27,7.47-15.05,38.17-74.15,22.08-82-13.61-6.65-52.2,29.82-68.21,49-3.78,4.52-8.47,8.76-13,6.07-4.11-2.44-4.32-8.06-1.42-11.86,8.89-11.66,23.15-34.34,43.16-53.6C363.17,228.92,418.77,228,446.65,265,475.75,303.53,405.58,457,381.89,507.13Zm125.36-367h0a62.13,62.13,0,0,0-84.62-22.67h0A62.13,62.13,0,0,0,400,202.09h0a62.13,62.13,0,0,0,84.62,22.67h0A62.13,62.13,0,0,0,507.25,140.14Z"/></g></g></svg>