<svg xmlns="http://www.w3.org/2000/svg" viewBox="0 0 11.85 11.85"><defs><style>.cls-1{fill:#e9863d;}</style></defs><title>Asset 1@3x</title><g id="Layer_2" data-name="Layer 2"><g id="contact"><g id="Layer_25" data-name="Layer 25"><g id="Layer_24" data-name="Layer 24"><path class="cls-1" d="M5.92,1.07c1.58,0,1.77,0,2.39,0a3.28,3.28,0,0,1,1.1.2,1.84,1.84,0,0,1,.68.44,1.84,1.84,0,0,1,.44.68,3.28,3.28,0,0,1,.2,1.1c0,.62,0,.81,0,2.39s0,1.77,0,2.39a3.28,3.28,0,0,1-.2,1.1,2,2,0,0,1-1.12,1.12,3.28,3.28,0,0,1-1.1.2c-.62,0-.81,0-2.39,0s-1.77,0-2.39,0a3.28,3.28,0,0,1-1.1-.2,1.84,1.84,0,0,1-.68-.44,1.84,1.84,0,0,1-.44-.68,3.28,3.28,0,0,1-.2-1.1c0-.62,0-.81,0-2.39s0-1.77,0-2.39a3.28,3.28,0,0,1,.2-1.1,1.84,1.84,0,0,1,.44-.68,1.84,1.84,0,0,1,.68-.44,3.28,3.28,0,0,1,1.1-.2c.62,0,.81,0,2.39,0M5.92,0C4.31,0,4.11,0,3.48,0A4.35,4.35,0,0,0,2,.31,2.9,2.9,0,0,0,1,1,2.9,2.9,0,0,0,.31,2,4.35,4.35,0,0,0,0,3.48c0,.63,0,.83,0,2.44S0,7.73,0,8.37A4.35,4.35,0,0,0,.31,9.8a2.9,2.9,0,0,0,.68,1,2.9,2.9,0,0,0,1,.68,4.35,4.35,0,0,0,1.44.28c.63,0,.83,0,2.44,0s1.81,0,2.44,0a4.35,4.35,0,0,0,1.44-.28A3,3,0,0,0,11.54,9.8a4.35,4.35,0,0,0,.28-1.44c0-.63,0-.83,0-2.44s0-1.81,0-2.44A4.35,4.35,0,0,0,11.54,2a2.9,2.9,0,0,0-.68-1,2.9,2.9,0,0,0-1-.68A4.35,4.35,0,0,0,8.37,0c-.63,0-.83,0-2.44,0Z"/><path class="cls-1" d="M5.92,2.88a3,3,0,1,0,3,3A3,3,0,0,0,5.92,2.88Zm0,5a2,2,0,1,1,2-2A2,2,0,0,1,5.92,7.9Z"/><circle class="cls-1" cx="9.08" cy="2.76" r="0.71"/></g></g></g></g></svg>