<svg xmlns="http://www.w3.org/2000/svg" viewBox="0 0 646.75 792"><defs><style>.cls-1{fill:#231f20;}</style></defs><title>Asset 3@3x</title><g id="Layer_2" data-name="Layer 2"><g id="Layer_1-2" data-name="Layer 1"><path class="cls-1" d="M323.37,792C145.06,792,0,646.93,0,468.63S145.06,145.25,323.37,145.25,646.75,290.32,646.75,468.63,501.68,792,323.37,792Zm0-615.67c-161.18,0-292.3,131.13-292.3,292.3s131.13,292.3,292.3,292.3,292.3-131.13,292.3-292.3S484.55,176.33,323.37,176.33Zm4.57,404.41c-5.48,11.61-30.38,62.43-18.17,69.57,11.23,6.56,45.05-27.35,58.4-41.74,3.81-4.11,8.33-8.64,12.59-4.57,3.07,2.94,2.81,7.77.15,11.09-6.8,8.51-19.28,26.86-37.25,44.16C317.31,684.61,294.09,698.47,274,704c-38.19,10.44-74-14.66-67.67-62.27,7.09-53.12,43.08-129.87,58.44-160.81,6.42-12.93,32.78-63.68,19-70.43-11.68-5.71-44.83,25.61-58.57,42.06-3.24,3.88-7.27,7.52-11.17,5.21-3.53-2.1-3.71-6.92-1.22-10.19,7.63-10,19.88-29.49,37.06-46,62-59.67,109.76-60.44,133.7-28.72C408.54,405.9,348.28,537.68,327.94,580.74ZM435.59,265.6h0a53.35,53.35,0,0,0-72.67-19.47h0a53.35,53.35,0,0,0-19.47,72.67h0a53.35,53.35,0,0,0,72.67,19.47h0A53.35,53.35,0,0,0,435.59,265.6Z"/><path class="cls-1" d="M68.62,106.4c-60,0-68.62-5.71-68.62-52V52C0,5.55,8.64,0,68.62,0H73.4C133.39,0,142,5.55,142,52v2.47c0,18-1.54,22.36-1.54,23.75,0,.77.46,1.23,1.23,1.7l6,3.39c3.55,2,5.09,3.85,5.09,6.32A9.38,9.38,0,0,1,151,94.68l-4.32,6.63c-1.85,2.62-3.7,3.86-5.86,3.86a9.05,9.05,0,0,1-5.24-1.85l-4.93-3.39a3.39,3.39,0,0,0-1.85-.93,4.08,4.08,0,0,0-2,.77c-10.33,5.55-26.68,6.63-53.36,6.63Zm42.72-52.74V52.58c0-26.37-2.78-29.14-39-29.14H69.7c-35.93,0-38.55,2.93-38.55,29.14v1.08c0,26.06,2.31,28.84,38.55,28.84h2.62C84,82.5,95,82,98.38,81.27c.77-.15,1.23-.62,1.23-1.23,0-.77-.62-1.23-1.39-1.7L77.72,66.93c-3.55-2-5.09-3.85-5.09-6.32a9.39,9.39,0,0,1,1.85-5.09l4.32-6.32c1.85-2.62,3.7-3.86,5.86-3.86a9.72,9.72,0,0,1,5.24,2l18,12a4.1,4.1,0,0,0,2.16.93,1,1,0,0,0,1.08-.77A56.74,56.74,0,0,0,111.34,53.66Z"/><path class="cls-1" d="M262.77,10c0-5.71,2.31-9.25,8.17-9.25h15c5.86,0,8.17,3.55,8.17,9.25V70.16c0,32.23-16.65,36.08-63.53,36.24h-3.08c-46.88-.15-63.38-3.55-63.38-36.24V10c0-5.71,2.31-9.25,8.17-9.25h15c5.86,0,8.17,3.55,8.17,9.25V60.6c0,19.89,5.55,21.28,31.61,21.28h4.78c25.75-.15,31-1.39,31-21.28Z"/><path class="cls-1" d="M346.66,96.38c0,5.86-2.31,9.25-8.17,9.25h-14.8c-5.86,0-8.33-3.7-8.33-9.56V10c0-5.86,2.31-9.25,8.17-9.25h14.8c5.86,0,8.33,3.7,8.33,9.56Z"/><path class="cls-1" d="M397.24,54.59c0,24.67,2.62,26.37,37.63,26.37h55.36c5.71,0,9.25,2.31,9.25,8.17v4.63c0,10.33-6.79,12.65-52,12.65H436.25c-61.53,0-70.47-7.09-70.47-51.35V52.58C365.78,7.25,375.65,0,436.25,0h11.26c45.18,0,52,1.7,52,12.65v4c0,5.86-3.55,8.17-9.25,8.17H434.86c-35,0-37.63,2.31-37.63,28.22Z"/><path class="cls-1" d="M549.44,96.38c0,5.86-2.31,9.25-8.17,9.25H526.62c-5.86,0-8.33-3.7-8.33-9.56V10c0-5.86,2.31-9.25,8.17-9.25h14.65c5.86,0,8.33,3.7,8.33,9.56V34.54c0,4.32,2.16,5.4,5.86,5.4h6.94c3.08,0,5.24-1.39,8.17-3.7L608.2,5.86c4.47-3.55,6.94-5.09,11.72-5.09h13.88c4.93,0,8.48,2.62,8.48,6.78a8.56,8.56,0,0,1-3.7,6.94L596.48,48c-1.7,1.39-2.31,2.47-2.31,3.7s.46,2.31,2.31,3.7L643,91.6a8.85,8.85,0,0,1,3.7,7.09c0,4.32-3.55,6.94-8.48,6.94h-16.5c-4.78,0-7.25-1.54-11.72-5.09L570.11,69.08c-3.08-2.47-5.24-4.16-8.94-4.16H555.3c-3.7,0-5.86,1.08-5.86,5.4Z"/></g></g></svg>