<?xml version="1.0" encoding="utf-8"?>
<!-- Generator: Adobe Illustrator 21.0.2, SVG Export Plug-In . SVG Version: 6.00 Build 0)  -->
<svg version="1.1" id="Layer_1" xmlns="http://www.w3.org/2000/svg" xmlns:xlink="http://www.w3.org/1999/xlink" x="0px" y="0px"
	 viewBox="0 0 98.6 96.1" style="enable-background:new 0 0 98.6 96.1;" xml:space="preserve">
<path id="Layer_2" d="M66.4,96.1l-46.1,0c0,0-23,0.4-20.1-20.5S10.7,0,10.7,0h32.9l-2.8,22l37.4-0.2L66.4,96.1z M25.1,63.3
	c0.6-4.3,2.9-17.7,2.9-17.7h36.4l2.5-14.2H30l3-22.3H18.8L9.7,72.9c-1,8.9,1.8,13.6,8.1,14.2h39.9l2.1-13.4H37.2
	C24.6,73.7,23.9,72.6,25.1,63.3L25.1,63.3z M89.5,8.9h-3c-0.9,0-1.4,0.4-1.4,1.2v7.8c0,0.6,0.5,1.2,1.2,1.2c0.6,0,1.2-0.5,1.2-1.2
	V15h0.8l2.3,3.3c0.4,0.6,0.7,0.9,1.3,0.9c0.5,0,1-0.4,1.1-0.9c0-0.3-0.1-0.7-0.3-0.9l-1.8-2.4c1.4-0.1,2.4-1.2,2.4-2.8
	C93.3,9.9,91.9,8.9,89.5,8.9z M87.5,13v-2.2h2.1c0.9,0,1.3,0.3,1.3,1.1s-0.4,1.1-1.3,1.1L87.5,13z M89,4.5c-5.3,0-9.6,4.3-9.6,9.6
	s4.3,9.6,9.6,9.6s9.6-4.3,9.6-9.6c0,0,0,0,0,0C98.6,8.8,94.3,4.5,89,4.5z M89,21.1c-3.9,0-7-3.1-7-7s3.1-7,7-7s7,3.1,7,7
	S92.9,21.1,89,21.1z M93.3,12c0-2.4-1.4-3.1-3.7-3.1h-3c-0.9,0-1.4,0.4-1.4,1.2v7.8c0,0.6,0.5,1.2,1.2,1.2c0.6,0,1.2-0.5,1.2-1.2v-3
	h0.8l2.4,3.3c0.4,0.6,0.7,0.9,1.3,0.9c0.5,0,1-0.4,1.1-0.9c0-0.3-0.1-0.7-0.3-0.9l-1.8-2.4c1.4-0.1,2.5-1.3,2.4-2.8
	C93.3,12.1,93.3,12,93.3,12z M89.6,13h-2.1v-2.2h2.1c0.9,0,1.3,0.3,1.3,1.1S90.5,13.1,89.6,13L89.6,13z M89,4.5
	c-5.3,0-9.6,4.3-9.6,9.6s4.3,9.6,9.6,9.6s9.6-4.3,9.6-9.6c0,0,0,0,0,0C98.6,8.8,94.3,4.5,89,4.5z M89,21.1c-3.9,0-7-3.1-7-7
	s3.1-7,7-7s7,3.1,7,7S92.9,21.1,89,21.1z"/>
</svg>
