<svg xmlns="http://www.w3.org/2000/svg" viewBox="0 0 98.59 96.13"><title>Asset 6@3x</title><g id="Layer_2" data-name="Layer 2"><g id="Layer_4" data-name="Layer 4"><path d="M65,95.8l-44.7.33s-23,.39-20.08-20.51S10.71,0,10.71,0H43.63L40.84,22l36.21-.25-.07.51m-51.93,41c.56-4.34,2.87-17.69,2.87-17.69H64.36L66.82,31.4H30L33,9.12H18.81L9.69,72.94c-1,8.93,1.79,13.57,8.1,14.18H57.65L59.8,73.7H37.17C24.63,73.74,23.85,72.58,25.06,63.27Z"/><path d="M93.27,12c0-2.39-1.37-3.11-3.72-3.11h-3c-.86,0-1.4.41-1.4,1.17v7.82a1.17,1.17,0,0,0,2.34,0v-3h.76l2.37,3.34c.43.61.69.87,1.3.87A1,1,0,0,0,93,18.18a1.4,1.4,0,0,0-.33-.92L90.92,14.9A2.57,2.57,0,0,0,93.27,12Zm-3.64,1H87.51V10.77h2.11c.87,0,1.3.31,1.3,1.15S90.49,13.06,89.62,13.06Z"/><path d="M89,4.51a9.6,9.6,0,1,0,9.6,9.6A9.61,9.61,0,0,0,89,4.51Zm0,16.6a7,7,0,1,1,7-7A7,7,0,0,1,89,21.11Z"/></g><g id="Layer_4_copy" data-name="Layer 4 copy"><path d="M93.27,12c0-2.39-1.37-3.11-3.72-3.11h-3c-.86,0-1.4.41-1.4,1.17v7.82a1.17,1.17,0,0,0,2.34,0v-3h.76l2.37,3.34c.43.61.69.87,1.3.87A1,1,0,0,0,93,18.18a1.4,1.4,0,0,0-.33-.92L90.92,14.9A2.57,2.57,0,0,0,93.27,12Zm-3.64,1H87.51V10.77h2.11c.87,0,1.3.31,1.3,1.15S90.49,13.06,89.62,13.06Z"/><path d="M89,4.51a9.6,9.6,0,1,0,9.6,9.6A9.61,9.61,0,0,0,89,4.51Zm0,16.6a7,7,0,1,1,7-7A7,7,0,0,1,89,21.11Z"/></g></g></svg>