<svg xmlns="http://www.w3.org/2000/svg" viewBox="0 0 7.04 11.85"><defs><style>.cls-1{fill:#e9863d;}</style></defs><title>Asset 4@3x</title><g id="Layer_2" data-name="Layer 2"><g id="contact"><g id="Layer_25" data-name="Layer 25"><g id="Layer_24" data-name="Layer 24"><path class="cls-1" d="M7,11.11a3.35,3.35,0,0,1-2.16.73H4.73a3.1,3.1,0,0,1-3.4-3.25V5.26H.23A.23.23,0,0,1,0,5H0V3.46a.39.39,0,0,1,.26-.37,3,3,0,0,0,2-2.71c0-.25.15-.38.37-.38H4.23a.23.23,0,0,1,.23.23V2.9H6.38a.23.23,0,0,1,.23.23V5a.23.23,0,0,1-.23.23H4.45V8.33c0,.77.51,1,.82,1A2.31,2.31,0,0,0,6,9.16a.5.5,0,0,1,.29-.05.24.24,0,0,1,.17.18L7,10.77C7,10.89,7.07,11,7,11.11Z"/></g></g></g></g></svg>