<svg xmlns="http://www.w3.org/2000/svg" viewBox="0 0 14.48 11.85"><defs><style>.cls-1{fill:#e9863d;}</style></defs><title>Asset 3@3x</title><g id="Layer_2" data-name="Layer 2"><g id="contact"><g id="Layer_25" data-name="Layer 25"><g id="Layer_24" data-name="Layer 24"><path class="cls-1" d="M4.55,11.85A8.43,8.43,0,0,0,13,3.34q0-.19,0-.39A6.07,6.07,0,0,0,14.48,1.4a5.9,5.9,0,0,1-1.71.47A3,3,0,0,0,14.08.22a5.93,5.93,0,0,1-1.89.73A3,3,0,0,0,7.05,3a3,3,0,0,0,.08.68A8.42,8.42,0,0,1,1,.55a3,3,0,0,0,.92,4A2.93,2.93,0,0,1,.58,4.17v0A3,3,0,0,0,3,7.14a2.95,2.95,0,0,1-1.34.05A3,3,0,0,0,4.4,9.26,5.94,5.94,0,0,1,.71,10.54a6,6,0,0,1-.71,0,8.37,8.37,0,0,0,4.55,1.34"/></g></g></g></g></svg>